<svg width="20" height="20" viewBox="0 0 20 20" fill="none" xmlns="http://www.w3.org/2000/svg">
<mask id="path-1-inside-1_4433_27724" fill="white">
<path d="M9.82492 9.89967C9.37492 9.89967 8.91658 9.81634 8.55825 9.65801L3.64158 7.47467C2.39159 6.91634 2.20825 6.16634 2.20825 5.75801C2.20825 5.34967 2.39159 4.59967 3.64158 4.04134L8.55825 1.85801C9.28325 1.53301 10.3749 1.53301 11.0999 1.85801L16.0249 4.04134C17.2666 4.59134 17.4583 5.34967 17.4583 5.75801C17.4583 6.16634 17.2749 6.91634 16.0249 7.47467L11.0999 9.65801C10.7333 9.82467 10.2833 9.89967 9.82492 9.89967ZM9.82492 2.86634C9.54158 2.86634 9.26658 2.90801 9.06658 2.99967L4.14992 5.18301C3.64159 5.41634 3.45825 5.64967 3.45825 5.75801C3.45825 5.86634 3.64158 6.10801 4.14158 6.33301L9.05825 8.51634C9.45825 8.69134 10.1833 8.69134 10.5833 8.51634L15.5083 6.33301C16.0166 6.10801 16.1999 5.86634 16.1999 5.75801C16.1999 5.64967 16.0166 5.40801 15.5083 5.18301L10.5916 2.99967C10.3916 2.91634 10.1083 2.86634 9.82492 2.86634Z"/>
</mask>
<path d="M9.82492 9.89967C9.37492 9.89967 8.91658 9.81634 8.55825 9.65801L3.64158 7.47467C2.39159 6.91634 2.20825 6.16634 2.20825 5.75801C2.20825 5.34967 2.39159 4.59967 3.64158 4.04134L8.55825 1.85801C9.28325 1.53301 10.3749 1.53301 11.0999 1.85801L16.0249 4.04134C17.2666 4.59134 17.4583 5.34967 17.4583 5.75801C17.4583 6.16634 17.2749 6.91634 16.0249 7.47467L11.0999 9.65801C10.7333 9.82467 10.2833 9.89967 9.82492 9.89967ZM9.82492 2.86634C9.54158 2.86634 9.26658 2.90801 9.06658 2.99967L4.14992 5.18301C3.64159 5.41634 3.45825 5.64967 3.45825 5.75801C3.45825 5.86634 3.64158 6.10801 4.14158 6.33301L9.05825 8.51634C9.45825 8.69134 10.1833 8.69134 10.5833 8.51634L15.5083 6.33301C16.0166 6.10801 16.1999 5.86634 16.1999 5.75801C16.1999 5.64967 16.0166 5.40801 15.5083 5.18301L10.5916 2.99967C10.3916 2.91634 10.1083 2.86634 9.82492 2.86634Z" fill="#292D32"/>
<path d="M8.55825 9.65801L7.74655 11.4859L7.74992 11.4874L8.55825 9.65801ZM3.64158 7.47467L2.82592 9.30079L2.82988 9.30255L3.64158 7.47467ZM3.64158 4.04134L2.82988 2.21346L2.82592 2.21523L3.64158 4.04134ZM8.55825 1.85801L9.36996 3.6859L9.37636 3.68303L8.55825 1.85801ZM11.0999 1.85801L10.2818 3.68304L10.2894 3.6864L11.0999 1.85801ZM16.0249 4.04134L15.2144 5.86973L15.2149 5.86997L16.0249 4.04134ZM16.0249 7.47467L16.8355 9.30307L16.8406 9.30079L16.0249 7.47467ZM11.0999 9.65801L10.2894 7.82962L10.2808 7.83341L10.2723 7.83728L11.0999 9.65801ZM9.06658 2.99967L9.87829 4.82755L9.88912 4.82274L9.89989 4.8178L9.06658 2.99967ZM4.14992 5.18301L3.33822 3.35513L3.32687 3.36017L3.31558 3.36535L4.14992 5.18301ZM4.14158 6.33301L3.32085 8.15687L3.32988 8.16089L4.14158 6.33301ZM9.05825 8.51634L8.24654 10.3442L8.25661 10.3487L9.05825 8.51634ZM10.5833 8.51634L11.3849 10.3487L11.3938 10.3447L10.5833 8.51634ZM15.5083 6.33301L14.6988 4.50415L14.6977 4.50462L15.5083 6.33301ZM15.5083 5.18301L14.6965 7.01089L14.6988 7.01186L15.5083 5.18301ZM10.5916 2.99967L11.4033 1.1718L11.3822 1.16241L11.3608 1.15352L10.5916 2.99967ZM9.82492 7.89967C9.59079 7.89967 9.41873 7.85168 9.36658 7.82863L7.74992 11.4874C8.41444 11.781 9.15904 11.8997 9.82492 11.8997V7.89967ZM9.36995 7.83013L4.45329 5.6468L2.82988 9.30255L7.74655 11.4859L9.36995 7.83013ZM4.45725 5.64856C4.27983 5.56932 4.18553 5.50346 4.14377 5.46987C4.104 5.43788 4.1085 5.43262 4.12891 5.46377C4.14954 5.49524 4.17202 5.54192 4.18773 5.6003C4.20281 5.65634 4.20825 5.71017 4.20825 5.75801H0.208252C0.208252 6.27248 0.328192 6.96183 0.783425 7.65642C1.23603 8.34699 1.92564 8.89866 2.82592 9.30079L4.45725 5.64856ZM4.20825 5.75801C4.20825 5.80584 4.20281 5.85967 4.18773 5.91571C4.17202 5.97409 4.14954 6.02077 4.12891 6.05225C4.1085 6.0834 4.104 6.07813 4.14377 6.04614C4.18553 6.01256 4.27983 5.9467 4.45725 5.86746L2.82592 2.21523C1.92564 2.61735 1.23603 3.16903 0.783425 3.8596C0.328192 4.55418 0.208252 5.24354 0.208252 5.75801H4.20825ZM4.45329 5.86922L9.36995 3.68589L7.74655 0.0301293L2.82988 2.21346L4.45329 5.86922ZM9.37636 3.68303C9.42411 3.66162 9.58632 3.61426 9.82908 3.61426C10.0719 3.61426 10.2341 3.66162 10.2818 3.68303L11.918 0.0329891C11.2408 -0.270609 10.4947 -0.385742 9.82908 -0.385742C9.16352 -0.385742 8.4174 -0.270609 7.74014 0.0329891L9.37636 3.68303ZM10.2894 3.6864L15.2144 5.86973L16.8355 2.21295L11.9105 0.0296201L10.2894 3.6864ZM15.2149 5.86997C15.3875 5.94641 15.4791 6.0104 15.5196 6.04293C15.5582 6.07397 15.5545 6.07964 15.5354 6.05048C15.5162 6.02125 15.4946 5.9771 15.4793 5.92078C15.4646 5.86683 15.4583 5.81198 15.4583 5.75801H19.4583C19.4583 5.23444 19.332 4.545 18.8791 3.85512C18.4266 3.16599 17.7376 2.61255 16.8349 2.21271L15.2149 5.86997ZM15.4583 5.75801C15.4583 5.71017 15.4637 5.65634 15.4788 5.6003C15.4945 5.54192 15.517 5.49524 15.5376 5.46377C15.558 5.43262 15.5625 5.43788 15.5227 5.46987C15.481 5.50346 15.3867 5.56932 15.2093 5.64856L16.8406 9.30079C17.7409 8.89866 18.4305 8.34699 18.8831 7.65642C19.3383 6.96184 19.4583 6.27248 19.4583 5.75801H15.4583ZM15.2144 5.64629L10.2894 7.82962L11.9105 11.4864L16.8355 9.30306L15.2144 5.64629ZM10.2723 7.83728C10.2387 7.85258 10.0907 7.89967 9.82492 7.89967V11.8997C10.4758 11.8997 11.2279 11.7968 11.9275 11.4787L10.2723 7.83728ZM9.82492 0.866341C9.39641 0.866341 8.79899 0.92226 8.23327 1.18154L9.89989 4.8178C9.84584 4.84258 9.80506 4.85573 9.78301 4.86208C9.77131 4.86545 9.76259 4.86756 9.75717 4.86878C9.75171 4.87 9.74875 4.8705 9.74846 4.87055C9.74828 4.87058 9.75538 4.86941 9.76986 4.86828C9.78414 4.86717 9.8027 4.86634 9.82492 4.86634V0.866341ZM8.25488 1.1718L3.33822 3.35513L4.96162 7.01089L9.87829 4.82755L8.25488 1.1718ZM3.31558 3.36535C2.92681 3.5438 2.56064 3.76717 2.25632 4.04831C2.10503 4.18808 1.93632 4.37226 1.79246 4.60556C1.66852 4.80657 1.45825 5.21246 1.45825 5.75801H5.45825C5.45825 6.24939 5.2709 6.58549 5.19722 6.70498C5.10362 6.85678 5.01252 6.94773 4.9706 6.98645C4.88503 7.06551 4.86469 7.05555 4.98425 7.00067L3.31558 3.36535ZM1.45825 5.75801C1.45825 6.29682 1.6637 6.69875 1.78258 6.89565C1.92272 7.12775 2.08831 7.31363 2.24082 7.45733C2.54812 7.74691 2.92042 7.97665 3.32086 8.15685L4.96231 4.50916C4.86275 4.46436 4.89338 4.46077 4.98402 4.54618C5.0282 4.58781 5.1167 4.67889 5.20684 4.82818C5.25272 4.90417 5.30996 5.01334 5.35838 5.15413C5.40517 5.29019 5.45825 5.49801 5.45825 5.75801H1.45825ZM3.32988 8.16089L8.24655 10.3442L9.86995 6.68846L4.95329 4.50513L3.32988 8.16089ZM8.25661 10.3487C8.79984 10.5863 9.38322 10.6476 9.82075 10.6476C10.2583 10.6476 10.8417 10.5863 11.3849 10.3487L9.78161 6.68403C9.83121 6.66233 9.86658 6.65158 9.88251 6.64714C9.89933 6.64246 9.90609 6.64158 9.90176 6.64231C9.89784 6.64297 9.88791 6.64441 9.8725 6.64563C9.85725 6.64684 9.83964 6.64759 9.82075 6.64759C9.80186 6.64759 9.78425 6.64684 9.769 6.64563C9.75359 6.64441 9.74366 6.64297 9.73975 6.64231C9.73541 6.64158 9.74218 6.64246 9.75899 6.64714C9.77492 6.65158 9.81029 6.66233 9.85989 6.68403L8.25661 10.3487ZM11.3938 10.3447L16.3188 8.1614L14.6977 4.50462L9.7727 6.68795L11.3938 10.3447ZM16.3177 8.16186C16.7221 7.9829 17.0984 7.75404 17.4093 7.46387C17.5637 7.31978 17.7313 7.13315 17.8731 6.89959C17.9938 6.70065 18.1999 6.29782 18.1999 5.75801H14.1999C14.1999 5.27236 14.3831 4.94037 14.4536 4.82424C14.5451 4.67349 14.6351 4.58166 14.6801 4.53965C14.7722 4.45364 14.8028 4.45811 14.6988 4.50415L16.3177 8.16186ZM18.1999 5.75801C18.1999 5.21819 17.9938 4.81537 17.8731 4.61643C17.7313 4.38286 17.5637 4.19624 17.4093 4.05215C17.0984 3.76197 16.7221 3.53311 16.3177 3.35415L14.6988 7.01186C14.8028 7.05791 14.7722 7.06238 14.6801 6.97637C14.6351 6.93436 14.5451 6.84253 14.4536 6.69178C14.3831 6.57565 14.1999 6.24366 14.1999 5.75801H18.1999ZM16.32 3.35513L11.4033 1.1718L9.77988 4.82755L14.6965 7.01089L16.32 3.35513ZM11.3608 1.15352C10.8593 0.944543 10.3015 0.866341 9.82492 0.866341V4.86634C9.83738 4.86634 9.85094 4.86691 9.86447 4.86808C9.87806 4.86925 9.88874 4.87077 9.8955 4.87195C9.8987 4.87251 9.90023 4.87285 9.90003 4.87281C9.89987 4.87277 9.89731 4.8722 9.89241 4.87084C9.88757 4.8695 9.87944 4.86711 9.86827 4.8633C9.85718 4.85953 9.84168 4.85388 9.82235 4.84583L11.3608 1.15352Z" fill="#1D2433" mask="url(#path-1-inside-1_4433_27724)"/>
<mask id="path-3-inside-2_4433_27724" fill="white">
<path d="M10 14.242C9.68333 14.242 9.36667 14.1753 9.06667 14.042L3.40833 11.5253C2.55 11.1503 1.875 10.1087 1.875 9.16699C1.875 8.82533 2.15833 8.54199 2.5 8.54199C2.84167 8.54199 3.125 8.82533 3.125 9.16699C3.125 9.62533 3.5 10.2003 3.91667 10.392L9.575 12.9087C9.84167 13.0253 10.15 13.0253 10.425 12.9087L16.0833 10.392C16.5 10.2087 16.875 9.62533 16.875 9.16699C16.875 8.82533 17.1583 8.54199 17.5 8.54199C17.8417 8.54199 18.125 8.82533 18.125 9.16699C18.125 10.1087 17.45 11.1503 16.5917 11.5337L10.9333 14.0503C10.6333 14.1753 10.3167 14.242 10 14.242Z"/>
</mask>
<path d="M10 14.242C9.68333 14.242 9.36667 14.1753 9.06667 14.042L3.40833 11.5253C2.55 11.1503 1.875 10.1087 1.875 9.16699C1.875 8.82533 2.15833 8.54199 2.5 8.54199C2.84167 8.54199 3.125 8.82533 3.125 9.16699C3.125 9.62533 3.5 10.2003 3.91667 10.392L9.575 12.9087C9.84167 13.0253 10.15 13.0253 10.425 12.9087L16.0833 10.392C16.5 10.2087 16.875 9.62533 16.875 9.16699C16.875 8.82533 17.1583 8.54199 17.5 8.54199C17.8417 8.54199 18.125 8.82533 18.125 9.16699C18.125 10.1087 17.45 11.1503 16.5917 11.5337L10.9333 14.0503C10.6333 14.1753 10.3167 14.242 10 14.242Z" fill="#292D32"/>
<path d="M9.06667 14.042L8.25389 15.8694L8.25439 15.8696L9.06667 14.042ZM3.40833 11.5253L4.22113 9.69788L4.20904 9.6926L3.40833 11.5253ZM3.91667 10.392L3.08086 12.209L3.09234 12.2143L3.10389 12.2194L3.91667 10.392ZM9.575 12.9087L8.76221 14.7361L8.77336 14.741L9.575 12.9087ZM10.425 12.9087L11.2061 14.7498L11.222 14.7431L11.2378 14.7361L10.425 12.9087ZM16.0833 10.392L15.2778 8.56135L15.2706 8.56459L16.0833 10.392ZM16.5917 11.5337L17.4044 13.3611L17.4072 13.3598L16.5917 11.5337ZM10.9333 14.0503L11.7026 15.8965L11.7244 15.8874L11.7461 15.8777L10.9333 14.0503ZM10 12.242C9.96608 12.242 9.9259 12.2352 9.87894 12.2144L8.25439 15.8696C8.80744 16.1154 9.40059 16.242 10 16.242V12.242ZM9.87944 12.2146L4.22111 9.69792L2.59556 13.3527L8.25389 15.8694L9.87944 12.2146ZM4.20904 9.6926C4.21505 9.69523 4.18923 9.68454 4.14242 9.64253C4.09633 9.60117 4.04456 9.5424 3.99705 9.46926C3.94958 9.39616 3.91602 9.32358 3.89592 9.26175C3.87552 9.199 3.875 9.16631 3.875 9.16699H-0.125C-0.125 10.0943 0.197405 10.9627 0.642529 11.6481C1.08725 12.3328 1.75168 12.9841 2.60763 13.358L4.20904 9.6926ZM3.875 9.16699C3.875 9.9299 3.2629 10.542 2.5 10.542V6.54199C1.05376 6.54199 -0.125 7.72076 -0.125 9.16699H3.875ZM2.5 10.542C1.7371 10.542 1.125 9.9299 1.125 9.16699H5.125C5.125 7.72076 3.94624 6.54199 2.5 6.54199V10.542ZM1.125 9.16699C1.125 9.89353 1.40057 10.5265 1.68628 10.9673C1.97285 11.4094 2.43337 11.9111 3.08086 12.209L4.75248 8.57501C4.88259 8.63486 4.95676 8.69853 4.98615 8.72612C5.01852 8.75651 5.03454 8.77882 5.04289 8.7917C5.05118 8.80449 5.06612 8.8299 5.08171 8.87533C5.09597 8.91686 5.125 9.01658 5.125 9.16699H1.125ZM3.10389 12.2194L8.76222 14.7361L10.3878 11.0813L4.72944 8.56459L3.10389 12.2194ZM8.77336 14.741C9.55872 15.0846 10.4398 15.0749 11.2061 14.7498L9.6439 11.0675C9.86021 10.9757 10.1246 10.9661 10.3766 11.0763L8.77336 14.741ZM11.2378 14.7361L16.8961 12.2194L15.2706 8.56459L9.61222 11.0813L11.2378 14.7361ZM16.8888 12.2226C17.5628 11.9261 18.0317 11.4075 18.316 10.9669C18.6015 10.5244 18.875 9.89063 18.875 9.16699H14.875C14.875 9.01723 14.9038 8.91898 14.9172 8.8796C14.9321 8.836 14.9464 8.81147 14.9548 8.79836C14.9632 8.78537 14.9808 8.76056 15.0171 8.7266C15.05 8.6958 15.1331 8.62504 15.2779 8.56136L16.8888 12.2226ZM18.875 9.16699C18.875 9.9299 18.2629 10.542 17.5 10.542V6.54199C16.0538 6.54199 14.875 7.72076 14.875 9.16699H18.875ZM17.5 10.542C16.7371 10.542 16.125 9.9299 16.125 9.16699H20.125C20.125 7.72076 18.9462 6.54199 17.5 6.54199V10.542ZM16.125 9.16699C16.125 9.16628 16.1245 9.19905 16.104 9.26218C16.0838 9.32441 16.0499 9.39781 16.0017 9.47218C15.9535 9.54656 15.9005 9.60723 15.8524 9.65075C15.8035 9.69493 15.7744 9.70825 15.7761 9.7075L17.4072 13.3598C18.2546 12.9814 18.915 12.332 19.3587 11.6472C19.8025 10.9623 20.125 10.0946 20.125 9.16699H16.125ZM15.7789 9.70626L10.1206 12.2229L11.7461 15.8777L17.4044 13.3611L15.7789 9.70626ZM10.1641 12.2042C10.0915 12.2344 10.0355 12.242 10 12.242V16.242C10.5978 16.242 11.1751 16.1162 11.7026 15.8965L10.1641 12.2042Z" fill="#1D2433" mask="url(#path-3-inside-2_4433_27724)"/>
<path d="M10 18.4085C9.68333 18.4085 9.36667 18.3419 9.06667 18.2085L3.40833 15.6919C2.475 15.2752 1.875 14.3502 1.875 13.3252C1.875 12.9835 2.15833 12.7002 2.5 12.7002C2.84167 12.7002 3.125 12.9919 3.125 13.3335C3.125 13.8585 3.43333 14.3419 3.91667 14.5585L9.575 17.0752C9.84167 17.1919 10.15 17.1919 10.425 17.0752L16.0833 14.5585C16.5667 14.3419 16.875 13.8669 16.875 13.3335C16.875 12.9919 17.1583 12.7085 17.5 12.7085C17.8417 12.7085 18.125 12.9919 18.125 13.3335C18.125 14.3585 17.525 15.2835 16.5917 15.7002L10.9333 18.2169C10.6333 18.3419 10.3167 18.4085 10 18.4085Z" fill="#292D32"/>
</svg>
