<svg width="20" height="20" viewBox="0 0 20 20" fill="none" xmlns="http://www.w3.org/2000/svg">
<mask id="path-1-inside-1_4433_27790" fill="white">
<path d="M14.9999 6.59148C14.9749 6.59148 14.9583 6.59148 14.9333 6.59148H14.8916C13.3166 6.54148 12.1416 5.32481 12.1416 3.82481C12.1416 2.29147 13.3916 1.0498 14.9166 1.0498C16.4416 1.0498 17.6916 2.29981 17.6916 3.82481C17.6833 5.33314 16.5083 6.54981 15.0083 6.59981C15.0083 6.59147 15.0083 6.59148 14.9999 6.59148ZM14.9166 2.29148C14.0749 2.29148 13.3916 2.97481 13.3916 3.81648C13.3916 4.64148 14.0333 5.30815 14.8583 5.34148C14.8666 5.33315 14.9333 5.33315 15.0083 5.34148C15.8166 5.29981 16.4416 4.63314 16.4499 3.81648C16.4499 2.97481 15.7666 2.29148 14.9166 2.29148Z"/>
</mask>
<path d="M14.9999 6.59148C14.9749 6.59148 14.9583 6.59148 14.9333 6.59148H14.8916C13.3166 6.54148 12.1416 5.32481 12.1416 3.82481C12.1416 2.29147 13.3916 1.0498 14.9166 1.0498C16.4416 1.0498 17.6916 2.29981 17.6916 3.82481C17.6833 5.33314 16.5083 6.54981 15.0083 6.59981C15.0083 6.59147 15.0083 6.59148 14.9999 6.59148ZM14.9166 2.29148C14.0749 2.29148 13.3916 2.97481 13.3916 3.81648C13.3916 4.64148 14.0333 5.30815 14.8583 5.34148C14.8666 5.33315 14.9333 5.33315 15.0083 5.34148C15.8166 5.29981 16.4416 4.63314 16.4499 3.81648C16.4499 2.97481 15.7666 2.29148 14.9166 2.29148Z" fill="#FFFFFF"/>
<path d="M14.8916 6.59148L14.8281 8.59047L14.8599 8.59148H14.8916V6.59148ZM17.6916 3.82481L19.6916 3.83586V3.82481H17.6916ZM15.0083 6.59981H13.0083V8.66758L15.0749 8.5987L15.0083 6.59981ZM14.8583 5.34148L14.7775 7.33985L15.653 7.37522L16.2725 6.75569L14.8583 5.34148ZM15.0083 5.34148L14.7874 7.32925L14.9489 7.34719L15.1112 7.33883L15.0083 5.34148ZM16.4499 3.81648L18.4498 3.83688L18.4499 3.82668V3.81648H16.4499ZM14.9999 4.59148C14.9999 4.59148 14.9998 4.59148 14.9998 4.59148C14.9997 4.59148 14.9997 4.59148 14.9996 4.59148C14.9996 4.59148 14.9995 4.59148 14.9995 4.59148C14.9994 4.59148 14.9994 4.59148 14.9994 4.59148C14.9993 4.59148 14.9993 4.59148 14.9992 4.59148C14.9992 4.59148 14.9991 4.59148 14.9991 4.59148C14.999 4.59148 14.999 4.59148 14.9989 4.59148C14.9989 4.59148 14.9988 4.59148 14.9988 4.59148C14.9987 4.59148 14.9987 4.59148 14.9986 4.59148C14.9986 4.59148 14.9985 4.59148 14.9985 4.59148C14.9984 4.59148 14.9984 4.59148 14.9983 4.59148C14.9983 4.59148 14.9982 4.59148 14.9982 4.59148C14.9981 4.59148 14.9981 4.59148 14.998 4.59148C14.998 4.59148 14.998 4.59148 14.9979 4.59148C14.9979 4.59148 14.9978 4.59148 14.9978 4.59148C14.9977 4.59148 14.9977 4.59148 14.9976 4.59148C14.9976 4.59148 14.9975 4.59148 14.9975 4.59148C14.9974 4.59148 14.9974 4.59148 14.9973 4.59148C14.9973 4.59148 14.9972 4.59148 14.9972 4.59148C14.9971 4.59148 14.9971 4.59148 14.997 4.59148C14.997 4.59148 14.9969 4.59148 14.9969 4.59148C14.9969 4.59148 14.9968 4.59148 14.9968 4.59148C14.9967 4.59148 14.9967 4.59148 14.9966 4.59148C14.9966 4.59148 14.9965 4.59148 14.9965 4.59148C14.9964 4.59148 14.9964 4.59148 14.9963 4.59148C14.9963 4.59148 14.9962 4.59148 14.9962 4.59148C14.9961 4.59148 14.9961 4.59148 14.996 4.59148C14.996 4.59148 14.996 4.59148 14.9959 4.59148C14.9959 4.59148 14.9958 4.59148 14.9958 4.59148C14.9957 4.59148 14.9957 4.59148 14.9956 4.59148C14.9956 4.59148 14.9955 4.59148 14.9955 4.59148C14.9954 4.59148 14.9954 4.59148 14.9953 4.59148C14.9953 4.59148 14.9952 4.59148 14.9952 4.59148C14.9952 4.59148 14.9951 4.59148 14.9951 4.59148C14.995 4.59148 14.995 4.59148 14.9949 4.59148C14.9949 4.59148 14.9948 4.59148 14.9948 4.59148C14.9947 4.59148 14.9947 4.59148 14.9946 4.59148C14.9946 4.59148 14.9945 4.59148 14.9945 4.59148C14.9945 4.59148 14.9944 4.59148 14.9944 4.59148C14.9943 4.59148 14.9943 4.59148 14.9942 4.59148C14.9942 4.59148 14.9941 4.59148 14.9941 4.59148C14.994 4.59148 14.994 4.59148 14.9939 4.59148C14.9939 4.59148 14.9938 4.59148 14.9938 4.59148C14.9938 4.59148 14.9937 4.59148 14.9937 4.59148C14.9936 4.59148 14.9936 4.59148 14.9935 4.59148C14.9935 4.59148 14.9934 4.59148 14.9934 4.59148C14.9933 4.59148 14.9933 4.59148 14.9932 4.59148C14.9932 4.59148 14.9932 4.59148 14.9931 4.59148C14.9931 4.59148 14.993 4.59148 14.993 4.59148C14.9929 4.59148 14.9929 4.59148 14.9928 4.59148C14.9928 4.59148 14.9927 4.59148 14.9927 4.59148C14.9926 4.59148 14.9926 4.59148 14.9926 4.59148C14.9925 4.59148 14.9925 4.59148 14.9924 4.59148C14.9924 4.59148 14.9923 4.59148 14.9923 4.59148C14.9922 4.59148 14.9922 4.59148 14.9921 4.59148C14.9921 4.59148 14.9921 4.59148 14.992 4.59148C14.992 4.59148 14.9919 4.59148 14.9919 4.59148C14.9918 4.59148 14.9918 4.59148 14.9917 4.59148C14.9917 4.59148 14.9916 4.59148 14.9916 4.59148C14.9916 4.59148 14.9915 4.59148 14.9915 4.59148C14.9914 4.59148 14.9914 4.59148 14.9913 4.59148C14.9913 4.59148 14.9912 4.59148 14.9912 4.59148C14.9911 4.59148 14.9911 4.59148 14.9911 4.59148C14.991 4.59148 14.991 4.59148 14.9909 4.59148C14.9909 4.59148 14.9908 4.59148 14.9908 4.59148C14.9907 4.59148 14.9907 4.59148 14.9906 4.59148C14.9906 4.59148 14.9906 4.59148 14.9905 4.59148C14.9905 4.59148 14.9904 4.59148 14.9904 4.59148C14.9903 4.59148 14.9903 4.59148 14.9902 4.59148C14.9902 4.59148 14.9902 4.59148 14.9901 4.59148C14.9901 4.59148 14.99 4.59148 14.99 4.59148C14.9899 4.59148 14.9899 4.59148 14.9898 4.59148C14.9898 4.59148 14.9897 4.59148 14.9897 4.59148C14.9897 4.59148 14.9896 4.59148 14.9896 4.59148C14.9895 4.59148 14.9895 4.59148 14.9894 4.59148C14.9894 4.59148 14.9893 4.59148 14.9893 4.59148C14.9893 4.59148 14.9892 4.59148 14.9892 4.59148C14.9891 4.59148 14.9891 4.59148 14.989 4.59148C14.989 4.59148 14.9889 4.59148 14.9889 4.59148C14.9889 4.59148 14.9888 4.59148 14.9888 4.59148C14.9887 4.59148 14.9887 4.59148 14.9886 4.59148C14.9886 4.59148 14.9885 4.59148 14.9885 4.59148C14.9885 4.59148 14.9884 4.59148 14.9884 4.59148C14.9883 4.59148 14.9883 4.59148 14.9882 4.59148C14.9882 4.59148 14.9881 4.59148 14.9881 4.59148C14.9881 4.59148 14.988 4.59148 14.988 4.59148C14.9879 4.59148 14.9879 4.59148 14.9878 4.59148C14.9878 4.59148 14.9877 4.59148 14.9877 4.59148C14.9877 4.59148 14.9876 4.59148 14.9876 4.59148C14.9875 4.59148 14.9875 4.59148 14.9874 4.59148C14.9874 4.59148 14.9873 4.59148 14.9873 4.59148C14.9873 4.59148 14.9872 4.59148 14.9872 4.59148C14.9871 4.59148 14.9871 4.59148 14.987 4.59148C14.987 4.59148 14.9869 4.59148 14.9869 4.59148C14.9869 4.59148 14.9868 4.59148 14.9868 4.59148C14.9867 4.59148 14.9867 4.59148 14.9866 4.59148C14.9866 4.59148 14.9866 4.59148 14.9865 4.59148C14.9865 4.59148 14.9864 4.59148 14.9864 4.59148C14.9863 4.59148 14.9863 4.59148 14.9862 4.59148C14.9862 4.59148 14.9862 4.59148 14.9861 4.59148C14.9861 4.59148 14.986 4.59148 14.986 4.59148C14.9859 4.59148 14.9859 4.59148 14.9859 4.59148C14.9858 4.59148 14.9858 4.59148 14.9857 4.59148C14.9857 4.59148 14.9856 4.59148 14.9856 4.59148C14.9855 4.59148 14.9855 4.59148 14.9855 4.59148C14.9854 4.59148 14.9854 4.59148 14.9853 4.59148C14.9853 4.59148 14.9852 4.59148 14.9852 4.59148C14.9852 4.59148 14.9851 4.59148 14.9851 4.59148C14.985 4.59148 14.985 4.59148 14.9849 4.59148C14.9849 4.59148 14.9849 4.59148 14.9848 4.59148C14.9848 4.59148 14.9847 4.59148 14.9847 4.59148C14.9846 4.59148 14.9846 4.59148 14.9845 4.59148C14.9845 4.59148 14.9845 4.59148 14.9844 4.59148C14.9844 4.59148 14.9843 4.59148 14.9843 4.59148C14.9842 4.59148 14.9842 4.59148 14.9842 4.59148C14.9841 4.59148 14.9841 4.59148 14.984 4.59148C14.984 4.59148 14.9839 4.59148 14.9839 4.59148C14.9839 4.59148 14.9838 4.59148 14.9838 4.59148C14.9837 4.59148 14.9837 4.59148 14.9836 4.59148C14.9836 4.59148 14.9836 4.59148 14.9835 4.59148C14.9835 4.59148 14.9834 4.59148 14.9834 4.59148C14.9833 4.59148 14.9833 4.59148 14.9833 4.59148C14.9832 4.59148 14.9832 4.59148 14.9831 4.59148C14.9831 4.59148 14.983 4.59148 14.983 4.59148C14.983 4.59148 14.9829 4.59148 14.9829 4.59148C14.9828 4.59148 14.9828 4.59148 14.9827 4.59148C14.9827 4.59148 14.9827 4.59148 14.9826 4.59148C14.9826 4.59148 14.9825 4.59148 14.9825 4.59148C14.9824 4.59148 14.9824 4.59148 14.9824 4.59148C14.9823 4.59148 14.9823 4.59148 14.9822 4.59148C14.9822 4.59148 14.9821 4.59148 14.9821 4.59148C14.9821 4.59148 14.982 4.59148 14.982 4.59148C14.9819 4.59148 14.9819 4.59148 14.9818 4.59148C14.9818 4.59148 14.9818 4.59148 14.9817 4.59148C14.9817 4.59148 14.9816 4.59148 14.9816 4.59148C14.9815 4.59148 14.9815 4.59148 14.9815 4.59148C14.9814 4.59148 14.9814 4.59148 14.9813 4.59148C14.9813 4.59148 14.9813 4.59148 14.9812 4.59148C14.9812 4.59148 14.9811 4.59148 14.9811 4.59148C14.981 4.59148 14.981 4.59148 14.981 4.59148C14.9809 4.59148 14.9809 4.59148 14.9808 4.59148C14.9808 4.59148 14.9807 4.59148 14.9807 4.59148C14.9807 4.59148 14.9806 4.59148 14.9806 4.59148C14.9805 4.59148 14.9805 4.59148 14.9804 4.59148C14.9804 4.59148 14.9804 4.59148 14.9803 4.59148C14.9803 4.59148 14.9802 4.59148 14.9802 4.59148C14.9802 4.59148 14.9801 4.59148 14.9801 4.59148C14.98 4.59148 14.98 4.59148 14.9799 4.59148C14.9799 4.59148 14.9799 4.59148 14.9798 4.59148C14.9798 4.59148 14.9797 4.59148 14.9797 4.59148C14.9796 4.59148 14.9796 4.59148 14.9796 4.59148C14.9795 4.59148 14.9795 4.59148 14.9794 4.59148C14.9794 4.59148 14.9794 4.59148 14.9793 4.59148C14.9793 4.59148 14.9792 4.59148 14.9792 4.59148C14.9791 4.59148 14.9791 4.59148 14.9791 4.59148C14.979 4.59148 14.979 4.59148 14.9789 4.59148C14.9789 4.59148 14.9788 4.59148 14.9788 4.59148C14.9788 4.59148 14.9787 4.59148 14.9787 4.59148C14.9786 4.59148 14.9786 4.59148 14.9786 4.59148C14.9785 4.59148 14.9785 4.59148 14.9784 4.59148C14.9784 4.59148 14.9783 4.59148 14.9783 4.59148C14.9783 4.59148 14.9782 4.59148 14.9782 4.59148C14.9781 4.59148 14.9781 4.59148 14.9781 4.59148C14.978 4.59148 14.978 4.59148 14.9779 4.59148C14.9779 4.59148 14.9778 4.59148 14.9778 4.59148C14.9778 4.59148 14.9777 4.59148 14.9777 4.59148C14.9776 4.59148 14.9776 4.59148 14.9776 4.59148C14.9775 4.59148 14.9775 4.59148 14.9774 4.59148C14.9774 4.59148 14.9773 4.59148 14.9773 4.59148C14.9773 4.59148 14.9772 4.59148 14.9772 4.59148C14.9771 4.59148 14.9771 4.59148 14.9771 4.59148C14.977 4.59148 14.977 4.59148 14.9769 4.59148C14.9769 4.59148 14.9768 4.59148 14.9768 4.59148C14.9768 4.59148 14.9767 4.59148 14.9767 4.59148C14.9766 4.59148 14.9766 4.59148 14.9766 4.59148C14.9765 4.59148 14.9765 4.59148 14.9764 4.59148C14.9764 4.59148 14.9763 4.59148 14.9763 4.59148C14.9763 4.59148 14.9762 4.59148 14.9762 4.59148C14.9761 4.59148 14.9761 4.59148 14.9761 4.59148C14.976 4.59148 14.976 4.59148 14.9759 4.59148C14.9759 4.59148 14.9758 4.59148 14.9758 4.59148C14.9758 4.59148 14.9757 4.59148 14.9757 4.59148C14.9756 4.59148 14.9756 4.59148 14.9756 4.59148C14.9755 4.59148 14.9755 4.59148 14.9754 4.59148C14.9754 4.59148 14.9754 4.59148 14.9753 4.59148C14.9753 4.59148 14.9752 4.59148 14.9752 4.59148C14.9751 4.59148 14.9751 4.59148 14.9751 4.59148C14.975 4.59148 14.975 4.59148 14.9749 4.59148C14.9749 4.59148 14.9749 4.59148 14.9748 4.59148C14.9748 4.59148 14.9747 4.59148 14.9747 4.59148C14.9747 4.59148 14.9746 4.59148 14.9746 4.59148C14.9745 4.59148 14.9745 4.59148 14.9744 4.59148C14.9744 4.59148 14.9744 4.59148 14.9743 4.59148C14.9743 4.59148 14.9742 4.59148 14.9742 4.59148C14.9742 4.59148 14.9741 4.59148 14.9741 4.59148C14.974 4.59148 14.974 4.59148 14.974 4.59148C14.9739 4.59148 14.9739 4.59148 14.9738 4.59148C14.9738 4.59148 14.9737 4.59148 14.9737 4.59148C14.9737 4.59148 14.9736 4.59148 14.9736 4.59148C14.9735 4.59148 14.9735 4.59148 14.9735 4.59148C14.9734 4.59148 14.9734 4.59148 14.9733 4.59148C14.9733 4.59148 14.9733 4.59148 14.9732 4.59148C14.9732 4.59148 14.9731 4.59148 14.9731 4.59148C14.973 4.59148 14.973 4.59148 14.973 4.59148C14.9729 4.59148 14.9729 4.59148 14.9728 4.59148C14.9728 4.59148 14.9728 4.59148 14.9727 4.59148C14.9727 4.59148 14.9726 4.59148 14.9726 4.59148C14.9726 4.59148 14.9725 4.59148 14.9725 4.59148C14.9724 4.59148 14.9724 4.59148 14.9724 4.59148C14.9723 4.59148 14.9723 4.59148 14.9722 4.59148C14.9722 4.59148 14.9721 4.59148 14.9721 4.59148C14.9721 4.59148 14.972 4.59148 14.972 4.59148C14.9719 4.59148 14.9719 4.59148 14.9719 4.59148C14.9718 4.59148 14.9718 4.59148 14.9717 4.59148C14.9717 4.59148 14.9717 4.59148 14.9716 4.59148C14.9716 4.59148 14.9715 4.59148 14.9715 4.59148C14.9715 4.59148 14.9714 4.59148 14.9714 4.59148C14.9713 4.59148 14.9713 4.59148 14.9712 4.59148C14.9712 4.59148 14.9712 4.59148 14.9711 4.59148C14.9711 4.59148 14.971 4.59148 14.971 4.59148C14.971 4.59148 14.9709 4.59148 14.9709 4.59148C14.9708 4.59148 14.9708 4.59148 14.9708 4.59148C14.9707 4.59148 14.9707 4.59148 14.9706 4.59148C14.9706 4.59148 14.9706 4.59148 14.9705 4.59148C14.9705 4.59148 14.9704 4.59148 14.9704 4.59148C14.9703 4.59148 14.9703 4.59148 14.9703 4.59148C14.9702 4.59148 14.9702 4.59148 14.9701 4.59148C14.9701 4.59148 14.9701 4.59148 14.97 4.59148C14.97 4.59148 14.9699 4.59148 14.9699 4.59148C14.9699 4.59148 14.9698 4.59148 14.9698 4.59148C14.9697 4.59148 14.9697 4.59148 14.9697 4.59148C14.9696 4.59148 14.9696 4.59148 14.9695 4.59148C14.9695 4.59148 14.9695 4.59148 14.9694 4.59148C14.9694 4.59148 14.9693 4.59148 14.9693 4.59148C14.9692 4.59148 14.9692 4.59148 14.9692 4.59148C14.9691 4.59148 14.9691 4.59148 14.969 4.59148C14.969 4.59148 14.969 4.59148 14.9689 4.59148C14.9689 4.59148 14.9688 4.59148 14.9688 4.59148C14.9688 4.59148 14.9687 4.59148 14.9687 4.59148C14.9686 4.59148 14.9686 4.59148 14.9686 4.59148C14.9685 4.59148 14.9685 4.59148 14.9684 4.59148C14.9684 4.59148 14.9684 4.59148 14.9683 4.59148C14.9683 4.59148 14.9682 4.59148 14.9682 4.59148C14.9681 4.59148 14.9681 4.59148 14.9681 4.59148C14.968 4.59148 14.968 4.59148 14.9679 4.59148C14.9679 4.59148 14.9679 4.59148 14.9678 4.59148C14.9678 4.59148 14.9677 4.59148 14.9677 4.59148C14.9677 4.59148 14.9676 4.59148 14.9676 4.59148C14.9675 4.59148 14.9675 4.59148 14.9675 4.59148C14.9674 4.59148 14.9674 4.59148 14.9673 4.59148C14.9673 4.59148 14.9673 4.59148 14.9672 4.59148C14.9672 4.59148 14.9671 4.59148 14.9671 4.59148C14.967 4.59148 14.967 4.59148 14.967 4.59148C14.9669 4.59148 14.9669 4.59148 14.9668 4.59148C14.9668 4.59148 14.9668 4.59148 14.9667 4.59148C14.9667 4.59148 14.9666 4.59148 14.9666 4.59148C14.9666 4.59148 14.9665 4.59148 14.9665 4.59148C14.9664 4.59148 14.9664 4.59148 14.9664 4.59148C14.9663 4.59148 14.9663 4.59148 14.9662 4.59148C14.9662 4.59148 14.9662 4.59148 14.9661 4.59148C14.9661 4.59148 14.966 4.59148 14.966 4.59148C14.9659 4.59148 14.9659 4.59148 14.9659 4.59148C14.9658 4.59148 14.9658 4.59148 14.9657 4.59148C14.9657 4.59148 14.9657 4.59148 14.9656 4.59148C14.9656 4.59148 14.9655 4.59148 14.9655 4.59148C14.9655 4.59148 14.9654 4.59148 14.9654 4.59148C14.9653 4.59148 14.9653 4.59148 14.9653 4.59148C14.9652 4.59148 14.9652 4.59148 14.9651 4.59148C14.9651 4.59148 14.9651 4.59148 14.965 4.59148C14.965 4.59148 14.9649 4.59148 14.9649 4.59148C14.9649 4.59148 14.9648 4.59148 14.9648 4.59148C14.9647 4.59148 14.9647 4.59148 14.9646 4.59148C14.9646 4.59148 14.9646 4.59148 14.9645 4.59148C14.9645 4.59148 14.9644 4.59148 14.9644 4.59148C14.9644 4.59148 14.9643 4.59148 14.9643 4.59148C14.9642 4.59148 14.9642 4.59148 14.9642 4.59148C14.9641 4.59148 14.9641 4.59148 14.964 4.59148C14.964 4.59148 14.964 4.59148 14.9639 4.59148C14.9639 4.59148 14.9638 4.59148 14.9638 4.59148C14.9638 4.59148 14.9637 4.59148 14.9637 4.59148C14.9636 4.59148 14.9636 4.59148 14.9635 4.59148C14.9635 4.59148 14.9635 4.59148 14.9634 4.59148C14.9634 4.59148 14.9633 4.59148 14.9633 4.59148C14.9633 4.59148 14.9632 4.59148 14.9632 4.59148C14.9631 4.59148 14.9631 4.59148 14.9631 4.59148C14.963 4.59148 14.963 4.59148 14.9629 4.59148C14.9629 4.59148 14.9629 4.59148 14.9628 4.59148C14.9628 4.59148 14.9627 4.59148 14.9627 4.59148C14.9626 4.59148 14.9626 4.59148 14.9626 4.59148C14.9625 4.59148 14.9625 4.59148 14.9624 4.59148C14.9624 4.59148 14.9624 4.59148 14.9623 4.59148C14.9623 4.59148 14.9622 4.59148 14.9622 4.59148C14.9622 4.59148 14.9621 4.59148 14.9621 4.59148C14.962 4.59148 14.962 4.59148 14.962 4.59148C14.9619 4.59148 14.9619 4.59148 14.9618 4.59148C14.9618 4.59148 14.9618 4.59148 14.9617 4.59148C14.9617 4.59148 14.9616 4.59148 14.9616 4.59148C14.9615 4.59148 14.9615 4.59148 14.9615 4.59148C14.9614 4.59148 14.9614 4.59148 14.9613 4.59148C14.9613 4.59148 14.9613 4.59148 14.9612 4.59148C14.9612 4.59148 14.9611 4.59148 14.9611 4.59148C14.9611 4.59148 14.961 4.59148 14.961 4.59148C14.9609 4.59148 14.9609 4.59148 14.9609 4.59148C14.9608 4.59148 14.9608 4.59148 14.9607 4.59148C14.9607 4.59148 14.9606 4.59148 14.9606 4.59148C14.9606 4.59148 14.9605 4.59148 14.9605 4.59148C14.9604 4.59148 14.9604 4.59148 14.9604 4.59148C14.9603 4.59148 14.9603 4.59148 14.9602 4.59148C14.9602 4.59148 14.9602 4.59148 14.9601 4.59148C14.9601 4.59148 14.96 4.59148 14.96 4.59148C14.9599 4.59148 14.9599 4.59148 14.9599 4.59148C14.9598 4.59148 14.9598 4.59148 14.9597 4.59148C14.9597 4.59148 14.9597 4.59148 14.9596 4.59148C14.9596 4.59148 14.9595 4.59148 14.9595 4.59148C14.9595 4.59148 14.9594 4.59148 14.9594 4.59148C14.9593 4.59148 14.9593 4.59148 14.9592 4.59148C14.9592 4.59148 14.9592 4.59148 14.9591 4.59148C14.9591 4.59148 14.959 4.59148 14.959 4.59148C14.959 4.59148 14.9589 4.59148 14.9589 4.59148C14.9588 4.59148 14.9588 4.59148 14.9588 4.59148C14.9587 4.59148 14.9587 4.59148 14.9586 4.59148C14.9586 4.59148 14.9585 4.59148 14.9585 4.59148C14.9585 4.59148 14.9584 4.59148 14.9584 4.59148C14.9583 4.59148 14.9583 4.59148 14.9583 4.59148C14.9582 4.59148 14.9582 4.59148 14.9581 4.59148C14.9581 4.59148 14.9581 4.59148 14.958 4.59148C14.958 4.59148 14.9579 4.59148 14.9579 4.59148C14.9578 4.59148 14.9578 4.59148 14.9578 4.59148C14.9577 4.59148 14.9577 4.59148 14.9576 4.59148C14.9576 4.59148 14.9576 4.59148 14.9575 4.59148C14.9575 4.59148 14.9574 4.59148 14.9574 4.59148C14.9574 4.59148 14.9573 4.59148 14.9573 4.59148C14.9572 4.59148 14.9572 4.59148 14.9571 4.59148C14.9571 4.59148 14.9571 4.59148 14.957 4.59148C14.957 4.59148 14.9569 4.59148 14.9569 4.59148C14.9569 4.59148 14.9568 4.59148 14.9568 4.59148C14.9567 4.59148 14.9567 4.59148 14.9566 4.59148C14.9566 4.59148 14.9566 4.59148 14.9565 4.59148C14.9565 4.59148 14.9564 4.59148 14.9564 4.59148C14.9564 4.59148 14.9563 4.59148 14.9563 4.59148C14.9562 4.59148 14.9562 4.59148 14.9561 4.59148C14.9561 4.59148 14.9561 4.59148 14.956 4.59148C14.956 4.59148 14.9559 4.59148 14.9559 4.59148C14.9559 4.59148 14.9558 4.59148 14.9558 4.59148C14.9557 4.59148 14.9557 4.59148 14.9556 4.59148C14.9556 4.59148 14.9556 4.59148 14.9555 4.59148C14.9555 4.59148 14.9554 4.59148 14.9554 4.59148C14.9554 4.59148 14.9553 4.59148 14.9553 4.59148C14.9552 4.59148 14.9552 4.59148 14.9551 4.59148C14.9551 4.59148 14.9551 4.59148 14.955 4.59148C14.955 4.59148 14.9549 4.59148 14.9549 4.59148C14.9549 4.59148 14.9548 4.59148 14.9548 4.59148C14.9547 4.59148 14.9547 4.59148 14.9546 4.59148C14.9546 4.59148 14.9546 4.59148 14.9545 4.59148C14.9545 4.59148 14.9544 4.59148 14.9544 4.59148C14.9544 4.59148 14.9543 4.59148 14.9543 4.59148C14.9542 4.59148 14.9542 4.59148 14.9541 4.59148C14.9541 4.59148 14.9541 4.59148 14.954 4.59148C14.954 4.59148 14.9539 4.59148 14.9539 4.59148C14.9538 4.59148 14.9538 4.59148 14.9538 4.59148C14.9537 4.59148 14.9537 4.59148 14.9536 4.59148C14.9536 4.59148 14.9536 4.59148 14.9535 4.59148C14.9535 4.59148 14.9534 4.59148 14.9534 4.59148C14.9533 4.59148 14.9533 4.59148 14.9533 4.59148C14.9532 4.59148 14.9532 4.59148 14.9531 4.59148C14.9531 4.59148 14.953 4.59148 14.953 4.59148C14.953 4.59148 14.9529 4.59148 14.9529 4.59148C14.9528 4.59148 14.9528 4.59148 14.9528 4.59148C14.9527 4.59148 14.9527 4.59148 14.9526 4.59148C14.9526 4.59148 14.9525 4.59148 14.9525 4.59148C14.9525 4.59148 14.9524 4.59148 14.9524 4.59148C14.9523 4.59148 14.9523 4.59148 14.9522 4.59148C14.9522 4.59148 14.9522 4.59148 14.9521 4.59148C14.9521 4.59148 14.952 4.59148 14.952 4.59148C14.9519 4.59148 14.9519 4.59148 14.9519 4.59148C14.9518 4.59148 14.9518 4.59148 14.9517 4.59148C14.9517 4.59148 14.9517 4.59148 14.9516 4.59148C14.9516 4.59148 14.9515 4.59148 14.9515 4.59148C14.9514 4.59148 14.9514 4.59148 14.9514 4.59148C14.9513 4.59148 14.9513 4.59148 14.9512 4.59148C14.9512 4.59148 14.9511 4.59148 14.9511 4.59148C14.9511 4.59148 14.951 4.59148 14.951 4.59148C14.9509 4.59148 14.9509 4.59148 14.9508 4.59148C14.9508 4.59148 14.9508 4.59148 14.9507 4.59148C14.9507 4.59148 14.9506 4.59148 14.9506 4.59148C14.9505 4.59148 14.9505 4.59148 14.9505 4.59148C14.9504 4.59148 14.9504 4.59148 14.9503 4.59148C14.9503 4.59148 14.9502 4.59148 14.9502 4.59148C14.9502 4.59148 14.9501 4.59148 14.9501 4.59148C14.95 4.59148 14.95 4.59148 14.9499 4.59148C14.9499 4.59148 14.9499 4.59148 14.9498 4.59148C14.9498 4.59148 14.9497 4.59148 14.9497 4.59148C14.9496 4.59148 14.9496 4.59148 14.9496 4.59148C14.9495 4.59148 14.9495 4.59148 14.9494 4.59148C14.9494 4.59148 14.9493 4.59148 14.9493 4.59148C14.9493 4.59148 14.9492 4.59148 14.9492 4.59148C14.9491 4.59148 14.9491 4.59148 14.949 4.59148C14.949 4.59148 14.949 4.59148 14.9489 4.59148C14.9489 4.59148 14.9488 4.59148 14.9488 4.59148C14.9487 4.59148 14.9487 4.59148 14.9487 4.59148C14.9486 4.59148 14.9486 4.59148 14.9485 4.59148C14.9485 4.59148 14.9484 4.59148 14.9484 4.59148C14.9483 4.59148 14.9483 4.59148 14.9483 4.59148C14.9482 4.59148 14.9482 4.59148 14.9481 4.59148C14.9481 4.59148 14.948 4.59148 14.948 4.59148C14.948 4.59148 14.9479 4.59148 14.9479 4.59148C14.9478 4.59148 14.9478 4.59148 14.9477 4.59148C14.9477 4.59148 14.9477 4.59148 14.9476 4.59148C14.9476 4.59148 14.9475 4.59148 14.9475 4.59148C14.9474 4.59148 14.9474 4.59148 14.9473 4.59148C14.9473 4.59148 14.9473 4.59148 14.9472 4.59148C14.9472 4.59148 14.9471 4.59148 14.9471 4.59148C14.947 4.59148 14.947 4.59148 14.947 4.59148C14.9469 4.59148 14.9469 4.59148 14.9468 4.59148C14.9468 4.59148 14.9467 4.59148 14.9467 4.59148C14.9466 4.59148 14.9466 4.59148 14.9466 4.59148C14.9465 4.59148 14.9465 4.59148 14.9464 4.59148C14.9464 4.59148 14.9463 4.59148 14.9463 4.59148C14.9463 4.59148 14.9462 4.59148 14.9462 4.59148C14.9461 4.59148 14.9461 4.59148 14.946 4.59148C14.946 4.59148 14.9459 4.59148 14.9459 4.59148C14.9459 4.59148 14.9458 4.59148 14.9458 4.59148C14.9457 4.59148 14.9457 4.59148 14.9456 4.59148C14.9456 4.59148 14.9455 4.59148 14.9455 4.59148C14.9455 4.59148 14.9454 4.59148 14.9454 4.59148C14.9453 4.59148 14.9453 4.59148 14.9452 4.59148C14.9452 4.59148 14.9451 4.59148 14.9451 4.59148C14.9451 4.59148 14.945 4.59148 14.945 4.59148C14.9449 4.59148 14.9449 4.59148 14.9448 4.59148C14.9448 4.59148 14.9448 4.59148 14.9447 4.59148C14.9447 4.59148 14.9446 4.59148 14.9446 4.59148C14.9445 4.59148 14.9445 4.59148 14.9444 4.59148C14.9444 4.59148 14.9443 4.59148 14.9443 4.59148C14.9443 4.59148 14.9442 4.59148 14.9442 4.59148C14.9441 4.59148 14.9441 4.59148 14.944 4.59148C14.944 4.59148 14.9439 4.59148 14.9439 4.59148C14.9439 4.59148 14.9438 4.59148 14.9438 4.59148C14.9437 4.59148 14.9437 4.59148 14.9436 4.59148C14.9436 4.59148 14.9435 4.59148 14.9435 4.59148C14.9435 4.59148 14.9434 4.59148 14.9434 4.59148C14.9433 4.59148 14.9433 4.59148 14.9432 4.59148C14.9432 4.59148 14.9431 4.59148 14.9431 4.59148C14.9431 4.59148 14.943 4.59148 14.943 4.59148C14.9429 4.59148 14.9429 4.59148 14.9428 4.59148C14.9428 4.59148 14.9427 4.59148 14.9427 4.59148C14.9426 4.59148 14.9426 4.59148 14.9426 4.59148C14.9425 4.59148 14.9425 4.59148 14.9424 4.59148C14.9424 4.59148 14.9423 4.59148 14.9423 4.59148C14.9422 4.59148 14.9422 4.59148 14.9421 4.59148C14.9421 4.59148 14.9421 4.59148 14.942 4.59148C14.942 4.59148 14.9419 4.59148 14.9419 4.59148C14.9418 4.59148 14.9418 4.59148 14.9417 4.59148C14.9417 4.59148 14.9416 4.59148 14.9416 4.59148C14.9416 4.59148 14.9415 4.59148 14.9415 4.59148C14.9414 4.59148 14.9414 4.59148 14.9413 4.59148C14.9413 4.59148 14.9412 4.59148 14.9412 4.59148C14.9411 4.59148 14.9411 4.59148 14.9411 4.59148C14.941 4.59148 14.941 4.59148 14.9409 4.59148C14.9409 4.59148 14.9408 4.59148 14.9408 4.59148C14.9407 4.59148 14.9407 4.59148 14.9406 4.59148C14.9406 4.59148 14.9406 4.59148 14.9405 4.59148C14.9405 4.59148 14.9404 4.59148 14.9404 4.59148C14.9403 4.59148 14.9403 4.59148 14.9402 4.59148C14.9402 4.59148 14.9401 4.59148 14.9401 4.59148C14.94 4.59148 14.94 4.59148 14.94 4.59148C14.9399 4.59148 14.9399 4.59148 14.9398 4.59148C14.9398 4.59148 14.9397 4.59148 14.9397 4.59148C14.9396 4.59148 14.9396 4.59148 14.9395 4.59148C14.9395 4.59148 14.9394 4.59148 14.9394 4.59148C14.9394 4.59148 14.9393 4.59148 14.9393 4.59148C14.9392 4.59148 14.9392 4.59148 14.9391 4.59148C14.9391 4.59148 14.939 4.59148 14.939 4.59148C14.9389 4.59148 14.9389 4.59148 14.9388 4.59148C14.9388 4.59148 14.9387 4.59148 14.9387 4.59148C14.9387 4.59148 14.9386 4.59148 14.9386 4.59148C14.9385 4.59148 14.9385 4.59148 14.9384 4.59148C14.9384 4.59148 14.9383 4.59148 14.9383 4.59148C14.9382 4.59148 14.9382 4.59148 14.9381 4.59148C14.9381 4.59148 14.938 4.59148 14.938 4.59148C14.938 4.59148 14.9379 4.59148 14.9379 4.59148C14.9378 4.59148 14.9378 4.59148 14.9377 4.59148C14.9377 4.59148 14.9376 4.59148 14.9376 4.59148C14.9375 4.59148 14.9375 4.59148 14.9374 4.59148C14.9374 4.59148 14.9373 4.59148 14.9373 4.59148C14.9372 4.59148 14.9372 4.59148 14.9372 4.59148C14.9371 4.59148 14.9371 4.59148 14.937 4.59148C14.937 4.59148 14.9369 4.59148 14.9369 4.59148C14.9368 4.59148 14.9368 4.59148 14.9367 4.59148C14.9367 4.59148 14.9366 4.59148 14.9366 4.59148C14.9365 4.59148 14.9365 4.59148 14.9364 4.59148C14.9364 4.59148 14.9363 4.59148 14.9363 4.59148C14.9363 4.59148 14.9362 4.59148 14.9362 4.59148C14.9361 4.59148 14.9361 4.59148 14.936 4.59148C14.936 4.59148 14.9359 4.59148 14.9359 4.59148C14.9358 4.59148 14.9358 4.59148 14.9357 4.59148C14.9357 4.59148 14.9356 4.59148 14.9356 4.59148C14.9355 4.59148 14.9355 4.59148 14.9354 4.59148C14.9354 4.59148 14.9353 4.59148 14.9353 4.59148C14.9353 4.59148 14.9352 4.59148 14.9352 4.59148C14.9351 4.59148 14.9351 4.59148 14.935 4.59148C14.935 4.59148 14.9349 4.59148 14.9349 4.59148C14.9348 4.59148 14.9348 4.59148 14.9347 4.59148C14.9347 4.59148 14.9346 4.59148 14.9346 4.59148C14.9345 4.59148 14.9345 4.59148 14.9344 4.59148C14.9344 4.59148 14.9343 4.59148 14.9343 4.59148C14.9342 4.59148 14.9342 4.59148 14.9341 4.59148C14.9341 4.59148 14.934 4.59148 14.934 4.59148C14.9339 4.59148 14.9339 4.59148 14.9339 4.59148C14.9338 4.59148 14.9338 4.59148 14.9337 4.59148C14.9337 4.59148 14.9336 4.59148 14.9336 4.59148C14.9335 4.59148 14.9335 4.59148 14.9334 4.59148C14.9334 4.59148 14.9333 4.59148 14.9333 4.59148V8.59148C14.9333 8.59148 14.9334 8.59148 14.9334 8.59148C14.9335 8.59148 14.9335 8.59148 14.9336 8.59148C14.9336 8.59148 14.9337 8.59148 14.9337 8.59148C14.9338 8.59148 14.9338 8.59148 14.9339 8.59148C14.9339 8.59148 14.9339 8.59148 14.934 8.59148C14.934 8.59148 14.9341 8.59148 14.9341 8.59148C14.9342 8.59148 14.9342 8.59148 14.9343 8.59148C14.9343 8.59148 14.9344 8.59148 14.9344 8.59148C14.9345 8.59148 14.9345 8.59148 14.9346 8.59148C14.9346 8.59148 14.9347 8.59148 14.9347 8.59148C14.9348 8.59148 14.9348 8.59148 14.9349 8.59148C14.9349 8.59148 14.935 8.59148 14.935 8.59148C14.9351 8.59148 14.9351 8.59148 14.9352 8.59148C14.9352 8.59148 14.9353 8.59148 14.9353 8.59148C14.9353 8.59148 14.9354 8.59148 14.9354 8.59148C14.9355 8.59148 14.9355 8.59148 14.9356 8.59148C14.9356 8.59148 14.9357 8.59148 14.9357 8.59148C14.9358 8.59148 14.9358 8.59148 14.9359 8.59148C14.9359 8.59148 14.936 8.59148 14.936 8.59148C14.9361 8.59148 14.9361 8.59148 14.9362 8.59148C14.9362 8.59148 14.9363 8.59148 14.9363 8.59148C14.9363 8.59148 14.9364 8.59148 14.9364 8.59148C14.9365 8.59148 14.9365 8.59148 14.9366 8.59148C14.9366 8.59148 14.9367 8.59148 14.9367 8.59148C14.9368 8.59148 14.9368 8.59148 14.9369 8.59148C14.9369 8.59148 14.937 8.59148 14.937 8.59148C14.9371 8.59148 14.9371 8.59148 14.9372 8.59148C14.9372 8.59148 14.9372 8.59148 14.9373 8.59148C14.9373 8.59148 14.9374 8.59148 14.9374 8.59148C14.9375 8.59148 14.9375 8.59148 14.9376 8.59148C14.9376 8.59148 14.9377 8.59148 14.9377 8.59148C14.9378 8.59148 14.9378 8.59148 14.9379 8.59148C14.9379 8.59148 14.938 8.59148 14.938 8.59148C14.938 8.59148 14.9381 8.59148 14.9381 8.59148C14.9382 8.59148 14.9382 8.59148 14.9383 8.59148C14.9383 8.59148 14.9384 8.59148 14.9384 8.59148C14.9385 8.59148 14.9385 8.59148 14.9386 8.59148C14.9386 8.59148 14.9387 8.59148 14.9387 8.59148C14.9387 8.59148 14.9388 8.59148 14.9388 8.59148C14.9389 8.59148 14.9389 8.59148 14.939 8.59148C14.939 8.59148 14.9391 8.59148 14.9391 8.59148C14.9392 8.59148 14.9392 8.59148 14.9393 8.59148C14.9393 8.59148 14.9394 8.59148 14.9394 8.59148C14.9394 8.59148 14.9395 8.59148 14.9395 8.59148C14.9396 8.59148 14.9396 8.59148 14.9397 8.59148C14.9397 8.59148 14.9398 8.59148 14.9398 8.59148C14.9399 8.59148 14.9399 8.59148 14.94 8.59148C14.94 8.59148 14.94 8.59148 14.9401 8.59148C14.9401 8.59148 14.9402 8.59148 14.9402 8.59148C14.9403 8.59148 14.9403 8.59148 14.9404 8.59148C14.9404 8.59148 14.9405 8.59148 14.9405 8.59148C14.9406 8.59148 14.9406 8.59148 14.9406 8.59148C14.9407 8.59148 14.9407 8.59148 14.9408 8.59148C14.9408 8.59148 14.9409 8.59148 14.9409 8.59148C14.941 8.59148 14.941 8.59148 14.9411 8.59148C14.9411 8.59148 14.9411 8.59148 14.9412 8.59148C14.9412 8.59148 14.9413 8.59148 14.9413 8.59148C14.9414 8.59148 14.9414 8.59148 14.9415 8.59148C14.9415 8.59148 14.9416 8.59148 14.9416 8.59148C14.9416 8.59148 14.9417 8.59148 14.9417 8.59148C14.9418 8.59148 14.9418 8.59148 14.9419 8.59148C14.9419 8.59148 14.942 8.59148 14.942 8.59148C14.9421 8.59148 14.9421 8.59148 14.9421 8.59148C14.9422 8.59148 14.9422 8.59148 14.9423 8.59148C14.9423 8.59148 14.9424 8.59148 14.9424 8.59148C14.9425 8.59148 14.9425 8.59148 14.9426 8.59148C14.9426 8.59148 14.9426 8.59148 14.9427 8.59148C14.9427 8.59148 14.9428 8.59148 14.9428 8.59148C14.9429 8.59148 14.9429 8.59148 14.943 8.59148C14.943 8.59148 14.9431 8.59148 14.9431 8.59148C14.9431 8.59148 14.9432 8.59148 14.9432 8.59148C14.9433 8.59148 14.9433 8.59148 14.9434 8.59148C14.9434 8.59148 14.9435 8.59148 14.9435 8.59148C14.9435 8.59148 14.9436 8.59148 14.9436 8.59148C14.9437 8.59148 14.9437 8.59148 14.9438 8.59148C14.9438 8.59148 14.9439 8.59148 14.9439 8.59148C14.9439 8.59148 14.944 8.59148 14.944 8.59148C14.9441 8.59148 14.9441 8.59148 14.9442 8.59148C14.9442 8.59148 14.9443 8.59148 14.9443 8.59148C14.9443 8.59148 14.9444 8.59148 14.9444 8.59148C14.9445 8.59148 14.9445 8.59148 14.9446 8.59148C14.9446 8.59148 14.9447 8.59148 14.9447 8.59148C14.9448 8.59148 14.9448 8.59148 14.9448 8.59148C14.9449 8.59148 14.9449 8.59148 14.945 8.59148C14.945 8.59148 14.9451 8.59148 14.9451 8.59148C14.9451 8.59148 14.9452 8.59148 14.9452 8.59148C14.9453 8.59148 14.9453 8.59148 14.9454 8.59148C14.9454 8.59148 14.9455 8.59148 14.9455 8.59148C14.9455 8.59148 14.9456 8.59148 14.9456 8.59148C14.9457 8.59148 14.9457 8.59148 14.9458 8.59148C14.9458 8.59148 14.9459 8.59148 14.9459 8.59148C14.9459 8.59148 14.946 8.59148 14.946 8.59148C14.9461 8.59148 14.9461 8.59148 14.9462 8.59148C14.9462 8.59148 14.9463 8.59148 14.9463 8.59148C14.9463 8.59148 14.9464 8.59148 14.9464 8.59148C14.9465 8.59148 14.9465 8.59148 14.9466 8.59148C14.9466 8.59148 14.9466 8.59148 14.9467 8.59148C14.9467 8.59148 14.9468 8.59148 14.9468 8.59148C14.9469 8.59148 14.9469 8.59148 14.947 8.59148C14.947 8.59148 14.947 8.59148 14.9471 8.59148C14.9471 8.59148 14.9472 8.59148 14.9472 8.59148C14.9473 8.59148 14.9473 8.59148 14.9473 8.59148C14.9474 8.59148 14.9474 8.59148 14.9475 8.59148C14.9475 8.59148 14.9476 8.59148 14.9476 8.59148C14.9477 8.59148 14.9477 8.59148 14.9477 8.59148C14.9478 8.59148 14.9478 8.59148 14.9479 8.59148C14.9479 8.59148 14.948 8.59148 14.948 8.59148C14.948 8.59148 14.9481 8.59148 14.9481 8.59148C14.9482 8.59148 14.9482 8.59148 14.9483 8.59148C14.9483 8.59148 14.9483 8.59148 14.9484 8.59148C14.9484 8.59148 14.9485 8.59148 14.9485 8.59148C14.9486 8.59148 14.9486 8.59148 14.9487 8.59148C14.9487 8.59148 14.9487 8.59148 14.9488 8.59148C14.9488 8.59148 14.9489 8.59148 14.9489 8.59148C14.949 8.59148 14.949 8.59148 14.949 8.59148C14.9491 8.59148 14.9491 8.59148 14.9492 8.59148C14.9492 8.59148 14.9493 8.59148 14.9493 8.59148C14.9493 8.59148 14.9494 8.59148 14.9494 8.59148C14.9495 8.59148 14.9495 8.59148 14.9496 8.59148C14.9496 8.59148 14.9496 8.59148 14.9497 8.59148C14.9497 8.59148 14.9498 8.59148 14.9498 8.59148C14.9499 8.59148 14.9499 8.59148 14.9499 8.59148C14.95 8.59148 14.95 8.59148 14.9501 8.59148C14.9501 8.59148 14.9502 8.59148 14.9502 8.59148C14.9502 8.59148 14.9503 8.59148 14.9503 8.59148C14.9504 8.59148 14.9504 8.59148 14.9505 8.59148C14.9505 8.59148 14.9505 8.59148 14.9506 8.59148C14.9506 8.59148 14.9507 8.59148 14.9507 8.59148C14.9508 8.59148 14.9508 8.59148 14.9508 8.59148C14.9509 8.59148 14.9509 8.59148 14.951 8.59148C14.951 8.59148 14.9511 8.59148 14.9511 8.59148C14.9511 8.59148 14.9512 8.59148 14.9512 8.59148C14.9513 8.59148 14.9513 8.59148 14.9514 8.59148C14.9514 8.59148 14.9514 8.59148 14.9515 8.59148C14.9515 8.59148 14.9516 8.59148 14.9516 8.59148C14.9517 8.59148 14.9517 8.59148 14.9517 8.59148C14.9518 8.59148 14.9518 8.59148 14.9519 8.59148C14.9519 8.59148 14.9519 8.59148 14.952 8.59148C14.952 8.59148 14.9521 8.59148 14.9521 8.59148C14.9522 8.59148 14.9522 8.59148 14.9522 8.59148C14.9523 8.59148 14.9523 8.59148 14.9524 8.59148C14.9524 8.59148 14.9525 8.59148 14.9525 8.59148C14.9525 8.59148 14.9526 8.59148 14.9526 8.59148C14.9527 8.59148 14.9527 8.59148 14.9528 8.59148C14.9528 8.59148 14.9528 8.59148 14.9529 8.59148C14.9529 8.59148 14.953 8.59148 14.953 8.59148C14.953 8.59148 14.9531 8.59148 14.9531 8.59148C14.9532 8.59148 14.9532 8.59148 14.9533 8.59148C14.9533 8.59148 14.9533 8.59148 14.9534 8.59148C14.9534 8.59148 14.9535 8.59148 14.9535 8.59148C14.9536 8.59148 14.9536 8.59148 14.9536 8.59148C14.9537 8.59148 14.9537 8.59148 14.9538 8.59148C14.9538 8.59148 14.9538 8.59148 14.9539 8.59148C14.9539 8.59148 14.954 8.59148 14.954 8.59148C14.9541 8.59148 14.9541 8.59148 14.9541 8.59148C14.9542 8.59148 14.9542 8.59148 14.9543 8.59148C14.9543 8.59148 14.9544 8.59148 14.9544 8.59148C14.9544 8.59148 14.9545 8.59148 14.9545 8.59148C14.9546 8.59148 14.9546 8.59148 14.9546 8.59148C14.9547 8.59148 14.9547 8.59148 14.9548 8.59148C14.9548 8.59148 14.9549 8.59148 14.9549 8.59148C14.9549 8.59148 14.955 8.59148 14.955 8.59148C14.9551 8.59148 14.9551 8.59148 14.9551 8.59148C14.9552 8.59148 14.9552 8.59148 14.9553 8.59148C14.9553 8.59148 14.9554 8.59148 14.9554 8.59148C14.9554 8.59148 14.9555 8.59148 14.9555 8.59148C14.9556 8.59148 14.9556 8.59148 14.9556 8.59148C14.9557 8.59148 14.9557 8.59148 14.9558 8.59148C14.9558 8.59148 14.9559 8.59148 14.9559 8.59148C14.9559 8.59148 14.956 8.59148 14.956 8.59148C14.9561 8.59148 14.9561 8.59148 14.9561 8.59148C14.9562 8.59148 14.9562 8.59148 14.9563 8.59148C14.9563 8.59148 14.9564 8.59148 14.9564 8.59148C14.9564 8.59148 14.9565 8.59148 14.9565 8.59148C14.9566 8.59148 14.9566 8.59148 14.9566 8.59148C14.9567 8.59148 14.9567 8.59148 14.9568 8.59148C14.9568 8.59148 14.9569 8.59148 14.9569 8.59148C14.9569 8.59148 14.957 8.59148 14.957 8.59148C14.9571 8.59148 14.9571 8.59148 14.9571 8.59148C14.9572 8.59148 14.9572 8.59148 14.9573 8.59148C14.9573 8.59148 14.9574 8.59148 14.9574 8.59148C14.9574 8.59148 14.9575 8.59148 14.9575 8.59148C14.9576 8.59148 14.9576 8.59148 14.9576 8.59148C14.9577 8.59148 14.9577 8.59148 14.9578 8.59148C14.9578 8.59148 14.9578 8.59148 14.9579 8.59148C14.9579 8.59148 14.958 8.59148 14.958 8.59148C14.9581 8.59148 14.9581 8.59148 14.9581 8.59148C14.9582 8.59148 14.9582 8.59148 14.9583 8.59148C14.9583 8.59148 14.9583 8.59148 14.9584 8.59148C14.9584 8.59148 14.9585 8.59148 14.9585 8.59148C14.9585 8.59148 14.9586 8.59148 14.9586 8.59148C14.9587 8.59148 14.9587 8.59148 14.9588 8.59148C14.9588 8.59148 14.9588 8.59148 14.9589 8.59148C14.9589 8.59148 14.959 8.59148 14.959 8.59148C14.959 8.59148 14.9591 8.59148 14.9591 8.59148C14.9592 8.59148 14.9592 8.59148 14.9592 8.59148C14.9593 8.59148 14.9593 8.59148 14.9594 8.59148C14.9594 8.59148 14.9595 8.59148 14.9595 8.59148C14.9595 8.59148 14.9596 8.59148 14.9596 8.59148C14.9597 8.59148 14.9597 8.59148 14.9597 8.59148C14.9598 8.59148 14.9598 8.59148 14.9599 8.59148C14.9599 8.59148 14.9599 8.59148 14.96 8.59148C14.96 8.59148 14.9601 8.59148 14.9601 8.59148C14.9602 8.59148 14.9602 8.59148 14.9602 8.59148C14.9603 8.59148 14.9603 8.59148 14.9604 8.59148C14.9604 8.59148 14.9604 8.59148 14.9605 8.59148C14.9605 8.59148 14.9606 8.59148 14.9606 8.59148C14.9606 8.59148 14.9607 8.59148 14.9607 8.59148C14.9608 8.59148 14.9608 8.59148 14.9609 8.59148C14.9609 8.59148 14.9609 8.59148 14.961 8.59148C14.961 8.59148 14.9611 8.59148 14.9611 8.59148C14.9611 8.59148 14.9612 8.59148 14.9612 8.59148C14.9613 8.59148 14.9613 8.59148 14.9613 8.59148C14.9614 8.59148 14.9614 8.59148 14.9615 8.59148C14.9615 8.59148 14.9615 8.59148 14.9616 8.59148C14.9616 8.59148 14.9617 8.59148 14.9617 8.59148C14.9618 8.59148 14.9618 8.59148 14.9618 8.59148C14.9619 8.59148 14.9619 8.59148 14.962 8.59148C14.962 8.59148 14.962 8.59148 14.9621 8.59148C14.9621 8.59148 14.9622 8.59148 14.9622 8.59148C14.9622 8.59148 14.9623 8.59148 14.9623 8.59148C14.9624 8.59148 14.9624 8.59148 14.9624 8.59148C14.9625 8.59148 14.9625 8.59148 14.9626 8.59148C14.9626 8.59148 14.9626 8.59148 14.9627 8.59148C14.9627 8.59148 14.9628 8.59148 14.9628 8.59148C14.9629 8.59148 14.9629 8.59148 14.9629 8.59148C14.963 8.59148 14.963 8.59148 14.9631 8.59148C14.9631 8.59148 14.9631 8.59148 14.9632 8.59148C14.9632 8.59148 14.9633 8.59148 14.9633 8.59148C14.9633 8.59148 14.9634 8.59148 14.9634 8.59148C14.9635 8.59148 14.9635 8.59148 14.9635 8.59148C14.9636 8.59148 14.9636 8.59148 14.9637 8.59148C14.9637 8.59148 14.9638 8.59148 14.9638 8.59148C14.9638 8.59148 14.9639 8.59148 14.9639 8.59148C14.964 8.59148 14.964 8.59148 14.964 8.59148C14.9641 8.59148 14.9641 8.59148 14.9642 8.59148C14.9642 8.59148 14.9642 8.59148 14.9643 8.59148C14.9643 8.59148 14.9644 8.59148 14.9644 8.59148C14.9644 8.59148 14.9645 8.59148 14.9645 8.59148C14.9646 8.59148 14.9646 8.59148 14.9646 8.59148C14.9647 8.59148 14.9647 8.59148 14.9648 8.59148C14.9648 8.59148 14.9649 8.59148 14.9649 8.59148C14.9649 8.59148 14.965 8.59148 14.965 8.59148C14.9651 8.59148 14.9651 8.59148 14.9651 8.59148C14.9652 8.59148 14.9652 8.59148 14.9653 8.59148C14.9653 8.59148 14.9653 8.59148 14.9654 8.59148C14.9654 8.59148 14.9655 8.59148 14.9655 8.59148C14.9655 8.59148 14.9656 8.59148 14.9656 8.59148C14.9657 8.59148 14.9657 8.59148 14.9657 8.59148C14.9658 8.59148 14.9658 8.59148 14.9659 8.59148C14.9659 8.59148 14.9659 8.59148 14.966 8.59148C14.966 8.59148 14.9661 8.59148 14.9661 8.59148C14.9662 8.59148 14.9662 8.59148 14.9662 8.59148C14.9663 8.59148 14.9663 8.59148 14.9664 8.59148C14.9664 8.59148 14.9664 8.59148 14.9665 8.59148C14.9665 8.59148 14.9666 8.59148 14.9666 8.59148C14.9666 8.59148 14.9667 8.59148 14.9667 8.59148C14.9668 8.59148 14.9668 8.59148 14.9668 8.59148C14.9669 8.59148 14.9669 8.59148 14.967 8.59148C14.967 8.59148 14.967 8.59148 14.9671 8.59148C14.9671 8.59148 14.9672 8.59148 14.9672 8.59148C14.9673 8.59148 14.9673 8.59148 14.9673 8.59148C14.9674 8.59148 14.9674 8.59148 14.9675 8.59148C14.9675 8.59148 14.9675 8.59148 14.9676 8.59148C14.9676 8.59148 14.9677 8.59148 14.9677 8.59148C14.9677 8.59148 14.9678 8.59148 14.9678 8.59148C14.9679 8.59148 14.9679 8.59148 14.9679 8.59148C14.968 8.59148 14.968 8.59148 14.9681 8.59148C14.9681 8.59148 14.9681 8.59148 14.9682 8.59148C14.9682 8.59148 14.9683 8.59148 14.9683 8.59148C14.9684 8.59148 14.9684 8.59148 14.9684 8.59148C14.9685 8.59148 14.9685 8.59148 14.9686 8.59148C14.9686 8.59148 14.9686 8.59148 14.9687 8.59148C14.9687 8.59148 14.9688 8.59148 14.9688 8.59148C14.9688 8.59148 14.9689 8.59148 14.9689 8.59148C14.969 8.59148 14.969 8.59148 14.969 8.59148C14.9691 8.59148 14.9691 8.59148 14.9692 8.59148C14.9692 8.59148 14.9692 8.59148 14.9693 8.59148C14.9693 8.59148 14.9694 8.59148 14.9694 8.59148C14.9695 8.59148 14.9695 8.59148 14.9695 8.59148C14.9696 8.59148 14.9696 8.59148 14.9697 8.59148C14.9697 8.59148 14.9697 8.59148 14.9698 8.59148C14.9698 8.59148 14.9699 8.59148 14.9699 8.59148C14.9699 8.59148 14.97 8.59148 14.97 8.59148C14.9701 8.59148 14.9701 8.59148 14.9701 8.59148C14.9702 8.59148 14.9702 8.59148 14.9703 8.59148C14.9703 8.59148 14.9703 8.59148 14.9704 8.59148C14.9704 8.59148 14.9705 8.59148 14.9705 8.59148C14.9706 8.59148 14.9706 8.59148 14.9706 8.59148C14.9707 8.59148 14.9707 8.59148 14.9708 8.59148C14.9708 8.59148 14.9708 8.59148 14.9709 8.59148C14.9709 8.59148 14.971 8.59148 14.971 8.59148C14.971 8.59148 14.9711 8.59148 14.9711 8.59148C14.9712 8.59148 14.9712 8.59148 14.9712 8.59148C14.9713 8.59148 14.9713 8.59148 14.9714 8.59148C14.9714 8.59148 14.9715 8.59148 14.9715 8.59148C14.9715 8.59148 14.9716 8.59148 14.9716 8.59148C14.9717 8.59148 14.9717 8.59148 14.9717 8.59148C14.9718 8.59148 14.9718 8.59148 14.9719 8.59148C14.9719 8.59148 14.9719 8.59148 14.972 8.59148C14.972 8.59148 14.9721 8.59148 14.9721 8.59148C14.9721 8.59148 14.9722 8.59148 14.9722 8.59148C14.9723 8.59148 14.9723 8.59148 14.9724 8.59148C14.9724 8.59148 14.9724 8.59148 14.9725 8.59148C14.9725 8.59148 14.9726 8.59148 14.9726 8.59148C14.9726 8.59148 14.9727 8.59148 14.9727 8.59148C14.9728 8.59148 14.9728 8.59148 14.9728 8.59148C14.9729 8.59148 14.9729 8.59148 14.973 8.59148C14.973 8.59148 14.973 8.59148 14.9731 8.59148C14.9731 8.59148 14.9732 8.59148 14.9732 8.59148C14.9733 8.59148 14.9733 8.59148 14.9733 8.59148C14.9734 8.59148 14.9734 8.59148 14.9735 8.59148C14.9735 8.59148 14.9735 8.59148 14.9736 8.59148C14.9736 8.59148 14.9737 8.59148 14.9737 8.59148C14.9737 8.59148 14.9738 8.59148 14.9738 8.59148C14.9739 8.59148 14.9739 8.59148 14.974 8.59148C14.974 8.59148 14.974 8.59148 14.9741 8.59148C14.9741 8.59148 14.9742 8.59148 14.9742 8.59148C14.9742 8.59148 14.9743 8.59148 14.9743 8.59148C14.9744 8.59148 14.9744 8.59148 14.9744 8.59148C14.9745 8.59148 14.9745 8.59148 14.9746 8.59148C14.9746 8.59148 14.9747 8.59148 14.9747 8.59148C14.9747 8.59148 14.9748 8.59148 14.9748 8.59148C14.9749 8.59148 14.9749 8.59148 14.9749 8.59148C14.975 8.59148 14.975 8.59148 14.9751 8.59148C14.9751 8.59148 14.9751 8.59148 14.9752 8.59148C14.9752 8.59148 14.9753 8.59148 14.9753 8.59148C14.9754 8.59148 14.9754 8.59148 14.9754 8.59148C14.9755 8.59148 14.9755 8.59148 14.9756 8.59148C14.9756 8.59148 14.9756 8.59148 14.9757 8.59148C14.9757 8.59148 14.9758 8.59148 14.9758 8.59148C14.9758 8.59148 14.9759 8.59148 14.9759 8.59148C14.976 8.59148 14.976 8.59148 14.9761 8.59148C14.9761 8.59148 14.9761 8.59148 14.9762 8.59148C14.9762 8.59148 14.9763 8.59148 14.9763 8.59148C14.9763 8.59148 14.9764 8.59148 14.9764 8.59148C14.9765 8.59148 14.9765 8.59148 14.9766 8.59148C14.9766 8.59148 14.9766 8.59148 14.9767 8.59148C14.9767 8.59148 14.9768 8.59148 14.9768 8.59148C14.9768 8.59148 14.9769 8.59148 14.9769 8.59148C14.977 8.59148 14.977 8.59148 14.9771 8.59148C14.9771 8.59148 14.9771 8.59148 14.9772 8.59148C14.9772 8.59148 14.9773 8.59148 14.9773 8.59148C14.9773 8.59148 14.9774 8.59148 14.9774 8.59148C14.9775 8.59148 14.9775 8.59148 14.9776 8.59148C14.9776 8.59148 14.9776 8.59148 14.9777 8.59148C14.9777 8.59148 14.9778 8.59148 14.9778 8.59148C14.9778 8.59148 14.9779 8.59148 14.9779 8.59148C14.978 8.59148 14.978 8.59148 14.9781 8.59148C14.9781 8.59148 14.9781 8.59148 14.9782 8.59148C14.9782 8.59148 14.9783 8.59148 14.9783 8.59148C14.9783 8.59148 14.9784 8.59148 14.9784 8.59148C14.9785 8.59148 14.9785 8.59148 14.9786 8.59148C14.9786 8.59148 14.9786 8.59148 14.9787 8.59148C14.9787 8.59148 14.9788 8.59148 14.9788 8.59148C14.9788 8.59148 14.9789 8.59148 14.9789 8.59148C14.979 8.59148 14.979 8.59148 14.9791 8.59148C14.9791 8.59148 14.9791 8.59148 14.9792 8.59148C14.9792 8.59148 14.9793 8.59148 14.9793 8.59148C14.9794 8.59148 14.9794 8.59148 14.9794 8.59148C14.9795 8.59148 14.9795 8.59148 14.9796 8.59148C14.9796 8.59148 14.9796 8.59148 14.9797 8.59148C14.9797 8.59148 14.9798 8.59148 14.9798 8.59148C14.9799 8.59148 14.9799 8.59148 14.9799 8.59148C14.98 8.59148 14.98 8.59148 14.9801 8.59148C14.9801 8.59148 14.9802 8.59148 14.9802 8.59148C14.9802 8.59148 14.9803 8.59148 14.9803 8.59148C14.9804 8.59148 14.9804 8.59148 14.9804 8.59148C14.9805 8.59148 14.9805 8.59148 14.9806 8.59148C14.9806 8.59148 14.9807 8.59148 14.9807 8.59148C14.9807 8.59148 14.9808 8.59148 14.9808 8.59148C14.9809 8.59148 14.9809 8.59148 14.981 8.59148C14.981 8.59148 14.981 8.59148 14.9811 8.59148C14.9811 8.59148 14.9812 8.59148 14.9812 8.59148C14.9813 8.59148 14.9813 8.59148 14.9813 8.59148C14.9814 8.59148 14.9814 8.59148 14.9815 8.59148C14.9815 8.59148 14.9815 8.59148 14.9816 8.59148C14.9816 8.59148 14.9817 8.59148 14.9817 8.59148C14.9818 8.59148 14.9818 8.59148 14.9818 8.59148C14.9819 8.59148 14.9819 8.59148 14.982 8.59148C14.982 8.59148 14.9821 8.59148 14.9821 8.59148C14.9821 8.59148 14.9822 8.59148 14.9822 8.59148C14.9823 8.59148 14.9823 8.59148 14.9824 8.59148C14.9824 8.59148 14.9824 8.59148 14.9825 8.59148C14.9825 8.59148 14.9826 8.59148 14.9826 8.59148C14.9827 8.59148 14.9827 8.59148 14.9827 8.59148C14.9828 8.59148 14.9828 8.59148 14.9829 8.59148C14.9829 8.59148 14.983 8.59148 14.983 8.59148C14.983 8.59148 14.9831 8.59148 14.9831 8.59148C14.9832 8.59148 14.9832 8.59148 14.9833 8.59148C14.9833 8.59148 14.9833 8.59148 14.9834 8.59148C14.9834 8.59148 14.9835 8.59148 14.9835 8.59148C14.9836 8.59148 14.9836 8.59148 14.9836 8.59148C14.9837 8.59148 14.9837 8.59148 14.9838 8.59148C14.9838 8.59148 14.9839 8.59148 14.9839 8.59148C14.9839 8.59148 14.984 8.59148 14.984 8.59148C14.9841 8.59148 14.9841 8.59148 14.9842 8.59148C14.9842 8.59148 14.9842 8.59148 14.9843 8.59148C14.9843 8.59148 14.9844 8.59148 14.9844 8.59148C14.9845 8.59148 14.9845 8.59148 14.9845 8.59148C14.9846 8.59148 14.9846 8.59148 14.9847 8.59148C14.9847 8.59148 14.9848 8.59148 14.9848 8.59148C14.9849 8.59148 14.9849 8.59148 14.9849 8.59148C14.985 8.59148 14.985 8.59148 14.9851 8.59148C14.9851 8.59148 14.9852 8.59148 14.9852 8.59148C14.9852 8.59148 14.9853 8.59148 14.9853 8.59148C14.9854 8.59148 14.9854 8.59148 14.9855 8.59148C14.9855 8.59148 14.9855 8.59148 14.9856 8.59148C14.9856 8.59148 14.9857 8.59148 14.9857 8.59148C14.9858 8.59148 14.9858 8.59148 14.9859 8.59148C14.9859 8.59148 14.9859 8.59148 14.986 8.59148C14.986 8.59148 14.9861 8.59148 14.9861 8.59148C14.9862 8.59148 14.9862 8.59148 14.9862 8.59148C14.9863 8.59148 14.9863 8.59148 14.9864 8.59148C14.9864 8.59148 14.9865 8.59148 14.9865 8.59148C14.9866 8.59148 14.9866 8.59148 14.9866 8.59148C14.9867 8.59148 14.9867 8.59148 14.9868 8.59148C14.9868 8.59148 14.9869 8.59148 14.9869 8.59148C14.9869 8.59148 14.987 8.59148 14.987 8.59148C14.9871 8.59148 14.9871 8.59148 14.9872 8.59148C14.9872 8.59148 14.9873 8.59148 14.9873 8.59148C14.9873 8.59148 14.9874 8.59148 14.9874 8.59148C14.9875 8.59148 14.9875 8.59148 14.9876 8.59148C14.9876 8.59148 14.9877 8.59148 14.9877 8.59148C14.9877 8.59148 14.9878 8.59148 14.9878 8.59148C14.9879 8.59148 14.9879 8.59148 14.988 8.59148C14.988 8.59148 14.9881 8.59148 14.9881 8.59148C14.9881 8.59148 14.9882 8.59148 14.9882 8.59148C14.9883 8.59148 14.9883 8.59148 14.9884 8.59148C14.9884 8.59148 14.9885 8.59148 14.9885 8.59148C14.9885 8.59148 14.9886 8.59148 14.9886 8.59148C14.9887 8.59148 14.9887 8.59148 14.9888 8.59148C14.9888 8.59148 14.9889 8.59148 14.9889 8.59148C14.9889 8.59148 14.989 8.59148 14.989 8.59148C14.9891 8.59148 14.9891 8.59148 14.9892 8.59148C14.9892 8.59148 14.9893 8.59148 14.9893 8.59148C14.9893 8.59148 14.9894 8.59148 14.9894 8.59148C14.9895 8.59148 14.9895 8.59148 14.9896 8.59148C14.9896 8.59148 14.9897 8.59148 14.9897 8.59148C14.9897 8.59148 14.9898 8.59148 14.9898 8.59148C14.9899 8.59148 14.9899 8.59148 14.99 8.59148C14.99 8.59148 14.9901 8.59148 14.9901 8.59148C14.9902 8.59148 14.9902 8.59148 14.9902 8.59148C14.9903 8.59148 14.9903 8.59148 14.9904 8.59148C14.9904 8.59148 14.9905 8.59148 14.9905 8.59148C14.9906 8.59148 14.9906 8.59148 14.9906 8.59148C14.9907 8.59148 14.9907 8.59148 14.9908 8.59148C14.9908 8.59148 14.9909 8.59148 14.9909 8.59148C14.991 8.59148 14.991 8.59148 14.9911 8.59148C14.9911 8.59148 14.9911 8.59148 14.9912 8.59148C14.9912 8.59148 14.9913 8.59148 14.9913 8.59148C14.9914 8.59148 14.9914 8.59148 14.9915 8.59148C14.9915 8.59148 14.9916 8.59148 14.9916 8.59148C14.9916 8.59148 14.9917 8.59148 14.9917 8.59148C14.9918 8.59148 14.9918 8.59148 14.9919 8.59148C14.9919 8.59148 14.992 8.59148 14.992 8.59148C14.9921 8.59148 14.9921 8.59148 14.9921 8.59148C14.9922 8.59148 14.9922 8.59148 14.9923 8.59148C14.9923 8.59148 14.9924 8.59148 14.9924 8.59148C14.9925 8.59148 14.9925 8.59148 14.9926 8.59148C14.9926 8.59148 14.9926 8.59148 14.9927 8.59148C14.9927 8.59148 14.9928 8.59148 14.9928 8.59148C14.9929 8.59148 14.9929 8.59148 14.993 8.59148C14.993 8.59148 14.9931 8.59148 14.9931 8.59148C14.9932 8.59148 14.9932 8.59148 14.9932 8.59148C14.9933 8.59148 14.9933 8.59148 14.9934 8.59148C14.9934 8.59148 14.9935 8.59148 14.9935 8.59148C14.9936 8.59148 14.9936 8.59148 14.9937 8.59148C14.9937 8.59148 14.9938 8.59148 14.9938 8.59148C14.9938 8.59148 14.9939 8.59148 14.9939 8.59148C14.994 8.59148 14.994 8.59148 14.9941 8.59148C14.9941 8.59148 14.9942 8.59148 14.9942 8.59148C14.9943 8.59148 14.9943 8.59148 14.9944 8.59148C14.9944 8.59148 14.9945 8.59148 14.9945 8.59148C14.9945 8.59148 14.9946 8.59148 14.9946 8.59148C14.9947 8.59148 14.9947 8.59148 14.9948 8.59148C14.9948 8.59148 14.9949 8.59148 14.9949 8.59148C14.995 8.59148 14.995 8.59148 14.9951 8.59148C14.9951 8.59148 14.9952 8.59148 14.9952 8.59148C14.9952 8.59148 14.9953 8.59148 14.9953 8.59148C14.9954 8.59148 14.9954 8.59148 14.9955 8.59148C14.9955 8.59148 14.9956 8.59148 14.9956 8.59148C14.9957 8.59148 14.9957 8.59148 14.9958 8.59148C14.9958 8.59148 14.9959 8.59148 14.9959 8.59148C14.996 8.59148 14.996 8.59148 14.996 8.59148C14.9961 8.59148 14.9961 8.59148 14.9962 8.59148C14.9962 8.59148 14.9963 8.59148 14.9963 8.59148C14.9964 8.59148 14.9964 8.59148 14.9965 8.59148C14.9965 8.59148 14.9966 8.59148 14.9966 8.59148C14.9967 8.59148 14.9967 8.59148 14.9968 8.59148C14.9968 8.59148 14.9969 8.59148 14.9969 8.59148C14.9969 8.59148 14.997 8.59148 14.997 8.59148C14.9971 8.59148 14.9971 8.59148 14.9972 8.59148C14.9972 8.59148 14.9973 8.59148 14.9973 8.59148C14.9974 8.59148 14.9974 8.59148 14.9975 8.59148C14.9975 8.59148 14.9976 8.59148 14.9976 8.59148C14.9977 8.59148 14.9977 8.59148 14.9978 8.59148C14.9978 8.59148 14.9979 8.59148 14.9979 8.59148C14.998 8.59148 14.998 8.59148 14.998 8.59148C14.9981 8.59148 14.9981 8.59148 14.9982 8.59148C14.9982 8.59148 14.9983 8.59148 14.9983 8.59148C14.9984 8.59148 14.9984 8.59148 14.9985 8.59148C14.9985 8.59148 14.9986 8.59148 14.9986 8.59148C14.9987 8.59148 14.9987 8.59148 14.9988 8.59148C14.9988 8.59148 14.9989 8.59148 14.9989 8.59148C14.999 8.59148 14.999 8.59148 14.9991 8.59148C14.9991 8.59148 14.9992 8.59148 14.9992 8.59148C14.9993 8.59148 14.9993 8.59148 14.9994 8.59148C14.9994 8.59148 14.9994 8.59148 14.9995 8.59148C14.9995 8.59148 14.9996 8.59148 14.9996 8.59148C14.9997 8.59148 14.9997 8.59148 14.9998 8.59148C14.9998 8.59148 14.9999 8.59148 14.9999 8.59148V4.59148ZM14.9333 4.59148H14.8916V8.59148H14.9333V4.59148ZM14.9551 4.59249C14.4277 4.57575 14.1416 4.21356 14.1416 3.82481H10.1416C10.1416 6.43605 12.2055 8.50721 14.8281 8.59047L14.9551 4.59249ZM14.1416 3.82481C14.1416 3.39995 14.4923 3.0498 14.9166 3.0498V-0.950195C12.2909 -0.950195 10.1416 1.183 10.1416 3.82481H14.1416ZM14.9166 3.0498C15.337 3.0498 15.6916 3.40438 15.6916 3.82481H19.6916C19.6916 1.19524 17.5462 -0.950195 14.9166 -0.950195V3.0498ZM15.6916 3.81376C15.6892 4.25919 15.3565 4.58709 14.9416 4.60092L15.0749 8.5987C17.66 8.51253 19.6774 6.40709 19.6916 3.83586L15.6916 3.81376ZM17.0083 6.59981C17.0083 6.59976 17.0083 6.59845 17.0083 6.59699C17.0083 6.59543 17.0083 6.59277 17.0082 6.5895C17.0082 6.58351 17.0081 6.57146 17.0078 6.55634C17.0074 6.5328 17.0058 6.4629 16.9959 6.37427C16.9823 6.25118 16.9177 5.67418 16.4209 5.17776C15.9243 4.68158 15.3476 4.61735 15.2249 4.60376C15.1364 4.59396 15.0666 4.59238 15.0432 4.5919C15.0281 4.5916 15.0161 4.59153 15.0101 4.5915C15.0069 4.59149 15.0042 4.59148 15.0027 4.59148C15.0013 4.59148 15 4.59148 14.9999 4.59148V8.59148C15.0511 8.59148 14.9199 8.59444 14.7846 8.57945C14.6643 8.56613 14.0891 8.50241 13.5936 8.00727C13.0978 7.5119 13.0338 6.93646 13.0204 6.81571C13.0053 6.68014 13.0083 6.54875 13.0083 6.59981H17.0083ZM14.9166 0.291476C12.9704 0.291476 11.3916 1.87024 11.3916 3.81648H15.3916C15.3916 4.07938 15.1795 4.29148 14.9166 4.29148V0.291476ZM11.3916 3.81648C11.3916 5.71764 12.8833 7.26331 14.7775 7.33985L14.939 3.34311C15.1833 3.35298 15.3916 3.56531 15.3916 3.81648H11.3916ZM16.2725 6.75569C16.0523 6.97586 15.8316 7.09319 15.7151 7.14826C15.5864 7.20906 15.4763 7.24407 15.4075 7.26349C15.2724 7.30163 15.1638 7.31638 15.1153 7.32226C15.011 7.3349 14.9331 7.33523 14.9083 7.33523C14.8461 7.33523 14.8061 7.33132 14.7874 7.32925L15.2291 3.35371C15.1355 3.34331 15.0246 3.33523 14.9083 3.33523C14.8564 3.33523 14.7555 3.3366 14.634 3.35132C14.5769 3.35824 14.4612 3.37429 14.3206 3.414C14.264 3.42997 13.8303 3.541 13.4441 3.92727L16.2725 6.75569ZM15.1112 7.33883C17.0065 7.24113 18.431 5.6782 18.4498 3.83688L14.45 3.79607C14.4522 3.58809 14.6267 3.35849 14.9053 3.34413L15.1112 7.33883ZM18.4499 3.81648C18.4499 1.86315 16.8641 0.291476 14.9166 0.291476V4.29148C14.6691 4.29148 14.4499 4.08647 14.4499 3.81648H18.4499Z" fill="#FFFFFF" mask="url(#path-1-inside-1_4433_27790)"/>
<mask id="path-3-inside-2_4433_27790" fill="white">
<path d="M15.0083 12.7329C14.6833 12.7329 14.3583 12.7079 14.0333 12.6495C13.6916 12.5912 13.4666 12.2662 13.5249 11.9246C13.5833 11.5829 13.9083 11.3579 14.2499 11.4162C15.2749 11.5912 16.3583 11.3996 17.0833 10.9162C17.4749 10.6579 17.6833 10.3329 17.6833 10.0079C17.6833 9.68288 17.4666 9.36622 17.0833 9.10788C16.3583 8.62455 15.2583 8.43289 14.2249 8.61622C13.8833 8.68289 13.5583 8.44955 13.4999 8.10789C13.4416 7.76622 13.6666 7.44122 14.0083 7.38289C15.3666 7.14122 16.7749 7.39955 17.7749 8.06622C18.5083 8.55788 18.9333 9.25788 18.9333 10.0079C18.9333 10.7496 18.5166 11.4579 17.7749 11.9579C17.0166 12.4579 16.0333 12.7329 15.0083 12.7329Z"/>
</mask>
<path d="M15.0083 12.7329C14.6833 12.7329 14.3583 12.7079 14.0333 12.6495C13.6916 12.5912 13.4666 12.2662 13.5249 11.9246C13.5833 11.5829 13.9083 11.3579 14.2499 11.4162C15.2749 11.5912 16.3583 11.3996 17.0833 10.9162C17.4749 10.6579 17.6833 10.3329 17.6833 10.0079C17.6833 9.68288 17.4666 9.36622 17.0833 9.10788C16.3583 8.62455 15.2583 8.43289 14.2249 8.61622C13.8833 8.68289 13.5583 8.44955 13.4999 8.10789C13.4416 7.76622 13.6666 7.44122 14.0083 7.38289C15.3666 7.14122 16.7749 7.39955 17.7749 8.06622C18.5083 8.55788 18.9333 9.25788 18.9333 10.0079C18.9333 10.7496 18.5166 11.4579 17.7749 11.9579C17.0166 12.4579 16.0333 12.7329 15.0083 12.7329Z" fill="#FFFFFF"/>
<path d="M14.0333 12.6495L14.3866 10.681L14.3782 10.6795L14.3698 10.6781L14.0333 12.6495ZM14.2499 11.4162L13.9133 13.3877L14.2499 11.4162ZM17.0833 10.9162L15.9821 9.24666L15.9739 9.25213L17.0833 10.9162ZM17.0833 9.10788L18.201 7.44933L18.1927 7.44378L17.0833 9.10788ZM14.2249 8.61622L13.8755 6.64697L13.8587 6.64996L13.8419 6.65324L14.2249 8.61622ZM14.0083 7.38289L14.3449 9.35441L14.3586 9.35197L14.0083 7.38289ZM17.7749 8.06622L18.8887 6.40502L18.8843 6.40212L17.7749 8.06622ZM17.7749 11.9579L18.8758 13.6276L18.8844 13.622L18.8929 13.6162L17.7749 11.9579ZM15.0083 10.7329C14.7861 10.7329 14.5806 10.7158 14.3866 10.681L13.6799 14.6181C14.136 14.6999 14.5804 14.7329 15.0083 14.7329V10.7329ZM14.3698 10.6781C15.1416 10.8098 15.6197 11.5387 15.4964 12.2611L11.5534 11.588C11.3134 12.9937 12.2416 14.3726 13.6967 14.621L14.3698 10.6781ZM15.4964 12.2611C15.3646 13.0329 14.6357 13.511 13.9133 13.3877L14.5865 9.44475C13.1808 9.20474 11.8019 10.1329 11.5534 11.588L15.4964 12.2611ZM13.9133 13.3877C15.3396 13.6312 16.9635 13.3998 18.1927 12.5803L15.9739 9.25213C15.7531 9.39933 15.2103 9.55124 14.5865 9.44475L13.9133 13.3877ZM18.1844 12.5858C18.9019 12.1126 19.6833 11.2452 19.6833 10.0079H15.6833C15.6833 9.42058 16.048 9.2032 15.9821 9.24668L18.1844 12.5858ZM19.6833 10.0079C19.6833 8.73904 18.8556 7.89052 18.201 7.44935L15.9655 10.7664C15.9962 10.7871 15.9404 10.7578 15.8664 10.6475C15.7863 10.5282 15.6833 10.3072 15.6833 10.0079H19.6833ZM18.1927 7.44378C16.9583 6.62087 15.3122 6.39209 13.8755 6.64697L14.5743 10.5855C15.2043 10.4737 15.7582 10.6282 15.9739 10.772L18.1927 7.44378ZM13.8419 6.65324C14.6415 6.49721 15.3475 7.04555 15.4714 7.77129L11.5284 8.44448C11.769 9.85355 13.125 10.8686 14.6079 10.5792L13.8419 6.65324ZM15.4714 7.77129C15.5947 8.4937 15.1166 9.2226 14.3448 9.35436L13.6717 5.41142C12.2166 5.65984 11.2884 7.03874 11.5284 8.44448L15.4714 7.77129ZM14.3586 9.35197C15.2851 9.18713 16.1547 9.38975 16.6655 9.73032L18.8843 6.40212C17.3952 5.40935 15.4481 5.09531 13.6579 5.41381L14.3586 9.35197ZM16.6612 9.72741C16.8139 9.8298 16.8852 9.92091 16.9136 9.96837C16.9391 10.0108 16.9333 10.0208 16.9333 10.0079H20.9333C20.9333 8.44742 20.0449 7.18023 18.8887 6.40503L16.6612 9.72741ZM16.9333 10.0079C16.9333 9.99543 16.9385 10.0085 16.9115 10.0541C16.8823 10.1035 16.8104 10.1961 16.6569 10.2995L18.8929 13.6162C20.0657 12.8256 20.9333 11.5476 20.9333 10.0079H16.9333ZM16.674 10.2882C16.284 10.5453 15.6948 10.7329 15.0083 10.7329V14.7329C16.3717 14.7329 17.7492 14.3705 18.8758 13.6276L16.674 10.2882Z" fill="#FFFFFF" mask="url(#path-3-inside-2_4433_27790)"/>
<path d="M4.9749 6.592C4.96657 6.592 4.95824 6.592 4.95824 6.592C3.45824 6.542 2.28324 5.32532 2.2749 3.82532C2.2749 2.29199 3.5249 1.04199 5.0499 1.04199C6.5749 1.04199 7.8249 2.29199 7.8249 3.81699C7.8249 5.32533 6.6499 6.542 5.1499 6.592L4.9749 5.967L5.03324 6.592C5.01657 6.592 4.99157 6.592 4.9749 6.592ZM5.05824 5.342C5.10824 5.342 5.1499 5.34199 5.1999 5.35032C5.94157 5.31699 6.59157 4.65032 6.59157 3.82532C6.59157 2.98366 5.90824 2.30032 5.06657 2.30032C4.2249 2.30032 3.54157 2.98366 3.54157 3.82532C3.54157 4.64199 4.1749 5.30032 4.98324 5.35032C4.99157 5.34199 5.0249 5.342 5.05824 5.342Z" fill="#FFFFFF"/>
<path d="M4.96675 12.7329C3.94175 12.7329 2.95841 12.4579 2.20008 11.9579C1.46675 11.4662 1.04175 10.7579 1.04175 10.0079C1.04175 9.26622 1.46675 8.55788 2.20008 8.06622C3.20008 7.39955 4.60841 7.14122 5.96675 7.38289C6.30841 7.44122 6.53342 7.76622 6.47508 8.10789C6.41675 8.44955 6.09175 8.68289 5.75008 8.61622C4.71675 8.43289 3.62508 8.62455 2.89175 9.10788C2.50008 9.36622 2.29175 9.68288 2.29175 10.0079C2.29175 10.3329 2.50842 10.6579 2.89175 10.9162C3.61675 11.3996 4.70008 11.5912 5.72508 11.4162C6.06675 11.3579 6.39175 11.5912 6.45008 11.9246C6.50842 12.2662 6.28342 12.5912 5.94175 12.6495C5.61675 12.7079 5.29175 12.7329 4.96675 12.7329Z" fill="#FFFFFF"/>
<path d="M9.99994 12.8171C9.97494 12.8171 9.95827 12.8171 9.93327 12.8171H9.8916C8.3166 12.7671 7.1416 11.5504 7.1416 10.0504C7.1416 8.51706 8.3916 7.27539 9.9166 7.27539C11.4416 7.27539 12.6916 8.52539 12.6916 10.0504C12.6833 11.5587 11.5083 12.7754 10.0083 12.8254C10.0083 12.8171 10.0083 12.8171 9.99994 12.8171ZM9.9166 8.51706C9.07494 8.51706 8.3916 9.2004 8.3916 10.0421C8.3916 10.8671 9.03327 11.5337 9.85827 11.5671C9.8666 11.5587 9.93327 11.5587 10.0083 11.5671C10.8166 11.5254 11.4416 10.8587 11.4499 10.0421C11.4499 9.20873 10.7666 8.51706 9.9166 8.51706Z" fill="#FFFFFF"/>
<path d="M9.99974 18.9666C8.99974 18.9666 7.99974 18.7083 7.22474 18.1833C6.49141 17.6916 6.06641 16.9916 6.06641 16.2416C6.06641 15.4999 6.48307 14.7833 7.22474 14.2916C8.78307 13.2583 11.2247 13.2583 12.7747 14.2916C13.5081 14.7833 13.9331 15.4833 13.9331 16.2333C13.9331 16.9749 13.5164 17.6916 12.7747 18.1833C11.9997 18.6999 10.9997 18.9666 9.99974 18.9666ZM7.91641 15.3416C7.52474 15.5999 7.31641 15.9249 7.31641 16.2499C7.31641 16.5749 7.53307 16.8916 7.91641 17.1499C9.04141 17.9083 10.9497 17.9083 12.0747 17.1499C12.4664 16.8916 12.6747 16.5666 12.6747 16.2416C12.6747 15.9166 12.4581 15.5999 12.0747 15.3416C10.9581 14.5833 9.04974 14.5916 7.91641 15.3416Z" fill="#FFFFFF"/>
</svg>
