<svg width="20" height="20" viewBox="0 0 20 20" fill="none" xmlns="http://www.w3.org/2000/svg">
<mask id="path-1-inside-1_4433_27740" fill="white">
<path d="M15.3917 18.9587H12.0583C10.0417 18.9587 8.93335 17.8503 8.93335 15.8337V4.16699C8.93335 2.15033 10.0417 1.04199 12.0583 1.04199H15.3917C17.4083 1.04199 18.5167 2.15033 18.5167 4.16699V15.8337C18.5167 17.8503 17.4 18.9587 15.3917 18.9587ZM12.0583 2.29199C10.7417 2.29199 10.1833 2.85033 10.1833 4.16699V15.8337C10.1833 17.1503 10.7417 17.7087 12.0583 17.7087H15.3917C16.7083 17.7087 17.2667 17.1503 17.2667 15.8337V4.16699C17.2667 2.85033 16.7083 2.29199 15.3917 2.29199H12.0583Z"/>
</mask>
<path d="M15.3917 18.9587H12.0583C10.0417 18.9587 8.93335 17.8503 8.93335 15.8337V4.16699C8.93335 2.15033 10.0417 1.04199 12.0583 1.04199H15.3917C17.4083 1.04199 18.5167 2.15033 18.5167 4.16699V15.8337C18.5167 17.8503 17.4 18.9587 15.3917 18.9587ZM12.0583 2.29199C10.7417 2.29199 10.1833 2.85033 10.1833 4.16699V15.8337C10.1833 17.1503 10.7417 17.7087 12.0583 17.7087H15.3917C16.7083 17.7087 17.2667 17.1503 17.2667 15.8337V4.16699C17.2667 2.85033 16.7083 2.29199 15.3917 2.29199H12.0583Z" fill="#FFFFFF"/>
<path d="M15.3917 16.9587H12.0583V20.9587H15.3917V16.9587ZM12.0583 16.9587C11.4063 16.9587 11.2005 16.7849 11.1538 16.7382C11.1071 16.6915 10.9333 16.4857 10.9333 15.8337H6.93335C6.93335 17.1983 7.31375 18.555 8.32539 19.5666C9.33702 20.5783 10.6937 20.9587 12.0583 20.9587V16.9587ZM10.9333 15.8337V4.16699H6.93335V15.8337H10.9333ZM10.9333 4.16699C10.9333 3.51497 11.1071 3.30915 11.1538 3.26246C11.2005 3.21576 11.4063 3.04199 12.0583 3.04199V-0.958008C10.6937 -0.958008 9.33702 -0.577608 8.32539 0.434029C7.31375 1.44567 6.93335 2.80235 6.93335 4.16699H10.9333ZM12.0583 3.04199H15.3917V-0.958008H12.0583V3.04199ZM15.3917 3.04199C16.0437 3.04199 16.2495 3.21576 16.2962 3.26246C16.3429 3.30915 16.5167 3.51497 16.5167 4.16699H20.5167C20.5167 2.80235 20.1363 1.44567 19.1246 0.434029C18.113 -0.577608 16.7563 -0.958008 15.3917 -0.958008V3.04199ZM16.5167 4.16699V15.8337H20.5167V4.16699H16.5167ZM16.5167 15.8337C16.5167 16.4817 16.343 16.6884 16.2945 16.7368C16.2453 16.7859 16.0376 16.9587 15.3917 16.9587V20.9587C16.7541 20.9587 18.1089 20.5772 19.1201 19.568C20.132 18.5581 20.5167 17.2023 20.5167 15.8337H16.5167ZM12.0583 0.291992C11.1742 0.291992 10.0632 0.471193 9.21289 1.32153C8.36255 2.17186 8.18335 3.28279 8.18335 4.16699H12.1833C12.1833 4.07186 12.1885 4.00404 12.1942 3.95894C12.1998 3.9139 12.2052 3.89853 12.2031 3.90555C12.2007 3.91346 12.1898 3.94603 12.1626 3.99315C12.1347 4.04163 12.0947 4.09656 12.0413 4.14996C11.9879 4.20335 11.933 4.24336 11.8845 4.27127C11.8374 4.29841 11.8048 4.3093 11.7969 4.31173C11.7899 4.31388 11.8053 4.30849 11.8503 4.3028C11.8954 4.29711 11.9632 4.29199 12.0583 4.29199V0.291992ZM8.18335 4.16699V15.8337H12.1833V4.16699H8.18335ZM8.18335 15.8337C8.18335 16.7179 8.36255 17.8288 9.21289 18.6791C10.0632 19.5295 11.1742 19.7087 12.0583 19.7087V15.7087C11.9632 15.7087 11.8954 15.7035 11.8503 15.6979C11.8053 15.6922 11.7899 15.6868 11.7969 15.6889C11.8048 15.6914 11.8374 15.7022 11.8845 15.7294C11.933 15.7573 11.9879 15.7973 12.0413 15.8507C12.0947 15.9041 12.1347 15.959 12.1626 16.0075C12.1898 16.0546 12.2007 16.0872 12.2031 16.0951C12.2052 16.1021 12.1998 16.0868 12.1942 16.0417C12.1885 15.9966 12.1833 15.9288 12.1833 15.8337H8.18335ZM12.0583 19.7087H15.3917V15.7087H12.0583V19.7087ZM15.3917 19.7087C16.2759 19.7087 17.3868 19.5295 18.2371 18.6791C19.0875 17.8288 19.2667 16.7179 19.2667 15.8337H15.2667C15.2667 15.9288 15.2616 15.9966 15.2559 16.0417C15.2502 16.0868 15.2448 16.1021 15.2469 16.0951C15.2494 16.0872 15.2603 16.0546 15.2874 16.0075C15.3153 15.959 15.3553 15.9041 15.4087 15.8507C15.4621 15.7973 15.517 15.7573 15.5655 15.7294C15.6126 15.7022 15.6452 15.6914 15.6531 15.6889C15.6601 15.6868 15.6448 15.6922 15.5997 15.6979C15.5546 15.7035 15.4868 15.7087 15.3917 15.7087V19.7087ZM19.2667 15.8337V4.16699H15.2667V15.8337H19.2667ZM19.2667 4.16699C19.2667 3.28279 19.0875 2.17186 18.2371 1.32153C17.3868 0.471193 16.2759 0.291992 15.3917 0.291992V4.29199C15.4868 4.29199 15.5546 4.29711 15.5997 4.3028C15.6448 4.30849 15.6601 4.31388 15.6531 4.31173C15.6452 4.3093 15.6126 4.29841 15.5655 4.27127C15.517 4.24336 15.4621 4.20335 15.4087 4.14996C15.3553 4.09656 15.3153 4.04163 15.2874 3.99315C15.2603 3.94603 15.2494 3.91346 15.2469 3.90555C15.2448 3.89853 15.2502 3.9139 15.2559 3.95894C15.2616 4.00404 15.2667 4.07186 15.2667 4.16699H19.2667ZM15.3917 0.291992H12.0583V4.29199H15.3917V0.291992Z" fill="#FFFFFF" mask="url(#path-1-inside-1_4433_27740)"/>
<mask id="path-3-inside-2_4433_27740" fill="white">
<path d="M13.725 5.625H9.55835C9.21668 5.625 8.93335 5.34167 8.93335 5C8.93335 4.65833 9.21668 4.375 9.55835 4.375H13.725C14.0667 4.375 14.35 4.65833 14.35 5C14.35 5.34167 14.0667 5.625 13.725 5.625Z"/>
</mask>
<path d="M13.725 5.625H9.55835C9.21668 5.625 8.93335 5.34167 8.93335 5C8.93335 4.65833 9.21668 4.375 9.55835 4.375H13.725C14.0667 4.375 14.35 4.65833 14.35 5C14.35 5.34167 14.0667 5.625 13.725 5.625Z" fill="#FFFFFF"/>
<path d="M13.725 3.625H9.55835V7.625H13.725V3.625ZM9.55835 3.625C10.3213 3.625 10.9333 4.2371 10.9333 5H6.93335C6.93335 6.44624 8.11211 7.625 9.55835 7.625V3.625ZM10.9333 5C10.9333 5.7629 10.3213 6.375 9.55835 6.375V2.375C8.11211 2.375 6.93335 3.55376 6.93335 5H10.9333ZM9.55835 6.375H13.725V2.375H9.55835V6.375ZM13.725 6.375C12.9621 6.375 12.35 5.7629 12.35 5H16.35C16.35 3.55376 15.1713 2.375 13.725 2.375V6.375ZM12.35 5C12.35 4.2371 12.9621 3.625 13.725 3.625V7.625C15.1713 7.625 16.35 6.44624 16.35 5H12.35Z" fill="#FFFFFF" mask="url(#path-3-inside-2_4433_27740)"/>
<path d="M12.8917 15.625H9.55835C9.21668 15.625 8.93335 15.3417 8.93335 15C8.93335 14.6583 9.21668 14.375 9.55835 14.375H12.8917C13.2334 14.375 13.5167 14.6583 13.5167 15C13.5167 15.3417 13.2334 15.625 12.8917 15.625Z" fill="#FFFFFF"/>
<path d="M13.725 12.2917C13.7166 12.2917 13.7166 12.2917 13.725 12.2917L9.54995 12.25C9.20828 12.25 8.92495 11.9667 8.93328 11.6167C8.93328 11.275 9.21662 11 9.55828 11C9.55828 11 9.55828 11 9.56662 11L13.7333 11.0417C14.075 11.0417 14.3583 11.325 14.3499 11.675C14.3416 12.0167 14.0666 12.2917 13.725 12.2917Z" fill="#FFFFFF"/>
<path d="M12.0583 8.95801H9.55835C9.21668 8.95801 8.93335 8.67467 8.93335 8.33301C8.93335 7.99134 9.21668 7.70801 9.55835 7.70801H12.0583C12.4 7.70801 12.6833 7.99134 12.6833 8.33301C12.6833 8.67467 12.4 8.95801 12.0583 8.95801Z" fill="#FFFFFF"/>
<path d="M4.57506 18.9337C3.81673 18.9337 3.10007 18.467 2.6084 17.6503L1.92507 16.517C1.67507 16.1003 1.4834 15.417 1.4834 14.9337V4.12533C1.4834 2.42533 2.86673 1.04199 4.56673 1.04199C6.26673 1.04199 7.65007 2.42533 7.65007 4.12533V14.9253C7.65007 15.4087 7.4584 16.092 7.2084 16.5087L6.52506 17.642C6.05007 18.467 5.3334 18.9337 4.57506 18.9337ZM4.57506 2.29199C3.56673 2.29199 2.74173 3.11699 2.74173 4.12533V14.9253C2.74173 15.1837 2.86673 15.642 3.00006 15.867L3.6834 17.0003C3.94173 17.4337 4.26673 17.6753 4.57506 17.6753C4.8834 17.6753 5.2084 17.4253 5.46673 17.0003L6.15007 15.867C6.2834 15.642 6.4084 15.1837 6.4084 14.9253V4.12533C6.4084 3.11699 5.5834 2.29199 4.57506 2.29199Z" fill="#FFFFFF"/>
<path d="M7.0334 6.45801H2.1084C1.76673 6.45801 1.4834 6.17467 1.4834 5.83301C1.4834 5.49134 1.76673 5.20801 2.1084 5.20801H7.0334C7.37507 5.20801 7.6584 5.49134 7.6584 5.83301C7.6584 6.17467 7.37507 6.45801 7.0334 6.45801Z" fill="#FFFFFF"/>
</svg>
