<svg width="20" height="20" viewBox="0 0 20 20" fill="none" xmlns="http://www.w3.org/2000/svg">
<mask id="path-1-inside-1_4433_27779" fill="white">
<path d="M10.0083 14.1671C9.29994 14.1671 8.58327 13.9837 8.02494 13.6254L3.00827 10.3504C2.07493 9.74206 1.5166 8.71706 1.5166 7.6004C1.5166 6.48373 2.07493 5.45873 3.00827 4.8504L8.03327 1.58373C9.14994 0.858728 10.8916 0.858728 11.9999 1.59206L16.9916 4.86706C17.9166 5.4754 18.4749 6.5004 18.4749 7.60873C18.4749 8.71706 17.9166 9.74206 16.9916 10.3504L11.9999 13.6254C11.4416 13.9921 10.7249 14.1671 10.0083 14.1671ZM10.0083 2.29206C9.53327 2.29206 9.05827 2.4004 8.7166 2.63373L3.69993 5.90039C3.1166 6.28373 2.77493 6.90039 2.77493 7.6004C2.77493 8.3004 3.10827 8.91706 3.69993 9.30039L8.7166 12.5754C9.40827 13.0254 10.6249 13.0254 11.3166 12.5754L16.3083 9.30039C16.8916 8.91706 17.2249 8.3004 17.2249 7.6004C17.2249 6.90039 16.8916 6.28373 16.3083 5.90039L11.3166 2.6254C10.9666 2.40873 10.4916 2.29206 10.0083 2.29206Z"/>
</mask>
<path d="M10.0083 14.1671C9.29994 14.1671 8.58327 13.9837 8.02494 13.6254L3.00827 10.3504C2.07493 9.74206 1.5166 8.71706 1.5166 7.6004C1.5166 6.48373 2.07493 5.45873 3.00827 4.8504L8.03327 1.58373C9.14994 0.858728 10.8916 0.858728 11.9999 1.59206L16.9916 4.86706C17.9166 5.4754 18.4749 6.5004 18.4749 7.60873C18.4749 8.71706 17.9166 9.74206 16.9916 10.3504L11.9999 13.6254C11.4416 13.9921 10.7249 14.1671 10.0083 14.1671ZM10.0083 2.29206C9.53327 2.29206 9.05827 2.4004 8.7166 2.63373L3.69993 5.90039C3.1166 6.28373 2.77493 6.90039 2.77493 7.6004C2.77493 8.3004 3.10827 8.91706 3.69993 9.30039L8.7166 12.5754C9.40827 13.0254 10.6249 13.0254 11.3166 12.5754L16.3083 9.30039C16.8916 8.91706 17.2249 8.3004 17.2249 7.6004C17.2249 6.90039 16.8916 6.28373 16.3083 5.90039L11.3166 2.6254C10.9666 2.40873 10.4916 2.29206 10.0083 2.29206Z" fill="#292D32"/>
<path d="M8.02494 13.6254L6.93164 15.3001L6.93815 15.3044L6.94469 15.3086L8.02494 13.6254ZM3.00827 10.3504L4.10157 8.67567L4.10035 8.67488L3.00827 10.3504ZM3.00827 4.8504L1.91819 3.17357L1.91619 3.17488L3.00827 4.8504ZM8.03327 1.58373L6.94417 -0.0937309L6.94319 -0.0930953L8.03327 1.58373ZM11.9999 1.59206L10.8963 3.26002L10.9028 3.26428L11.9999 1.59206ZM16.9916 4.86706L18.0906 3.19604L18.0887 3.19485L16.9916 4.86706ZM16.9916 10.3504L18.0887 12.0226L18.0906 12.0214L16.9916 10.3504ZM11.9999 13.6254L10.9028 11.9532L10.9021 11.9537L11.9999 13.6254ZM8.7166 2.63373L9.80795 4.30972L9.82637 4.29773L9.84453 4.28533L8.7166 2.63373ZM3.69993 5.90039L2.60858 4.22438L2.60158 4.22898L3.69993 5.90039ZM3.69993 9.30039L4.79324 7.62566L4.78742 7.62189L3.69993 9.30039ZM8.7166 12.5754L7.6233 14.2501L7.62592 14.2518L8.7166 12.5754ZM11.3166 12.5754L12.4073 14.2518L12.4137 14.2476L11.3166 12.5754ZM16.3083 9.30039L17.4054 10.9726L17.4066 10.9718L16.3083 9.30039ZM16.3083 5.90039L17.4066 4.22898L17.4054 4.22818L16.3083 5.90039ZM11.3166 2.6254L12.4137 0.953179L12.3917 0.93873L12.3693 0.924865L11.3166 2.6254ZM10.0083 12.1671C9.61662 12.1671 9.2896 12.0606 9.10518 11.9422L6.94469 15.3086C7.87694 15.9069 8.98325 16.1671 10.0083 16.1671V12.1671ZM9.11823 11.9507L4.10157 8.67567L1.91497 12.0251L6.93164 15.3001L9.11823 11.9507ZM4.10035 8.67488C3.73109 8.4342 3.5166 8.03826 3.5166 7.6004H-0.483398C-0.483398 9.39587 0.418782 11.0499 1.91619 12.0259L4.10035 8.67488ZM3.5166 7.6004C3.5166 7.16253 3.73109 6.76659 4.10035 6.52591L1.91619 3.17488C0.418782 4.15087 -0.483398 5.80492 -0.483398 7.6004H3.5166ZM4.09834 6.52722L9.12334 3.26055L6.94319 -0.0930953L1.91819 3.17357L4.09834 6.52722ZM9.12236 3.26119C9.29908 3.14645 9.6174 3.04043 10.0168 3.04102C10.4166 3.0416 10.728 3.14861 10.8963 3.26001L13.1035 -0.0758876C12.1636 -0.697823 11.0499 -0.957478 10.0226 -0.958978C8.99497 -0.960478 7.88412 -0.703997 6.94417 -0.0937307L9.12236 3.26119ZM10.9028 3.26428L15.8945 6.53928L18.0887 3.19485L13.0971 -0.0801541L10.9028 3.26428ZM15.8926 6.53808C16.2608 6.78017 16.4749 7.18013 16.4749 7.60873H20.4749C20.4749 5.82066 19.5724 4.17062 18.0906 3.19605L15.8926 6.53808ZM16.4749 7.60873C16.4749 8.03733 16.2608 8.43729 15.8926 8.67938L18.0906 12.0214C19.5724 11.0468 20.4749 9.3968 20.4749 7.60873H16.4749ZM15.8945 8.67818L10.9028 11.9532L13.0971 15.2976L18.0887 12.0226L15.8945 8.67818ZM10.9021 11.9537C10.74 12.0601 10.4282 12.1671 10.0083 12.1671V16.1671C11.0217 16.1671 12.1432 15.924 13.0978 15.2971L10.9021 11.9537ZM10.0083 0.292062C9.28215 0.292062 8.3689 0.44929 7.58868 0.982126L9.84453 4.28533C9.81188 4.30762 9.79029 4.31732 9.78534 4.31945C9.78027 4.32163 9.78659 4.31848 9.80611 4.31351C9.848 4.30284 9.91806 4.29206 10.0083 4.29206V0.292062ZM7.62526 0.957732L2.60859 4.2244L4.79128 7.57639L9.80795 4.30972L7.62526 0.957732ZM2.60158 4.22898C1.46985 4.97269 0.774935 6.20998 0.774935 7.6004H4.77493C4.77493 7.58871 4.77628 7.58416 4.77606 7.58502C4.77585 7.58585 4.77503 7.58834 4.77351 7.59112C4.77203 7.59383 4.7715 7.59385 4.7739 7.59128C4.77634 7.58865 4.78353 7.58151 4.79829 7.57181L2.60158 4.22898ZM0.774935 7.6004C0.774935 8.97727 1.45082 10.2263 2.61245 10.9789L4.78742 7.62189C4.77339 7.6128 4.76816 7.60712 4.76806 7.60702C4.768 7.60696 4.77035 7.60959 4.77304 7.61454C4.77426 7.61678 4.7752 7.61888 4.77588 7.62062C4.77656 7.62236 4.77678 7.62326 4.77673 7.62309C4.77669 7.62291 4.77626 7.62118 4.77584 7.61768C4.77541 7.61417 4.77493 7.60847 4.77493 7.6004H0.774935ZM2.60664 10.9751L7.6233 14.2501L9.8099 10.9007L4.79323 7.62567L2.60664 10.9751ZM7.62592 14.2518C8.38405 14.7451 9.27226 14.9129 10.0166 14.9129C10.7609 14.9129 11.6491 14.7451 12.4073 14.2518L10.2259 10.899C10.2718 10.8691 10.2782 10.8762 10.2249 10.8897C10.175 10.9023 10.1022 10.9129 10.0166 10.9129C9.931 10.9129 9.8582 10.9023 9.80834 10.8897C9.75499 10.8762 9.7614 10.8691 9.80729 10.899L7.62592 14.2518ZM12.4137 14.2476L17.4054 10.9726L15.2111 7.62818L10.2195 10.9032L12.4137 14.2476ZM17.4066 10.9718C18.5525 10.2188 19.2249 8.97407 19.2249 7.6004H15.2249C15.2249 7.61617 15.2231 7.62366 15.2229 7.62455C15.2227 7.6254 15.2232 7.62314 15.2252 7.61943C15.2272 7.61574 15.2288 7.61399 15.2283 7.61454C15.2278 7.61512 15.2227 7.62056 15.2099 7.62898L17.4066 10.9718ZM19.2249 7.6004C19.2249 6.22672 18.5525 4.98198 17.4066 4.22898L15.2099 7.57181C15.2227 7.58023 15.2278 7.58567 15.2283 7.58625C15.2288 7.5868 15.2272 7.58505 15.2252 7.58136C15.2232 7.57765 15.2227 7.57539 15.2229 7.57624C15.2231 7.57713 15.2249 7.58462 15.2249 7.6004H19.2249ZM17.4054 4.22818L12.4137 0.953179L10.2195 4.29761L15.2111 7.57261L17.4054 4.22818ZM12.3693 0.924865C11.6361 0.471001 10.776 0.292062 10.0083 0.292062V4.29206C10.0925 4.29206 10.1673 4.30261 10.2231 4.31669C10.2818 4.33149 10.2913 4.34291 10.2639 4.32593L12.3693 0.924865Z" fill="#1D2433" mask="url(#path-1-inside-1_4433_27779)"/>
<mask id="path-3-inside-2_4433_27779" fill="white">
<path d="M10.0001 18.9587C9.6334 18.9587 9.2584 18.9087 8.9584 18.8087L6.30007 17.9254C5.04174 17.5087 4.05007 16.1337 4.0584 14.8087L4.06674 10.9004C4.06674 10.5587 4.35007 10.2754 4.69174 10.2754C5.0334 10.2754 5.31674 10.5587 5.31674 10.9004L5.3084 14.8087C5.3084 15.5921 5.9584 16.4921 6.70007 16.7421L9.3584 17.6254C9.69173 17.7337 10.3084 17.7337 10.6417 17.6254L13.3001 16.7421C14.0417 16.4921 14.6917 15.5921 14.6917 14.8171V10.9504C14.6917 10.6087 14.9751 10.3254 15.3167 10.3254C15.6584 10.3254 15.9417 10.6087 15.9417 10.9504V14.8171C15.9417 16.1421 14.9584 17.5087 13.7001 17.9337L11.0417 18.8171C10.7417 18.9087 10.3667 18.9587 10.0001 18.9587Z"/>
</mask>
<path d="M10.0001 18.9587C9.6334 18.9587 9.2584 18.9087 8.9584 18.8087L6.30007 17.9254C5.04174 17.5087 4.05007 16.1337 4.0584 14.8087L4.06674 10.9004C4.06674 10.5587 4.35007 10.2754 4.69174 10.2754C5.0334 10.2754 5.31674 10.5587 5.31674 10.9004L5.3084 14.8087C5.3084 15.5921 5.9584 16.4921 6.70007 16.7421L9.3584 17.6254C9.69173 17.7337 10.3084 17.7337 10.6417 17.6254L13.3001 16.7421C14.0417 16.4921 14.6917 15.5921 14.6917 14.8171V10.9504C14.6917 10.6087 14.9751 10.3254 15.3167 10.3254C15.6584 10.3254 15.9417 10.6087 15.9417 10.9504V14.8171C15.9417 16.1421 14.9584 17.5087 13.7001 17.9337L11.0417 18.8171C10.7417 18.9087 10.3667 18.9587 10.0001 18.9587Z" fill="#292D32"/>
<path d="M8.9584 18.8087L9.59086 16.9114L9.58907 16.9108L8.9584 18.8087ZM6.30007 17.9254L6.93074 16.0274L6.92875 16.0268L6.30007 17.9254ZM4.0584 14.8087L6.05838 14.8213L6.0584 14.813L4.0584 14.8087ZM4.06674 10.9004L6.06674 10.9047V10.9004H4.06674ZM5.31674 10.9004L7.31674 10.9047V10.9004H5.31674ZM5.3084 14.8087L3.3084 14.8045V14.8087H5.3084ZM6.70007 16.7421L6.06122 18.6373L6.0694 18.64L6.70007 16.7421ZM9.3584 17.6254L8.72772 19.5234L8.74023 19.5275L9.3584 17.6254ZM10.6417 17.6254L11.2599 19.5275L11.2724 19.5234L10.6417 17.6254ZM13.3001 16.7421L13.9307 18.64L13.9389 18.6373L13.3001 16.7421ZM13.7001 17.9337L14.3307 19.8317L14.34 19.8286L13.7001 17.9337ZM11.0417 18.8171L11.6262 20.7298L11.6494 20.7227L11.6724 20.715L11.0417 18.8171ZM10.0001 16.9587C9.78911 16.9587 9.63743 16.9269 9.59086 16.9114L8.32595 20.7061C8.87938 20.8906 9.47769 20.9587 10.0001 20.9587V16.9587ZM9.58907 16.9108L6.93074 16.0274L5.6694 19.8234L8.32773 20.7067L9.58907 16.9108ZM6.92875 16.0268C6.48856 15.881 6.05551 15.2742 6.05836 14.8213L2.05844 14.7961C2.04462 16.9932 3.59491 19.1364 5.67139 19.824L6.92875 16.0268ZM6.0584 14.813L6.06673 10.9047L2.06674 10.8961L2.05841 14.8045L6.0584 14.813ZM6.06674 10.9004C6.06674 11.6633 5.45464 12.2754 4.69174 12.2754V8.27539C3.2455 8.27539 2.06674 9.45415 2.06674 10.9004H6.06674ZM4.69174 12.2754C3.92883 12.2754 3.31674 11.6633 3.31674 10.9004H7.31674C7.31674 9.45415 6.13797 8.27539 4.69174 8.27539V12.2754ZM3.31674 10.8961L3.30841 14.8045L7.3084 14.813L7.31673 10.9047L3.31674 10.8961ZM3.3084 14.8087C3.3084 15.7208 3.66919 16.5419 4.10349 17.1446C4.53793 17.7475 5.20116 18.3474 6.06123 18.6373L7.33891 14.8468C7.37586 14.8593 7.39928 14.8713 7.40996 14.8774C7.42072 14.8834 7.42242 14.8856 7.41671 14.881C7.41112 14.8765 7.40107 14.8678 7.38819 14.8541C7.37536 14.8406 7.36183 14.8243 7.34873 14.8062C7.33562 14.788 7.32461 14.7701 7.31592 14.7539C7.30719 14.7376 7.30228 14.7257 7.30002 14.7196C7.29772 14.7133 7.29939 14.7162 7.30187 14.7292C7.30434 14.742 7.3084 14.7689 7.3084 14.8087H3.3084ZM6.0694 18.64L8.72773 19.5234L9.98907 15.7274L7.33074 14.8441L6.0694 18.64ZM8.74023 19.5275C9.18548 19.6722 9.65596 19.7066 10.0001 19.7066C10.3442 19.7066 10.8147 19.6722 11.2599 19.5275L10.0236 15.7233C10.0455 15.7162 10.063 15.7113 10.0753 15.7081C10.0877 15.7049 10.0967 15.703 10.1019 15.7019C10.1116 15.6999 10.1122 15.7002 10.1029 15.7013C10.094 15.7024 10.0799 15.7038 10.0611 15.7049C10.0425 15.706 10.0218 15.7066 10.0001 15.7066C9.97836 15.7066 9.95768 15.706 9.93906 15.7049C9.92027 15.7038 9.90615 15.7024 9.89727 15.7013C9.88795 15.7002 9.88851 15.6999 9.89823 15.7019C9.90341 15.703 9.91241 15.7049 9.92484 15.7081C9.93716 15.7113 9.95467 15.7162 9.97657 15.7233L8.74023 19.5275ZM11.2724 19.5234L13.9307 18.64L12.6694 14.8441L10.0111 15.7274L11.2724 19.5234ZM13.9389 18.6373C14.7986 18.3475 15.4612 17.7482 15.895 17.1479C16.328 16.5488 16.6917 15.7289 16.6917 14.8171H12.6917C12.6917 14.7747 12.6961 14.7459 12.6988 14.7318C12.7016 14.7176 12.7036 14.7137 12.7014 14.7195C12.6994 14.7251 12.6946 14.7367 12.6859 14.7528C12.6773 14.7689 12.6662 14.7867 12.653 14.8049C12.6399 14.8232 12.6262 14.8395 12.6132 14.8532C12.6002 14.867 12.59 14.8759 12.5842 14.8805C12.5783 14.8852 12.5798 14.8832 12.5904 14.8773C12.6009 14.8713 12.6243 14.8593 12.6612 14.8468L13.9389 18.6373ZM16.6917 14.8171V10.9504H12.6917V14.8171H16.6917ZM16.6917 10.9504C16.6917 11.7133 16.0796 12.3254 15.3167 12.3254V8.32539C13.8705 8.32539 12.6917 9.50415 12.6917 10.9504H16.6917ZM15.3167 12.3254C14.5538 12.3254 13.9417 11.7133 13.9417 10.9504H17.9417C17.9417 9.50415 16.763 8.32539 15.3167 8.32539V12.3254ZM13.9417 10.9504V14.8171H17.9417V10.9504H13.9417ZM13.9417 14.8171C13.9417 15.2807 13.5088 15.8873 13.0601 16.0389L14.34 19.8286C16.408 19.1301 17.9417 17.0034 17.9417 14.8171H13.9417ZM13.0694 16.0358L10.4111 16.9191L11.6724 20.715L14.3307 19.8317L13.0694 16.0358ZM10.4573 16.9044C10.3806 16.9278 10.2076 16.9587 10.0001 16.9587V20.9587C10.5259 20.9587 11.1028 20.8897 11.6262 20.7298L10.4573 16.9044Z" fill="#1D2433" mask="url(#path-3-inside-2_4433_27779)"/>
<path d="M17.8333 13.125C17.4916 13.125 17.2083 12.8417 17.2083 12.5V7.5C17.2083 7.15833 17.4916 6.875 17.8333 6.875C18.1749 6.875 18.4583 7.15833 18.4583 7.5V12.5C18.4583 12.8417 18.1749 13.125 17.8333 13.125Z" fill="#292D32"/>
</svg>
