<svg width="20" height="20" viewBox="0 0 20 20" fill="none" xmlns="http://www.w3.org/2000/svg">
<mask id="path-1-inside-1_4433_27815" fill="white">
<path d="M10 13.125C8.275 13.125 6.875 11.725 6.875 10C6.875 8.275 8.275 6.875 10 6.875C11.725 6.875 13.125 8.275 13.125 10C13.125 11.725 11.725 13.125 10 13.125ZM10 8.125C8.96667 8.125 8.125 8.96667 8.125 10C8.125 11.0333 8.96667 11.875 10 11.875C11.0333 11.875 11.875 11.0333 11.875 10C11.875 8.96667 11.0333 8.125 10 8.125Z"/>
</mask>
<path d="M10 13.125C8.275 13.125 6.875 11.725 6.875 10C6.875 8.275 8.275 6.875 10 6.875C11.725 6.875 13.125 8.275 13.125 10C13.125 11.725 11.725 13.125 10 13.125ZM10 8.125C8.96667 8.125 8.125 8.96667 8.125 10C8.125 11.0333 8.96667 11.875 10 11.875C11.0333 11.875 11.875 11.0333 11.875 10C11.875 8.96667 11.0333 8.125 10 8.125Z" fill="#292D32"/>
<path d="M10 11.125C9.37957 11.125 8.875 10.6204 8.875 10H4.875C4.875 12.8296 7.17043 15.125 10 15.125V11.125ZM8.875 10C8.875 9.37957 9.37957 8.875 10 8.875V4.875C7.17043 4.875 4.875 7.17043 4.875 10H8.875ZM10 8.875C10.6204 8.875 11.125 9.37957 11.125 10H15.125C15.125 7.17043 12.8296 4.875 10 4.875V8.875ZM11.125 10C11.125 10.6204 10.6204 11.125 10 11.125V15.125C12.8296 15.125 15.125 12.8296 15.125 10H11.125ZM10 6.125C7.8621 6.125 6.125 7.8621 6.125 10H10.125C10.125 10.0374 10.1077 10.0708 10.0892 10.0892C10.0708 10.1077 10.0374 10.125 10 10.125V6.125ZM6.125 10C6.125 12.1379 7.8621 13.875 10 13.875V9.875C10.0374 9.875 10.0708 9.89233 10.0892 9.91079C10.1077 9.92925 10.125 9.96263 10.125 10H6.125ZM10 13.875C12.1379 13.875 13.875 12.1379 13.875 10H9.875C9.875 9.96263 9.89233 9.92925 9.91079 9.91079C9.92925 9.89233 9.96263 9.875 10 9.875V13.875ZM13.875 10C13.875 7.8621 12.1379 6.125 10 6.125V10.125C9.96263 10.125 9.92925 10.1077 9.91079 10.0892C9.89233 10.0708 9.875 10.0374 9.875 10H13.875Z" fill="#1D2433" mask="url(#path-1-inside-1_4433_27815)"/>
<path d="M11.7973 3.01997C11.7976 3.01949 11.7978 3.019 11.7981 3.01851L11.7973 3.01997Z" fill="#292D32" stroke="#1D2433" stroke-width="2"/>
</svg>
