<svg width="24" height="24" viewBox="0 0 24 24" fill="none" xmlns="http://www.w3.org/2000/svg">
<path d="M8.22214 8.7627L10.6097 20.1111C10.6365 20.2329 10.6321 20.3594 10.597 20.479C10.5619 20.5986 10.4971 20.7074 10.4088 20.7953L9.5405 21.6773C9.45646 21.7632 9.35304 21.8276 9.23894 21.8651C9.12483 21.9026 9.00338 21.9122 8.88479 21.893C8.76621 21.8739 8.65397 21.8265 8.55752 21.7549C8.46106 21.6833 8.38322 21.5896 8.33053 21.4816L6.09658 16.8741" stroke="#0A0A0A" stroke-width="2" stroke-linecap="round" stroke-linejoin="round"/>
<path d="M6.09685 16.8735C5.1236 17.0782 4.10886 16.888 3.27588 16.3446C2.4429 15.8012 1.8599 14.9491 1.65514 13.9759C1.45038 13.0026 1.64063 11.9879 2.18403 11.1549C2.72744 10.3219 3.5795 9.73891 4.55275 9.53415L8.22241 8.7621C8.22241 8.7621 13.2223 7.71018 17.1823 2.67134C17.2706 2.56036 17.3885 2.4767 17.5225 2.43006C17.6564 2.38342 17.8008 2.37571 17.939 2.40782C18.0771 2.43994 18.2033 2.51056 18.3029 2.6115C18.4026 2.71245 18.4715 2.83957 18.5018 2.97812L21.5051 17.2531C21.5332 17.3921 21.5213 17.5363 21.4708 17.6688C21.4203 17.8013 21.3332 17.9168 21.2198 18.0019C21.1063 18.0869 20.971 18.138 20.8296 18.1493C20.6882 18.1606 20.5466 18.1316 20.421 18.0656C14.7664 15.0495 9.76652 16.1014 9.76652 16.1014L6.09685 16.8735Z" stroke="#0A0A0A" stroke-width="2" stroke-linecap="round" stroke-linejoin="round"/>
</svg>
