<svg xmlns="http://www.w3.org/2000/svg" viewBox="0 0 235.92 218.25"><defs><style>.cls-1,.cls-4{fill:#e2b68c;}.cls-2,.cls-3{fill:#8f002c;}.cls-3{font-size:16.81px;font-family:Consolas-Bold, Consolas;font-weight:700;}.cls-4{fill-rule:evenodd;}</style></defs><g id="Layer_2" data-name="Layer 2"><g id="Layer_1-2" data-name="Layer 1"><path class="cls-1" d="M210.85,23.15s-11.23-3.26-43.24-11.44C133.74,3.09,118.1,0,118.1,0S102.51,3.09,68.6,11.71c-32,8.18-43.2,11.44-43.2,11.44s15.63,23,9.25,85.44C29.36,160.07,71.24,176,118.1,203.72,165,176,206.89,160.07,201.6,108.59,195.17,46.13,210.85,23.15,210.85,23.15Zm-17.52,86.26c4,39.78-23.7,55.49-62.15,77.3q-6.41,3.58-13.08,7.44-6.66-3.85-13.08-7.44c-38.4-21.81-66.19-37.52-62.09-77.3,4.36-42.78-1.37-68.28-6-80.9,6.78-1.83,17.61-4.7,33.78-8.84C97.85,12.75,113.3,9.4,118.1,8.4c4.85,1,20.26,4.35,47.44,11.27,16.11,4.14,27,7,33.73,8.84C194.69,41.13,188.92,66.63,193.33,109.41Z"/><path class="cls-2" d="M188,74.05a262.59,262.59,0,0,0,1.4,34.81C193.24,147,167,162.07,130.53,183c-4.06,2.29-8.18,4.69-12.4,7.14-4.23-2.45-8.35-4.85-12.41-7.14-36.38-20.89-62.7-36-58.83-74.1,0-.44.08-.89.12-1.32a266.67,266.67,0,0,0,1.3-31.24c-.46-22-4-36.54-7.1-45,6.43-1.75,16.71-4.51,32-8.47C98.92,16.17,113.58,13,118.13,12c4.58,1,19.2,4.18,44.94,10.82,15.27,4,25.58,6.72,32,8.47a101.8,101.8,0,0,0-3.18,10.94A164,164,0,0,0,188,74.05Z"/><path class="cls-1" d="M118.13,191.28l-.51-.3c-4.22-2.45-8.34-4.85-12.4-7.14-36.77-21.12-63.28-36.33-59.34-75.08l.12-1.31a269.9,269.9,0,0,0,1.3-31.13c-.47-22.12-4.09-36.52-7-44.7l-.37-1,1.06-.28c6.38-1.73,16.63-4.49,32-8.47,23.65-6.11,38.31-9.41,44.94-10.83l.22-.05.21.05c5.11,1.08,19.74,4.32,45,10.83,15.78,4.09,26.11,6.86,32,8.47l1.06.28-.37,1a102.65,102.65,0,0,0-3.16,10.83A164.19,164.19,0,0,0,189,74.08h0a263,263,0,0,0,1.4,34.68c3.9,38.78-22.64,54-59.38,75.08-4.06,2.29-8.17,4.69-12.39,7.14ZM42.53,32c2.93,8.48,6.34,22.81,6.8,44.31A269.33,269.33,0,0,1,48,107.64L47.9,109C44.1,146.4,70.12,161.34,106.14,182c4,2.25,7.94,4.54,12,6.9q6.06-3.54,11.9-6.86c36.07-20.68,62.13-35.63,58.36-73.11A266.83,266.83,0,0,1,187,74h0a166.62,166.62,0,0,1,3.89-32,103,103,0,0,1,2.86-10c-6-1.64-16-4.32-30.91-8.18C138,17.38,123.42,14.15,118.13,13c-6.72,1.44-21.28,4.73-44.65,10.76C58.91,27.56,49,30.23,42.53,32Z"/><path class="cls-1" d="M129.67,109.63a56.2,56.2,0,0,1,12.54-2.8c.38,14.13,0,29,.16,43.38-9.18.77-16.78,4-23.09,7.09V114.58c1-1.18,2.76-1.63,4.12-2.47"/><path class="cls-1" d="M129.67,109.63a56.2,56.2,0,0,1,12.54-2.8c.38,14.13,0,29,.16,43.38-9.18.77-16.78,4-23.09,7.09V114.58c1-1.18,2.76-1.63,4.12-2.47"/><path class="cls-1" d="M129.67,109.63a56.2,56.2,0,0,1,12.54-2.8c.38,14.13,0,29,.16,43.38-9.18.77-16.78,4-23.09,7.09V114.58c1-1.18,2.76-1.63,4.12-2.47"/><path class="cls-2" d="M151.35,156.51c0-.4,0-.79,0-1.19,0-4,0-8,0-12.1,0-8,0-16.34,0-24.19,0-.17,0-.36,0-.55.06-1,.16-2.45-1-3.1a2.8,2.8,0,0,0-1.45-.34q-.31,0-.63,0h-.46l-.24,0v-3.28a1.34,1.34,0,0,0-.45-1,1.33,1.33,0,0,0-1-.35,10.13,10.13,0,0,1-2.06,0,1.22,1.22,0,0,0-.33,0c0-1.23-.05-2.44-.08-3.65a1.33,1.33,0,0,0-.48-1,1.38,1.38,0,0,0-1.07-.31,58.13,58.13,0,0,0-12.79,2.86,32,32,0,0,0-6.43,2.54.41.41,0,0,0-.11.07,14.55,14.55,0,0,1-1.37.7,11.12,11.12,0,0,0-2.54,1.51.78.78,0,0,0-.18-.11c-6.52-3.49-22.53-7.1-23.69-7.1a1.41,1.41,0,0,0-1.19.63,1.39,1.39,0,0,0-.22.74v3.1h-.06c-.32,0-.8,0-1.28,0h-1.1a1.37,1.37,0,0,0-1.35,1.37V115l-.36,0a12.24,12.24,0,0,0-2.2.24,1.36,1.36,0,0,0-1.07,1.34c0,6.45,0,13.17,0,19.67,0,7.15,0,14.55,0,21.56,0,.17,0,.36,0,.55-.06.93-.15,2.3.86,3A3,3,0,0,0,89,162a11,11,0,0,0,1.57-.16l.66-.09c2.49-.24,5-.36,7.57-.36a63.82,63.82,0,0,1,15.06,1.65c.4.1.82.25,1.27.41a9.41,9.41,0,0,0,2.21.61,9.24,9.24,0,0,0,1.05.06,11.87,11.87,0,0,0,3.76-.71c.43-.14.84-.26,1.27-.37a62.66,62.66,0,0,1,14.92-1.66c2.52,0,5.06.13,7.55.37l.57.07a16.73,16.73,0,0,0,1.78.13,6.07,6.07,0,0,0,1.82-.25,1.4,1.4,0,0,0,.87-.83A11.12,11.12,0,0,0,151.35,156.51Zm-21.68-46.88a56.2,56.2,0,0,1,12.54-2.8c.38,14.13,0,29,.16,43.38-9.18.77-16.78,4-23.09,7.09V114.58c1-1.18,2.76-1.63,4.12-2.47"/><path class="cls-1" d="M94.87,107.32c-.12-.27,16.57,3.44,23.09,6.93v42.89c-.31.48-.81-.25-1-.33a61.24,61.24,0,0,0-22.1-6.6Z"/><path class="cls-1" d="M91.07,111.78c.77,0,1.85,0,2.43,0,0,.85-.08,27.28,0,39.59,8.7.91,15.81,2.9,22.43,6.44,1,.53,2,1.31,2.64,1.32,1,0,4.49-2.14,5.61-2.64a51,51,0,0,1,19.46-4.95c.11-13.25-.22-26.77.17-39.75a11.85,11.85,0,0,0,2.31,0v42.88a62.66,62.66,0,0,0-21.45,3c-2,.62-4.15,2.09-5.93,2.15a8.86,8.86,0,0,1-3.14-1c-7.09-2.81-14.54-4.32-24.58-4.13Z"/><path class="cls-1" d="M150,155.32c0,1.74.27,3.51-.33,5.12a9.24,9.24,0,0,1-3.63,0,69.85,69.85,0,0,0-22.93,1.32c-1.83.45-3.27,1.24-5.6,1a31.62,31.62,0,0,1-3.3-1,71.48,71.48,0,0,0-23.1-1.32c-1.06.1-2.66.56-3.29-.17-.61-.3-.33-1.64-.33-2.47-.07-13.37,0-27.66,0-41.24a7.78,7.78,0,0,1,2.31-.16V156a59.23,59.23,0,0,1,25.73,4.29,14.77,14.77,0,0,0,3.13,1.16,14.32,14.32,0,0,0,3.14-1.16A59.78,59.78,0,0,1,147.32,156c.39-12.92.06-26.37.17-39.56.51.12,1.64-.19,2.14.14s.33,1.65.33,2.47C150,130.79,150,143.31,150,155.32Z"/><path class="cls-1" d="M94.87,107.32c-.12-.27,16.57,3.44,23.09,6.93v42.89c-.31.48-.81-.25-1-.33a61.24,61.24,0,0,0-22.1-6.6Z"/><path class="cls-1" d="M91.07,111.78c.77,0,1.85,0,2.43,0,0,.85-.08,27.28,0,39.59,8.7.91,15.81,2.9,22.43,6.44,1,.53,2,1.31,2.64,1.32,1,0,4.49-2.14,5.61-2.64a51,51,0,0,1,19.46-4.95c.11-13.25-.22-26.77.17-39.75a11.85,11.85,0,0,0,2.31,0v42.88a62.66,62.66,0,0,0-21.45,3c-2,.62-4.15,2.09-5.93,2.15a8.86,8.86,0,0,1-3.14-1c-7.09-2.81-14.54-4.32-24.58-4.13Z"/><path class="cls-1" d="M150,155.32c0,1.74.27,3.51-.33,5.12a9.24,9.24,0,0,1-3.63,0,69.85,69.85,0,0,0-22.93,1.32c-1.83.45-3.27,1.24-5.6,1a31.62,31.62,0,0,1-3.3-1,71.48,71.48,0,0,0-23.1-1.32c-1.06.1-2.66.56-3.29-.17-.61-.3-.33-1.64-.33-2.47-.07-13.37,0-27.66,0-41.24a7.78,7.78,0,0,1,2.31-.16V156a59.23,59.23,0,0,1,25.73,4.29,14.77,14.77,0,0,0,3.13,1.16,14.32,14.32,0,0,0,3.14-1.16A59.78,59.78,0,0,1,147.32,156c.39-12.92.06-26.37.17-39.56.51.12,1.64-.19,2.14.14s.33,1.65.33,2.47C150,130.79,150,143.31,150,155.32Z"/><text class="cls-3" transform="translate(97.94 137.32)">BH</text><text class="cls-3" transform="translate(120.09 137.32)">SS</text><path class="cls-1" d="M45.87,108.86l.13-1.41a269.9,269.9,0,0,0,1.3-31.13l0-.82.8-.19L193.21,40.85l-.37,1.6A164.19,164.19,0,0,0,189,74.08l0,.78-.76.17ZM49.34,77.1a270.48,270.48,0,0,1-1.18,29.13L187,73.24a167.48,167.48,0,0,1,3.5-29.66Z"/><path class="cls-1" d="M50.58,86.4l2.13-.5c1.53-.37,2.43.12,2.76,1.51l.09.36c.29,1.22-.08,1.72-.46,2,.45.07,1.14.26,1.44,1.52l.17.72c.38,1.57-.1,2.5-1.74,2.89l-2.25.54Zm2.8,3.09c.58-.14.74-.38.58-1.07L53.85,88c-.14-.58-.39-.8-.94-.67l-.32.08.51,2.18Zm.7,4.17.35-.08c.62-.14.69-.46.54-1.13l-.2-.83c-.17-.7-.4-1-1.11-.79l-.24.06Z"/><path class="cls-1" d="M58.9,89.81l.93,3.92-1.73.41-2.14-9,2.25-.54A2,2,0,0,1,61,86.29l.08.33c.3,1.29-.12,1.79-.47,2.06.63.14,1,.49,1.29,1.75.21.87.5,2.19.69,2.64l-1.67.4a17.69,17.69,0,0,1-.76-2.71c-.24-1-.4-1.16-1.06-1Zm-.32-1.37.22,0c.58-.14.77-.37.57-1.21l-.11-.44c-.14-.6-.33-.88-1-.72l-.27.06Z"/><path class="cls-1" d="M63.14,83.42l2.14,9-1.73.41-2.14-9Z"/><path class="cls-1" d="M70.83,91.12l-1.3.31a4.91,4.91,0,0,1-.24-.65,1.45,1.45,0,0,1-1.23,1.14c-1.4.33-2-.62-2.4-2.09l-1-4.24c-.33-1.39,0-2.66,1.69-3.07a2.15,2.15,0,0,1,2.86,1.87l.1.41-1.75.41-.12-.49c-.1-.44-.25-.83-.73-.72s-.48.42-.34,1l1.1,4.62c.15.61.4.79.74.71s.49-.46.31-1.2l-.3-1.3-.6.15-.35-1.47L69.61,86Z"/><path class="cls-1" d="M69.73,81.86l1.74-.42.82,3.47,1.13-.26-.82-3.47,1.75-.42,2.13,9-1.74.41-.95-4-1.13.26,1,4-1.74.41Z"/><path class="cls-1" d="M76.62,81.84l-1.31.31-.37-1.53,4.37-1,.36,1.54-1.32.31,1.78,7.48-1.74.41Z"/><path class="cls-1" d="M81.65,79l1.74-.41.82,3.47,1.14-.27-.83-3.47,1.75-.42,2.14,9-1.75.41-1-4-1.13.26,1,4L83.79,88Z"/><path class="cls-1" d="M92.46,79l1,4.18c.43,1.79-.23,2.76-1.81,3.13s-2.45-.25-2.87-2l-1-4.24A2.25,2.25,0,0,1,89.52,77C90.91,76.69,92,77.21,92.46,79Zm-3,.5,1.1,4.61c.13.56.39.8.78.71s.52-.4.38-1l-1.09-4.61c-.14-.56-.36-.81-.8-.71S89.34,78.91,89.48,79.51Z"/><path class="cls-1" d="M92.82,76.38l2.31-.55c1.5-.36,2.43.26,2.81,1.86l.13.55c.37,1.58,0,2.67-1.71,3.08l-.51.12L96.7,85,95,85.39ZM95.52,80,95.8,80c.66-.15.71-.55.53-1.3L96.19,78c-.14-.58-.37-.92-1-.78l-.36.08Z"/><path class="cls-1" d="M102.91,79.3l-1.86.44.59,2.46,2.18-.52.15,1.58-3.71.88-2.14-9,3.7-.88.36,1.54-2,.46.47,2,1.86-.44Z"/><path class="cls-1" d="M107.29,79.53l.15.63c.14.59.35.83.75.74s.39-.53.29-1c-.2-.85-.42-1-1.52-1.61s-1.86-1-2.18-2.33-.16-2.58,1.55-3,2.37.74,2.62,1.78l.12.51-1.64.39-.12-.54c-.13-.54-.29-.79-.63-.71s-.36.37-.24.88.29.79,1.18,1.2c1.57.72,2.18,1.19,2.54,2.68s.13,2.69-1.67,3.11-2.45-.51-2.77-1.85l-.13-.53Z"/><path class="cls-1" d="M110.59,73.78l-1.32.31-.36-1.53,4.37-1,.36,1.54-1.32.31,1.77,7.48-1.73.41Z"/><path class="cls-1" d="M116.59,78l.29,2.2-1.77.42-.86-9.32,2.58-.61,3.45,8.71-1.81.42-.75-2.08Zm.62-1.76c-.4-1.12-1-2.83-1.29-3.68l-.07,0c.12.64.39,2.71.53,3.86Z"/><path class="cls-1" d="M120.9,79.24l-2.14-9,1.92-.45c.54,1,2.42,4.9,2.58,5.28h0c-.39-1.18-.84-2.81-1.14-4.06l-.35-1.49,1.61-.38,2.14,9-1.93.46c-.4-.82-2.49-5.25-2.61-5.52h0c.32,1,.8,2.83,1.13,4.24l.37,1.54Z"/><path class="cls-1" d="M124.52,68.86l2.13-.51c1.86-.44,2.7.25,3.14,2.12l.8,3.39c.37,1.55.37,3-1.68,3.48l-2.25.53Zm3.54,7.2.34-.08c.68-.16.69-.63.52-1.33l-1-4c-.16-.67-.39-1-1-.84l-.32.08Z"/><path class="cls-1" d="M133.23,74l.29,2.2-1.77.42-.86-9.32,2.58-.61,3.45,8.71-1.81.42-.75-2.08Zm.62-1.76c-.41-1.12-1-2.83-1.29-3.68l-.07,0c.12.64.39,2.72.53,3.86Z"/><path class="cls-1" d="M138.34,71l.93,3.92-1.73.41-2.14-9,2.25-.53a2,2,0,0,1,2.79,1.7l.07.33c.31,1.28-.11,1.79-.46,2.06.63.14,1,.49,1.29,1.75a25.4,25.4,0,0,0,.69,2.64l-1.68.4a17.16,17.16,0,0,1-.75-2.71c-.24-1-.4-1.16-1.06-1ZM138,69.59l.21,0c.58-.14.78-.38.58-1.22l-.11-.43c-.14-.61-.33-.88-1-.73l-.27.07Z"/><path class="cls-1" d="M140.84,65l2.14-.51c1.85-.44,2.7.26,3.14,2.12l.8,3.39c.37,1.56.37,3-1.69,3.48L143,74Zm3.55,7.21.34-.08c.68-.17.68-.63.52-1.34l-1-4c-.16-.67-.39-1-1-.84l-.33.07Z"/><path class="cls-1" d="M151,69.16l.15.62c.14.59.35.83.74.74s.4-.53.3-1c-.2-.85-.42-1.06-1.52-1.61s-1.87-1-2.18-2.34-.16-2.57,1.55-3,2.37.75,2.61,1.78l.13.52-1.64.39-.13-.54c-.13-.55-.28-.8-.63-.72s-.35.38-.23.89.29.78,1.17,1.19c1.58.73,2.19,1.2,2.54,2.68s.13,2.69-1.66,3.12-2.46-.52-2.77-1.85l-.13-.54Z"/><path class="cls-1" d="M159,67.1l.12.49c.27,1.13.4,2.64-1.67,3.13-1.52.36-2.38-.3-2.77-2l-1-4.43c-.37-1.56.21-2.57,1.66-2.92,1.9-.45,2.51.73,2.79,1.91l.13.57-1.74.41-.19-.77c-.11-.49-.28-.72-.64-.63s-.42.34-.3.85l1.14,4.77c.11.48.27.79.66.7s.42-.39.28-1l-.17-.75Z"/><path class="cls-1" d="M158.27,60.85l1.73-.42.83,3.47,1.13-.26-.82-3.47,1.74-.42,2.14,9-1.75.41-1-4-1.13.27.95,4-1.73.41Z"/><path class="cls-1" d="M169.07,60.83l1,4.18c.43,1.79-.23,2.76-1.81,3.13s-2.45-.25-2.86-2l-1-4.25a2.24,2.24,0,0,1,1.75-3C167.53,58.51,168.64,59,169.07,60.83Zm-3,.5,1.09,4.61c.13.55.39.8.78.71s.52-.41.38-1L167.26,61c-.13-.56-.36-.81-.8-.71S166,60.73,166.1,61.33Z"/><path class="cls-1" d="M174.59,59.52l1,4.18c.42,1.79-.24,2.76-1.81,3.13s-2.45-.25-2.87-2l-1-4.24a2.25,2.25,0,0,1,1.75-3.06C173,57.2,174.16,57.72,174.59,59.52Zm-3,.5,1.09,4.61c.14.56.4.8.78.71s.53-.4.39-1l-1.1-4.61c-.13-.56-.35-.81-.79-.71S171.47,59.42,171.61,60Z"/><path class="cls-1" d="M175,56.89l1.73-.41L178.46,64l2.18-.51.21,1.55-3.76.89Z"/><path class="cls-1" d="M182.43,61.7l.15.62c.14.6.35.84.75.74s.39-.52.29-1c-.2-.85-.42-1.06-1.52-1.61s-1.86-1-2.18-2.33-.16-2.58,1.55-3,2.37.74,2.62,1.77l.12.52-1.64.39-.13-.54c-.13-.55-.28-.8-.62-.71s-.36.37-.24.88.29.79,1.18,1.2c1.57.72,2.18,1.19,2.54,2.68s.12,2.69-1.67,3.11-2.45-.51-2.77-1.85l-.13-.54Z"/><path class="cls-4" d="M65.9,39.08l-.59,1.36,2.09.88a6.35,6.35,0,0,1,.28-.67c.11-.24.18-.45.28-.69Zm20.59,2.27,2.12-.84-.55-1.36L85.93,40a6,6,0,0,1,.56,1.36ZM73.82,35l-.9-2.13-1.36.56.9,2.13A7.38,7.38,0,0,1,73.82,35ZM84.57,37.9l4-4-1-1-4,4a10.06,10.06,0,0,1,1,1Zm-14.2-1-4-4-1,1,4,4a14.64,14.64,0,0,1,1.05-1ZM87,45.26H92.7v-1.5H87a9.39,9.39,0,0,1,0,1.5Zm-20-1.5-5.69,0v1.47h5.69a9.39,9.39,0,0,1,0-1.5Zm10.74-9.28V28.76H76.19v5.72a9,9,0,0,1,1.47,0ZM85.93,49l2.09.9.59-1.36-2.12-.9a4.78,4.78,0,0,1-.25.69c-.1.25-.21.46-.31.67Zm-20.06.83L68,49c-.21-.46-.42-1-.59-1.36l-2.06.83ZM82.3,55.59l-.84-2.1a11.51,11.51,0,0,1-1.36.6l.84,2Zm1.26-3.46,4,4,1-1-4-4c-.32.34-.67.73-1,1Zm-17.2,4,4-4c-.35-.31-.7-.7-1.05-1l-4,4Zm9.83-1.6v5.69h1.5V54.54a12.5,12.5,0,0,1-1.5,0Zm-3.76-1-.91,2.06,1.4.59.87-2.09a35.49,35.49,0,0,1-1.36-.56Zm7.88-17a8.71,8.71,0,0,0-11.44,4.67A8.74,8.74,0,1,0,85,47.88a8.67,8.67,0,0,0-4.68-11.41Zm2.06-3L81,32.84,80.14,35a5.84,5.84,0,0,1,.66.24c.24.11.49.21.7.32Z"/><path class="cls-2" d="M177.18,167.18a280.2,280.2,0,0,0,47.72-14.86q-1.86,8.09-4.18,16.2,7.07,4.6,14.51,8.86a307.24,307.24,0,0,1-52.33,16.3Q180,180.44,177.18,167.18Z"/><path class="cls-1" d="M182.71,194l-5.83-27,.25,0a280.67,280.67,0,0,0,47.67-14.85l.45-.18-.11.48c-1.22,5.34-2.61,10.73-4.13,16,4.67,3,9.5,6,14.35,8.75l.45.26-.48.2A309.75,309.75,0,0,1,183,193.93Zm-5.23-26.61,5.62,26a308.42,308.42,0,0,0,51.56-16c-4.77-2.74-9.5-5.64-14.08-8.62l-.16-.1.05-.18c1.49-5.19,2.86-10.47,4.07-15.71A281.8,281.8,0,0,1,177.48,167.37Z"/><path class="cls-2" d="M224.9,151.88a.48.48,0,0,1,.28.1.46.46,0,0,1,.14.44c-1.21,5.29-2.58,10.64-4.09,15.91,4.62,3,9.4,5.92,14.22,8.67a.44.44,0,0,1,0,.79A309.2,309.2,0,0,1,183,194.11a.48.48,0,0,1-.33-.06.51.51,0,0,1-.19-.28l-5.72-26.5a.48.48,0,0,1,.06-.33.4.4,0,0,1,.28-.19,280.87,280.87,0,0,0,47.64-14.84A.47.47,0,0,1,224.9,151.88Zm9.34,25.44c-4.66-2.69-9.29-5.52-13.76-8.43a.44.44,0,0,1-.18-.49c1.46-5.08,2.8-10.25,4-15.36a281.57,281.57,0,0,1-46.58,14.47l5.54,25.65A308.51,308.51,0,0,0,234.24,177.32Z"/><path class="cls-1" d="M182.9,194.37a.71.71,0,0,1-.68-.55l-5.72-26.5a.73.73,0,0,1,.1-.52.67.67,0,0,1,.43-.3,280.38,280.38,0,0,0,47.6-14.82.7.7,0,0,1,.71.11.68.68,0,0,1,.23.68c-1.19,5.23-2.56,10.53-4,15.75,4.57,3,9.3,5.84,14,8.56a.7.7,0,0,1,.35.65.69.69,0,0,1-.43.59,308.68,308.68,0,0,1-52.44,16.34Zm42-42.24-.07,0A281.44,281.44,0,0,1,177.14,167a.2.2,0,0,0-.12.08.22.22,0,0,0,0,.14l5.72,26.5a.2.2,0,0,0,.08.12.32.32,0,0,0,.14,0,307.73,307.73,0,0,0,52.36-16.31.18.18,0,0,0,.12-.15.22.22,0,0,0-.1-.18c-4.82-2.75-9.6-5.67-14.23-8.68l-.16-.1,0-.18c1.51-5.27,2.89-10.62,4.1-15.9a.18.18,0,0,0-.07-.18A.16.16,0,0,0,224.9,152.13ZM183,193.46l-5.64-26.14.25,0a282.24,282.24,0,0,0,46.53-14.46l.46-.19-.11.48c-1.19,5.11-2.53,10.28-4,15.37a.18.18,0,0,0,.08.2c4.47,2.92,9.09,5.75,13.75,8.43l.44.26-.47.19a309.13,309.13,0,0,1-51.05,15.86Zm-5-25.75,5.43,25.15a308.36,308.36,0,0,0,50.23-15.58c-4.5-2.61-9-5.36-13.32-8.18a.69.69,0,0,1-.29-.77c1.42-4.92,2.72-9.92,3.87-14.87A282.11,282.11,0,0,1,178,167.71Z"/><path class="cls-2" d="M168.53,177.54q13.41-2.39,26.62-6,3.61,13.06,7.24,26.13-14.43,4-29.12,6.6Z"/><path class="cls-1" d="M173.06,204.53l-4.83-27.2.25,0c8.94-1.59,17.89-3.62,26.6-6l.25-.07,7.37,26.62-.24.07c-9.59,2.65-19.39,4.88-29.15,6.61Zm-4.24-26.79,4.65,26.2c9.58-1.71,19.2-3.89,28.61-6.49L195,171.81C186.4,174.18,177.6,176.17,168.82,177.74Z"/><path class="cls-2" d="M195.15,171.06a.43.43,0,0,1,.22.06.41.41,0,0,1,.2.26l7.24,26.13a.44.44,0,0,1-.3.54c-9.58,2.65-19.39,4.88-29.17,6.61a.42.42,0,0,1-.5-.35l-4.75-26.7a.41.41,0,0,1,.08-.32.39.39,0,0,1,.28-.18c8.91-1.59,17.86-3.62,26.58-6A.25.25,0,0,1,195.15,171.06Zm6.7,26.26-7-25.28c-8.48,2.33-17.16,4.3-25.82,5.85l4.59,25.83C183.09,202,192.58,199.88,201.85,197.32Z"/><path class="cls-1" d="M173.27,204.92a.69.69,0,0,1-.68-.57l-4.75-26.69a.69.69,0,0,1,.12-.52.65.65,0,0,1,.45-.28c8.92-1.59,17.85-3.62,26.56-6a.67.67,0,0,1,.52.07.68.68,0,0,1,.33.41l7.24,26.13a.7.7,0,0,1-.07.53.68.68,0,0,1-.42.32c-9.55,2.65-19.37,4.88-29.18,6.62Zm21.88-33.61h-.05c-8.72,2.42-17.67,4.45-26.61,6a.14.14,0,0,0-.11.07.23.23,0,0,0,0,.14l4.75,26.7a.17.17,0,0,0,.21.14c9.79-1.74,19.6-4,29.14-6.61a.15.15,0,0,0,.11-.08.2.2,0,0,0,0-.15l-7.24-26.12a.17.17,0,0,0-.09-.11A.16.16,0,0,0,195.15,171.31ZM173.42,204l-4.68-26.33.25-.05c8.65-1.55,17.32-3.52,25.79-5.85l.24-.07.07.25,7.08,25.53-.25.06c-9.27,2.56-18.78,4.72-28.25,6.41Zm-4.09-25.92,4.5,25.33c9.29-1.67,18.62-3.79,27.71-6.29l-6.87-24.79C186.35,174.63,177.83,176.57,169.33,178.1Z"/><path class="cls-2" d="M186.77,182.42q-9.32-2.14-18.24-4.88c.49,2.79,1,5.57,1.48,8.36Q178.43,184.42,186.77,182.42Z"/><path class="cls-1" d="M169.81,186.2l-1.61-9,.4.13c6,1.82,12.09,3.46,18.23,4.88l1,.24-1,.25c-5.54,1.32-11.18,2.49-16.77,3.48Zm-1-8.3,1.37,7.71c5.14-.92,10.33-2,15.44-3.18C180,181.1,174.35,179.58,168.85,177.9Z"/><path class="cls-2" d="M168.53,177.1l.12,0c6,1.82,12.09,3.47,18.22,4.88a.43.43,0,0,1,.34.42.44.44,0,0,1-.34.43c-5.53,1.32-11.18,2.49-16.78,3.48a.43.43,0,0,1-.51-.35l-1.49-8.37a.45.45,0,0,1,.44-.51Zm16.32,5.32c-5.3-1.26-10.6-2.69-15.77-4.26l1.29,7.24C175.2,184.53,180.06,183.53,184.85,182.42Z"/><path class="cls-1" d="M170,186.59a.69.69,0,0,1-.68-.56l-1.49-8.37a.71.71,0,0,1,.23-.64.69.69,0,0,1,.66-.14c6,1.82,12.08,3.46,18.2,4.87a.69.69,0,0,1,.53.67.68.68,0,0,1-.53.68c-5.53,1.31-11.18,2.48-16.8,3.48Zm-1.48-9.24a.17.17,0,0,0-.12.05.19.19,0,0,0-.07.17l1.49,8.37a.18.18,0,0,0,.21.14c5.61-1,11.26-2.16,16.78-3.48a.18.18,0,0,0,.14-.18.17.17,0,0,0-.15-.17c-6.13-1.42-12.26-3.06-18.23-4.89Zm1.63,8.34-1.4-7.89.39.12c5.16,1.56,10.46,3,15.76,4.26l1.05.25-1.05.24c-4.8,1.11-9.68,2.11-14.5,3Zm-.76-7.16,1.17,6.57c4.38-.79,8.81-1.69,13.17-2.68C178.91,181.25,174.1,179.94,169.4,178.53Z"/><path class="cls-2" d="M195.15,171.5q-9.18-1.87-18-4.32c.6,2.77,1.19,5.53,1.79,8.3Q187.1,173.73,195.15,171.5Z"/><path class="cls-1" d="M178.78,175.78l-1.94-9,.41.11c5.86,1.64,11.9,3.09,17.95,4.32l1,.21-1,.28c-5.37,1.49-10.82,2.83-16.19,4Zm-1.26-8.25,1.65,7.65c4.94-1.07,10-2.3,14.89-3.65C188.48,170.38,182.93,169,177.52,167.53Z"/><path class="cls-2" d="M177.18,166.74l.12,0c5.87,1.63,11.9,3.08,17.94,4.31a.44.44,0,0,1,.35.41.45.45,0,0,1-.32.44c-5.34,1.48-10.8,2.82-16.21,4a.44.44,0,0,1-.52-.33l-1.79-8.31a.45.45,0,0,1,.13-.41A.42.42,0,0,1,177.18,166.74Zm16.1,4.82c-5.22-1.1-10.43-2.36-15.52-3.77l1.55,7.17C184,174,188.66,172.81,193.28,171.56Z"/><path class="cls-1" d="M179,176.17a.68.68,0,0,1-.67-.54l-1.8-8.31a.73.73,0,0,1,.2-.65.74.74,0,0,1,.67-.16c5.87,1.64,11.9,3.09,17.92,4.31a.69.69,0,0,1,.55.65.68.68,0,0,1-.5.69c-5.37,1.49-10.83,2.83-16.22,4ZM177.18,167a.21.21,0,0,0-.13,0,.2.2,0,0,0-.05.18l1.79,8.3a.18.18,0,0,0,.22.14c5.38-1.16,10.83-2.5,16.19-4a.18.18,0,0,0,.13-.19.17.17,0,0,0-.14-.17c-6-1.23-12.07-2.68-18-4.32Zm1.93,8.27-1.69-7.82.41.11c5.07,1.4,10.29,2.66,15.5,3.76l1,.22-1,.27c-4.64,1.26-9.35,2.4-14,3.41Zm-1-7.11,1.4,6.51c4.21-.92,8.47-1.95,12.69-3.07C187.45,170.57,182.72,169.41,178.1,168.15Z"/><path class="cls-2" d="M58.74,167.18A280.37,280.37,0,0,1,11,152.32q1.85,8.09,4.18,16.2-7.07,4.6-14.52,8.86A307.52,307.52,0,0,0,53,193.68Q55.89,180.44,58.74,167.18Z"/><path class="cls-1" d="M53.22,194l-.25,0A308.84,308.84,0,0,1,.59,177.62l-.47-.2.45-.26c4.85-2.78,9.68-5.72,14.34-8.75-1.52-5.3-2.91-10.69-4.13-16l-.11-.48.45.18A281.05,281.05,0,0,0,58.8,166.93l.25,0ZM1.27,177.35a308.13,308.13,0,0,0,51.56,16l5.61-26a281.8,281.8,0,0,1-47.06-14.63c1.21,5.24,2.58,10.52,4.07,15.71l.05.18-.16.1C10.77,171.71,6,174.61,1.27,177.35Z"/><path class="cls-2" d="M11,151.88a.45.45,0,0,1,.16,0,280.7,280.7,0,0,0,47.65,14.84.44.44,0,0,1,.33.52l-5.72,26.5a.44.44,0,0,1-.52.34A309.2,309.2,0,0,1,.52,177.79.44.44,0,0,1,.47,177c4.82-2.75,9.6-5.67,14.23-8.67-1.51-5.27-2.89-10.62-4.1-15.91a.46.46,0,0,1,.14-.44A.48.48,0,0,1,11,151.88Zm47.19,15.63A281.57,281.57,0,0,1,11.64,153c1.19,5.11,2.53,10.28,4,15.36a.45.45,0,0,1-.18.49c-4.48,2.91-9.1,5.74-13.77,8.43a308.92,308.92,0,0,0,51,15.84Z"/><path class="cls-1" d="M53,194.37h-.14A309.13,309.13,0,0,1,.43,178a.69.69,0,0,1-.08-1.24c4.75-2.72,9.48-5.6,14.05-8.56-1.49-5.21-2.85-10.51-4.05-15.75a.68.68,0,0,1,.23-.68.7.7,0,0,1,.71-.11,280.38,280.38,0,0,0,47.6,14.82.69.69,0,0,1,.53.82L53.7,193.83a.7.7,0,0,1-.3.43A.73.73,0,0,1,53,194.37ZM11,152.13a.17.17,0,0,0-.12.05.17.17,0,0,0-.06.18c1.21,5.29,2.58,10.64,4.09,15.9l.05.18-.16.1c-4.62,3-9.41,5.93-14.23,8.68a.18.18,0,0,0-.09.18.17.17,0,0,0,.11.15A308.35,308.35,0,0,0,53,193.86a.22.22,0,0,0,.14,0,.15.15,0,0,0,.08-.11l5.72-26.5a.18.18,0,0,0-.14-.22A281.05,281.05,0,0,1,11.1,152.15Zm41.85,41.33-.25-.05a308.07,308.07,0,0,1-51-15.86l-.48-.19.45-.26c4.65-2.68,9.27-5.51,13.75-8.43a.19.19,0,0,0,.07-.2c-1.46-5.09-2.8-10.26-4-15.37l-.12-.48.46.19a282,282,0,0,0,46.54,14.46l.25,0ZM2.26,177.28a308.66,308.66,0,0,0,50.23,15.58l5.43-25.15A282.11,282.11,0,0,1,12,153.46c1.16,4.95,2.46,9.95,3.87,14.87a.69.69,0,0,1-.29.77C11.25,171.92,6.77,174.67,2.26,177.28Z"/><path class="cls-2" d="M67.4,177.54q-13.41-2.39-26.63-6-3.62,13.06-7.24,26.13,14.43,4,29.13,6.6Z"/><path class="cls-1" d="M62.86,204.53l-.25-.05c-9.78-1.74-19.58-4-29.15-6.61l-.24-.07,7.38-26.62.24.07c8.72,2.42,17.67,4.45,26.6,6l.25,0Zm-29-7.08c9.39,2.59,19,4.78,28.61,6.49l4.65-26.2c-8.78-1.57-17.58-3.56-26.15-5.93Z"/><path class="cls-2" d="M40.77,171.06a.25.25,0,0,1,.12,0c8.72,2.41,17.67,4.44,26.58,6a.43.43,0,0,1,.29.18.45.45,0,0,1,.07.32l-4.74,26.7a.47.47,0,0,1-.18.28.44.44,0,0,1-.33.07c-9.78-1.73-19.6-4-29.17-6.61a.45.45,0,0,1-.3-.54l7.24-26.13a.42.42,0,0,1,.21-.26A.39.39,0,0,1,40.77,171.06Zm26.12,6.83c-8.66-1.55-17.34-3.52-25.81-5.85l-7,25.28c9.27,2.55,18.76,4.71,28.23,6.4Z"/><path class="cls-1" d="M62.65,204.92h-.12c-9.79-1.74-19.61-4-29.18-6.62a.68.68,0,0,1-.42-.32.75.75,0,0,1-.07-.53l7.25-26.13a.62.62,0,0,1,.33-.41.63.63,0,0,1,.51-.07c8.73,2.42,17.66,4.44,26.57,6a.7.7,0,0,1,.45.28.73.73,0,0,1,.11.52l-4.74,26.69a.69.69,0,0,1-.69.57ZM40.77,171.31a.16.16,0,0,0-.09,0,.2.2,0,0,0-.09.11l-7.24,26.12a.26.26,0,0,0,0,.15.18.18,0,0,0,.11.08c9.56,2.65,19.36,4.88,29.14,6.61a.14.14,0,0,0,.14,0,.18.18,0,0,0,.08-.11l4.74-26.7a.14.14,0,0,0,0-.13.16.16,0,0,0-.12-.08c-8.92-1.59-17.87-3.62-26.61-6ZM62.51,204l-.25-.05c-9.49-1.69-19-3.85-28.26-6.41l-.24-.06,7.14-25.78.25.07c8.48,2.34,17.15,4.31,25.78,5.85l.25.05,0,.24Zm-28.13-6.88c9.09,2.5,18.42,4.62,27.72,6.29l4.5-25.33c-8.49-1.53-17-3.46-25.35-5.75Z"/><path class="cls-2" d="M49.15,182.42q9.33-2.14,18.25-4.88c-.5,2.79-1,5.57-1.49,8.36Q57.5,184.42,49.15,182.42Z"/><path class="cls-1" d="M66.12,186.2l-.25,0c-5.59-1-11.24-2.16-16.78-3.48L48,182.42l1.05-.24c6.14-1.42,12.27-3.06,18.23-4.88l.4-.13Zm-15.86-3.77c5.11,1.19,10.3,2.26,15.45,3.18l1.37-7.71C61.57,179.58,55.92,181.1,50.26,182.43Z"/><path class="cls-2" d="M67.4,177.1a.46.46,0,0,1,.29.11.43.43,0,0,1,.14.4L66.34,186a.42.42,0,0,1-.5.35c-5.6-1-11.25-2.16-16.79-3.48a.44.44,0,0,1-.34-.43.43.43,0,0,1,.34-.42c6.13-1.41,12.26-3.06,18.22-4.88Zm-1.84,8.3,1.28-7.24c-5.17,1.57-10.46,3-15.77,4.26C55.86,183.53,60.73,184.53,65.56,185.4Z"/><path class="cls-1" d="M65.92,186.6l-.13,0c-5.61-1-11.26-2.17-16.8-3.48a.71.71,0,0,1-.53-.68.68.68,0,0,1,.54-.67c6.12-1.41,12.24-3.05,18.2-4.87a.69.69,0,0,1,.88.78L66.59,186a.67.67,0,0,1-.29.46A.74.74,0,0,1,65.92,186.6Zm1.48-9.25h-.05c-6,1.83-12.11,3.47-18.24,4.89a.17.17,0,0,0-.14.17.2.2,0,0,0,.14.19c5.53,1.31,11.17,2.48,16.77,3.47a.2.2,0,0,0,.14,0,.19.19,0,0,0,.07-.13l1.49-8.36a.19.19,0,0,0-.18-.22Zm-1.64,8.34-.25-.05c-4.86-.87-9.74-1.87-14.5-3l-1-.24,1-.25c5.3-1.26,10.6-2.69,15.76-4.26l.39-.12Zm-13.58-3.27c4.33,1,8.76,1.88,13.17,2.68l1.17-6.57C61.82,179.94,57,181.25,52.18,182.42Z"/><path class="cls-2" d="M40.77,171.5q9.18-1.87,18-4.32c-.59,2.77-1.19,5.53-1.79,8.3Q48.82,173.73,40.77,171.5Z"/><path class="cls-1" d="M57.15,175.78l-.25-.05c-5.41-1.17-10.86-2.51-16.19-4l-1-.28,1-.21c6.06-1.23,12.1-2.68,18-4.32l.4-.11Zm-15.29-4.25c4.92,1.35,9.92,2.57,14.9,3.65l1.65-7.65C53,169,47.44,170.38,41.86,171.53Z"/><path class="cls-2" d="M58.74,166.74a.45.45,0,0,1,.31.12.42.42,0,0,1,.12.41l-1.79,8.31a.4.4,0,0,1-.19.27.43.43,0,0,1-.33.06c-5.42-1.17-10.87-2.51-16.2-4a.44.44,0,0,1-.32-.44.43.43,0,0,1,.35-.41c6-1.23,12.06-2.68,17.94-4.31ZM56.62,175l1.54-7.17c-5.09,1.41-10.3,2.67-15.51,3.77C47.26,172.8,52,174,56.62,175Z"/><path class="cls-1" d="M57,176.17h-.14c-5.43-1.17-10.89-2.52-16.22-4a.69.69,0,0,1,0-1.34c6-1.22,12-2.67,17.93-4.31a.73.73,0,0,1,.66.16.7.7,0,0,1,.2.65l-1.79,8.31a.7.7,0,0,1-.3.43A.63.63,0,0,1,57,176.17ZM58.74,167h0c-5.9,1.64-11.94,3.09-18,4.32a.17.17,0,0,0-.15.17.19.19,0,0,0,.14.19c5.32,1.47,10.76,2.81,16.18,4a.22.22,0,0,0,.14,0,.2.2,0,0,0,.08-.12l1.79-8.3a.17.17,0,0,0-.05-.18A.19.19,0,0,0,58.74,167Zm-1.93,8.27-.25,0c-4.67-1-9.38-2.16-14-3.41l-1-.27,1-.22C47.8,170.21,53,169,58.1,167.55l.4-.11Zm-13.08-3.67c4.19,1.11,8.45,2.14,12.69,3.07l1.41-6.51C53.2,169.42,48.46,170.57,43.73,171.59Z"/><path class="cls-2" d="M49.13,182.42a297.56,297.56,0,0,0,137.66,0l6.27,26.38a324.68,324.68,0,0,1-150.2,0Z"/><path class="cls-1" d="M118,217.81A325,325,0,0,1,42.8,209l-.25,0,1.29-5.42,5.1-21.45.25,0a298.67,298.67,0,0,0,137.54,0l.25,0L193.37,209l-.25,0A325,325,0,0,1,118,217.81Zm-74.8-9.2a325.9,325.9,0,0,0,149.6,0l-6.16-25.88a299.47,299.47,0,0,1-137.28,0Z"/><path class="cls-2" d="M49.13,182h.1a298.33,298.33,0,0,0,137.46,0,.48.48,0,0,1,.33.06.45.45,0,0,1,.2.27l6.27,26.38a.43.43,0,0,1-.32.52,326.65,326.65,0,0,1-150.41,0,.43.43,0,0,1-.33-.52l6.27-26.38a.45.45,0,0,1,.2-.27A.39.39,0,0,1,49.13,182Zm68.83,9a298.58,298.58,0,0,1-68.5-8l-6.07,25.52a325.61,325.61,0,0,0,149.15,0L186.47,183A298.73,298.73,0,0,1,118,190.93Z"/><path class="cls-1" d="M118,218.25a325.92,325.92,0,0,1-75.26-8.78.69.69,0,0,1-.51-.83l6.27-26.38a.68.68,0,0,1,.83-.51,298.36,298.36,0,0,0,137.34,0,.73.73,0,0,1,.52.08.68.68,0,0,1,.31.43l6.28,26.38a.69.69,0,0,1-.51.83A326,326,0,0,1,118,218.25Zm-68.83-36-.1,0a.2.2,0,0,0-.08.12l-6.27,26.38a.19.19,0,0,0,.14.22,326.68,326.68,0,0,0,150.29,0,.18.18,0,0,0,.13-.22L187,182.38a.2.2,0,0,0-.08-.12.22.22,0,0,0-.14,0,298.85,298.85,0,0,1-137.58,0ZM118,217.38a324.81,324.81,0,0,1-74.63-8.66l-.25-.06.06-.25,6.13-25.77.24.06a298.2,298.2,0,0,0,68.45,8,298.07,298.07,0,0,0,68.45-8l.25-.06,6.18,26-.24.06A325,325,0,0,1,118,217.38Zm-74.27-9.1a325.46,325.46,0,0,0,148.54,0l-5.95-25A298.65,298.65,0,0,1,118,191.18a298.71,298.71,0,0,1-68.32-7.93Z"/><path class="cls-1" d="M50.56,198.8a1.78,1.78,0,0,1-.07-1.36c0-.13.07-.26.1-.39l1,.29-.12.46c-.12.43,0,.7.4.8a.55.55,0,0,0,.46,0,.79.79,0,0,0,.29-.48,1.45,1.45,0,0,0,0-.8,3.86,3.86,0,0,0-.53-1,4.49,4.49,0,0,1-.66-1.29,2.17,2.17,0,0,1,0-1.13,1.84,1.84,0,0,1,.75-1.12,1.64,1.64,0,0,1,1.31-.12,1.58,1.58,0,0,1,1.06.75,1.87,1.87,0,0,1,.07,1.36c0,.09-.05.19-.07.28l-1-.27.09-.34a.84.84,0,0,0,0-.55.55.55,0,0,0-.36-.26c-.36-.1-.6.07-.72.5a1.3,1.3,0,0,0,0,.73,4.22,4.22,0,0,0,.53,1,4.12,4.12,0,0,1,.67,1.3,2.33,2.33,0,0,1,0,1.17,1.85,1.85,0,0,1-.76,1.16,1.72,1.72,0,0,1-1.36.12A1.66,1.66,0,0,1,50.56,198.8Z"/><path class="cls-1" d="M55.72,193.33l3,.73-.24,1-1.87-.46-.45,1.78,1.5.37-.24,1-1.5-.37-.52,2.07,1.91.47-.24,1-3-.76Q54.86,196.7,55.72,193.33Z"/><path class="cls-1" d="M58.09,200.73A1.74,1.74,0,0,1,58,199.4l.87-3.64a1.8,1.8,0,0,1,.7-1.13,1.6,1.6,0,0,1,1.29-.16,1.65,1.65,0,0,1,1.09.71,1.78,1.78,0,0,1,.13,1.33c0,.24-.11.48-.16.72l-1-.24.18-.78c.09-.42,0-.68-.4-.76s-.6.08-.69.5l-.9,3.79c-.09.41,0,.66.41.75s.61-.08.7-.49l.24-1,1,.24-.21,1a1.79,1.79,0,0,1-.7,1.14,1.66,1.66,0,0,1-1.32.15A1.64,1.64,0,0,1,58.09,200.73Z"/><path class="cls-1" d="M62,201.62a1.84,1.84,0,0,1-.14-1.36c.39-1.73.77-3.46,1.16-5.19l1.08.24Q63.53,198,63,200.58a.72.72,0,0,0,0,.54.53.53,0,0,0,.39.25.53.53,0,0,0,.45-.07.73.73,0,0,0,.25-.47q.57-2.64,1.13-5.28l1.05.22c-.36,1.74-.73,3.47-1.09,5.21a1.77,1.77,0,0,1-.69,1.18,1.73,1.73,0,0,1-1.34.18A1.68,1.68,0,0,1,62,201.62Z"/><path class="cls-1" d="M67,195.93l1.61.33a1.74,1.74,0,0,1,1.16.63,1.68,1.68,0,0,1,.16,1.26c0,.14-.06.28-.08.42-.14.71-.47,1.11-1,1.21v0a.89.89,0,0,1,.48.59,2.62,2.62,0,0,1,0,1c-.08.4-.16.8-.23,1.2a3.7,3.7,0,0,0-.07.48,1.16,1.16,0,0,0,0,.37l-1.14-.22a1.27,1.27,0,0,1,0-.33,3.55,3.55,0,0,1,.08-.53c.08-.41.16-.83.25-1.25a1,1,0,0,0,0-.68.67.67,0,0,0-.5-.29l-.39-.08c-.19,1-.39,1.95-.58,2.93l-1.12-.23C66.09,200.48,66.56,198.21,67,195.93Zm.9,3.23a.66.66,0,0,0,.53-.07.76.76,0,0,0,.27-.52c0-.17.07-.35.11-.53a.84.84,0,0,0,0-.56.53.53,0,0,0-.39-.25l-.5-.1-.39,2Z"/><path class="cls-1" d="M71,196.72c1,.19,2,.37,3,.54-.06.33-.12.65-.17,1l-1.9-.34-.33,1.81,1.52.28-.18,1-1.52-.28L71,202.8l1.94.34-.18,1-3.06-.55Z"/><path class="cls-1" d="M76.58,201.75c-.24-1.39-.46-2.78-.69-4.16l1.17.19c.11.88.22,1.76.34,2.64h0L78.57,198l1.07.16q-1,1.88-2,3.75c-.15,1-.3,1.95-.46,2.93l-1.12-.18C76.26,203.7,76.42,202.73,76.58,201.75Z"/><path class="cls-1" d="M79.34,204.82a1.76,1.76,0,0,1-.25-1.35l.54-3.62a1.79,1.79,0,0,1,.62-1.21,1.94,1.94,0,0,1,2.48.35,1.81,1.81,0,0,1,.25,1.34c-.16,1.21-.33,2.42-.49,3.63a1.57,1.57,0,0,1-1.95,1.5A1.7,1.7,0,0,1,79.34,204.82Zm2-.95c.18-1.25.35-2.51.53-3.76.06-.46-.1-.71-.48-.76s-.6.14-.67.6l-.54,3.76c-.07.45.09.71.48.76S81.29,204.33,81.36,203.87Z"/><path class="cls-1" d="M83.46,205.4a1.83,1.83,0,0,1-.26-1.35c.24-1.75.47-3.51.7-5.26l1.1.14c-.23,1.78-.46,3.57-.68,5.35a.71.71,0,0,0,.08.53.53.53,0,0,0,.4.21.56.56,0,0,0,.45-.1.75.75,0,0,0,.21-.5l.66-5.35,1.06.13-.63,5.28a1.75,1.75,0,0,1-.58,1.23,2,2,0,0,1-2.51-.31Z"/><path class="cls-1" d="M88,199.29l1.63.18a1.78,1.78,0,0,1,1.2.53,1.67,1.67,0,0,1,.27,1.24c0,.14,0,.28,0,.43q-.11,1.08-.87,1.29v0a.85.85,0,0,1,.52.54,2.24,2.24,0,0,1,.07,1l-.12,1.22a4.71,4.71,0,0,0,0,.48,1,1,0,0,0,.07.37l-1.16-.12a2.09,2.09,0,0,1,0-.32,5,5,0,0,1,0-.54c0-.42.09-.85.14-1.27a1.09,1.09,0,0,0-.09-.68.68.68,0,0,0-.53-.24l-.38,0-.33,3-1.13-.13C87.42,203.9,87.69,201.6,88,199.29Zm1.17,3.14a.69.69,0,0,0,.52-.12.76.76,0,0,0,.23-.54l.06-.54a.92.92,0,0,0-.08-.56.53.53,0,0,0-.41-.21l-.5-.05c-.07.65-.15,1.31-.22,2Z"/><path class="cls-1" d="M93.59,199.88l2.92.25c0,.33-.06.66-.08,1L94.61,201c-.06.64-.12,1.29-.17,1.93l1.44.12c0,.33-.06.66-.08,1l-1.45-.12c-.09,1-.18,2-.26,3L93,206.81Q93.28,203.35,93.59,199.88Z"/><path class="cls-1" d="M96.92,206.79a1.79,1.79,0,0,1-.34-1.33l.42-5.29,1.1.08-.39,5.38a.75.75,0,0,0,.11.53.59.59,0,0,0,.41.19.57.57,0,0,0,.44-.13.71.71,0,0,0,.18-.51c.13-1.79.25-3.59.37-5.38l1.07.07c-.12,1.77-.23,3.54-.34,5.3a1.8,1.8,0,0,1-.52,1.27,1.67,1.67,0,0,1-1.29.37A1.62,1.62,0,0,1,96.92,206.79Z"/><path class="cls-1" d="M101.87,201.49l-1.15-.07.06-1,3.41.19c0,.33,0,.66,0,1l-1.16-.05c-.1,2-.21,4-.31,6l-1.14-.06Q101.71,204.48,101.87,201.49Z"/><path class="cls-1" d="M104.81,207.27a1.78,1.78,0,0,1-.37-1.32l.24-5.31,1.11.05c-.08,1.8-.15,3.59-.23,5.39a.71.71,0,0,0,.13.52.59.59,0,0,0,.42.18.54.54,0,0,0,.43-.14.74.74,0,0,0,.17-.51c.07-1.8.13-3.6.2-5.4l1.06,0c0,1.77-.11,3.54-.17,5.31a1.82,1.82,0,0,1-.47,1.29,1.68,1.68,0,0,1-1.28.4A1.65,1.65,0,0,1,104.81,207.27Z"/><path class="cls-1" d="M108.76,200.8l1.63,0a1.68,1.68,0,0,1,1.24.42,1.66,1.66,0,0,1,.38,1.21c0,.14,0,.29,0,.43,0,.72-.26,1.18-.76,1.36v0a.87.87,0,0,1,.57.5,2.27,2.27,0,0,1,.15,1c0,.41,0,.82,0,1.23a3.5,3.5,0,0,0,0,.48,1,1,0,0,0,.1.37l-1.16,0a1.49,1.49,0,0,1-.08-.32c0-.1,0-.28,0-.54l0-1.28a1,1,0,0,0-.15-.67.71.71,0,0,0-.54-.2h-.39c0,1-.05,2-.07,3l-1.14,0Zm1.43,3a.65.65,0,0,0,.51-.16.74.74,0,0,0,.18-.56c0-.18,0-.36,0-.54a.9.9,0,0,0-.12-.55.56.56,0,0,0-.43-.18h-.5c0,.66,0,1.33,0,2Z"/><path class="cls-1" d="M112.81,200.88l3,0v1H113.9c0,.61,0,1.22,0,1.84h1.53v1h-1.54c0,.72,0,1.43,0,2.14h2v1l-3.1,0Z"/><path class="cls-1" d="M118.94,201.87l-1.16,0c0-.34,0-.67,0-1l3.41,0c0,.33,0,.66,0,1l-1.15,0q0,3,.1,6H119C119,205.85,119,203.86,118.94,201.87Z"/><path class="cls-1" d="M121.72,200.83l1.1,0c0,.94.05,1.89.08,2.83l1.2,0c0-.95-.06-1.89-.1-2.84l1.11,0,.27,7-1.14,0c0-1-.07-2.09-.11-3.13l-1.2,0,.09,3.13-1.14,0C121.83,205.47,121.77,203.15,121.72,200.83Z"/><path class="cls-1" d="M125.93,200.69l1.64-.08a1.76,1.76,0,0,1,1.26.33,1.65,1.65,0,0,1,.46,1.19l0,.43a1.3,1.3,0,0,1-.66,1.41v0a.85.85,0,0,1,.6.45,2.33,2.33,0,0,1,.22,1c0,.4.05.81.07,1.22a4.2,4.2,0,0,0,0,.48,1.27,1.27,0,0,0,.12.36l-1.15.06a1.58,1.58,0,0,1-.1-.31,3.78,3.78,0,0,1-.05-.54l-.06-1.27a1,1,0,0,0-.2-.66.68.68,0,0,0-.55-.16l-.39,0c0,1,.09,2,.14,3l-1.14.05Q126.09,204.17,125.93,200.69Zm1.65,2.91a.69.69,0,0,0,.5-.19.8.8,0,0,0,.13-.58c0-.17,0-.35,0-.53a.91.91,0,0,0-.17-.54.5.5,0,0,0-.43-.15l-.51,0,.09,2Z"/><path class="cls-1" d="M130.72,207.06a1.79,1.79,0,0,1-.51-1.27c-.08-1.21-.15-2.43-.22-3.65a1.82,1.82,0,0,1,.36-1.32,2,2,0,0,1,2.49-.16,1.8,1.8,0,0,1,.53,1.26c.08,1.22.17,2.43.26,3.65a1.78,1.78,0,0,1-.35,1.32,1.69,1.69,0,0,1-1.25.55A1.72,1.72,0,0,1,130.72,207.06Zm1.79-1.34c-.09-1.26-.17-2.53-.26-3.79,0-.46-.24-.67-.62-.65s-.56.27-.53.72l.24,3.8c0,.45.24.67.63.64S132.54,206.18,132.51,205.72Z"/><path class="cls-1" d="M134.88,206.78a1.8,1.8,0,0,1-.53-1.26c-.14-1.77-.27-3.53-.4-5.3l1.1-.09c.14,1.8.29,3.59.43,5.38a.75.75,0,0,0,.19.51.61.61,0,0,0,.44.12.59.59,0,0,0,.41-.19.75.75,0,0,0,.11-.53c-.15-1.79-.31-3.59-.46-5.38l1.07-.09c.15,1.76.31,3.53.47,5.29a1.83,1.83,0,0,1-.32,1.34,1.65,1.65,0,0,1-1.22.55A1.62,1.62,0,0,1,134.88,206.78Z"/><path class="cls-1" d="M139,206.43a1.81,1.81,0,0,1-.55-1.25l-.33-3.65a1.86,1.86,0,0,1,.3-1.33,1.61,1.61,0,0,1,1.18-.57,1.64,1.64,0,0,1,1.27.33,1.85,1.85,0,0,1,.55,1.25l.06.59-1,.11-.06-.66c-.05-.46-.26-.67-.64-.63s-.55.28-.51.74l.36,3.79c0,.45.27.66.65.62s.57-.28.52-.73-.09-.91-.14-1.36l-.56.06-.09-1,1.61-.17.24,2.27a1.79,1.79,0,0,1-.3,1.34,1.64,1.64,0,0,1-1.21.57A1.62,1.62,0,0,1,139,206.43Z"/><path class="cls-1" d="M141.93,199.49l1.1-.12c.11.94.21,1.88.32,2.81l1.19-.13-.33-2.82,1.1-.13c.28,2.3.56,4.61.85,6.91l-1.14.14-.36-3.11-1.2.13c.12,1,.23,2.08.35,3.12l-1.13.12Z"/><path class="cls-1" d="M147.72,198.79l1.1-.15c.13,1,.27,1.94.4,2.91.34-1,.67-2.07,1-3.11l1.09-.16c-.31.91-.62,1.82-.94,2.73.65,1.39,1.32,2.78,2,4.16l-1.17.18c-.47-1-.93-2-1.39-2.95-.11.32-.21.63-.32.94l.3,2.2-1.13.16Q148.19,202.24,147.72,198.79Z"/><path class="cls-1" d="M151.85,198.2l1.38-.21c.57,1.32,1.14,2.64,1.72,3.95h0l-.66-4.12,1-.16c.37,2.29.75,4.59,1.13,6.88l-1.16.18q-1.06-2.4-2.12-4.81h0c.25,1.68.51,3.36.77,5l-1,.15C152.54,202.8,152.2,200.5,151.85,198.2Z"/><path class="cls-1" d="M157.56,204a1.74,1.74,0,0,1-.66-1.2c-.2-1.2-.4-2.41-.61-3.61a1.8,1.8,0,0,1,.22-1.35,2,2,0,0,1,2.46-.43,1.82,1.82,0,0,1,.66,1.19l.66,3.61a1.8,1.8,0,0,1-.2,1.35,1.75,1.75,0,0,1-1.19.68A1.72,1.72,0,0,1,157.56,204Zm1.63-1.52c-.22-1.25-.45-2.5-.67-3.75q-.12-.68-.69-.57c-.37.06-.53.32-.45.77.22,1.25.44,2.5.65,3.75.08.45.31.64.7.58S159.27,202.91,159.19,202.46Z"/><path class="cls-1" d="M159.81,196.87l1.06-.2q.74,2.6,1.49,5.17h0c-.16-1.79-.33-3.58-.49-5.36l1.19-.23c.52,1.71,1,3.43,1.57,5.14h0c-.19-1.78-.38-3.57-.58-5.35l.94-.19q.36,3.48.7,7l-1.4.28-1.41-4.51h0l.39,4.71-1.49.29Q160.79,200.23,159.81,196.87Z"/><path class="cls-1" d="M165.59,195.73l1.08-.23,1.26,5.84,1.83-.4.21,1-2.95.64Q166.3,199.15,165.59,195.73Z"/><path class="cls-1" d="M169,195l1.66-.37a1.62,1.62,0,0,1,1.31.14,1.77,1.77,0,0,1,.7,1.15c.28,1.14.55,2.28.82,3.43a1.75,1.75,0,0,1-.11,1.34,1.7,1.7,0,0,1-1.15.72l-1.7.39Zm3,5.45a.56.56,0,0,0,.38-.25.79.79,0,0,0,0-.54c-.28-1.18-.55-2.35-.83-3.53a.73.73,0,0,0-.26-.47.56.56,0,0,0-.45-.06l-.55.13,1.11,4.85Z"/><path class="cls-1" d="M174.88,200.4a1.82,1.82,0,0,1-.73-1.16c-.28-1.18-.57-2.37-.86-3.56a1.81,1.81,0,0,1,.11-1.36,1.61,1.61,0,0,1,1.09-.73,1.64,1.64,0,0,1,1.31.13,1.85,1.85,0,0,1,.73,1.15l.15.58-1,.27c-.05-.22-.11-.44-.16-.65-.11-.44-.36-.62-.73-.53s-.51.37-.4.81c.31,1.23.61,2.47.92,3.7.1.44.35.61.73.52s.52-.37.41-.8l-.33-1.33-.55.14-.24-1,1.58-.4.57,2.2a1.89,1.89,0,0,1-.1,1.37,1.74,1.74,0,0,1-1.12.75A1.69,1.69,0,0,1,174.88,200.4Z"/><path class="cls-1" d="M176.82,193.09c1-.25,2-.51,2.93-.78l.27,1-1.87.5.47,1.78,1.5-.4c.09.32.17.64.26,1l-1.5.41c.18.69.36,1.37.55,2.06l1.9-.51c.09.32.18.64.26,1-1,.28-2,.54-3,.81C178,197.59,177.4,195.34,176.82,193.09Z"/></g></g></svg>