<svg width="20" height="20" viewBox="0 0 20 20" fill="none" xmlns="http://www.w3.org/2000/svg">
<path d="M5.58343 15.0003H3.45844C2.26677 15.0003 1.66675 14.4003 1.66675 13.2086V3.45868C1.66675 2.26701 2.26677 1.66699 3.45844 1.66699H7.04176C8.23343 1.66699 8.83339 2.26701 8.83339 3.45868V5.00033" stroke="white" stroke-width="2" stroke-miterlimit="10" stroke-linecap="round" stroke-linejoin="round"/>
<path d="M14.4749 7.01665V16.3167C14.4749 17.6583 13.8083 18.3333 12.4666 18.3333H7.5999C6.25824 18.3333 5.58325 17.6583 5.58325 16.3167V7.01665C5.58325 5.67499 6.25824 5 7.5999 5H12.4666C13.8083 5 14.4749 5.67499 14.4749 7.01665Z" stroke="white" stroke-width="2" stroke-miterlimit="10" stroke-linecap="round" stroke-linejoin="round"/>
<path d="M11.1667 5.00033V3.45868C11.1667 2.26701 11.7667 1.66699 12.9584 1.66699H16.5417C17.7334 1.66699 18.3334 2.26701 18.3334 3.45868V13.2086C18.3334 14.4003 17.7334 15.0003 16.5417 15.0003H14.4751" stroke="white" stroke-width="2" stroke-miterlimit="10" stroke-linecap="round" stroke-linejoin="round"/>
<path d="M8.33325 9.16699H11.6666" stroke="white" stroke-width="1.5" stroke-miterlimit="10" stroke-linecap="round" stroke-linejoin="round"/>
<path d="M8.33325 11.667H11.6666" stroke="white" stroke-width="1.5" stroke-miterlimit="10" stroke-linecap="round" stroke-linejoin="round"/>
<path d="M10 18.333V15.833" stroke="white" stroke-width="1.5" stroke-miterlimit="10" stroke-linecap="round" stroke-linejoin="round"/>
</svg>
