<svg width="20" height="20" viewBox="0 0 20 20" fill="none" xmlns="http://www.w3.org/2000/svg">
<path d="M5.58318 15.0003H3.45819C2.26652 15.0003 1.6665 14.4003 1.6665 13.2086V3.45868C1.6665 2.26701 2.26652 1.66699 3.45819 1.66699H7.04151C8.23318 1.66699 8.83315 2.26701 8.83315 3.45868V5.00033" stroke="#93002F" stroke-width="2" stroke-miterlimit="10" stroke-linecap="round" stroke-linejoin="round"/>
<path d="M14.4751 7.01665V16.3167C14.4751 17.6583 13.8085 18.3333 12.4668 18.3333H7.60015C6.25848 18.3333 5.5835 17.6583 5.5835 16.3167V7.01665C5.5835 5.67499 6.25848 5 7.60015 5H12.4668C13.8085 5 14.4751 5.67499 14.4751 7.01665Z" stroke="#93002F" stroke-width="2" stroke-miterlimit="10" stroke-linecap="round" stroke-linejoin="round"/>
<path d="M11.1665 5.00033V3.45868C11.1665 2.26701 11.7665 1.66699 12.9581 1.66699H16.5415C17.7331 1.66699 18.3332 2.26701 18.3332 3.45868V13.2086C18.3332 14.4003 17.7331 15.0003 16.5415 15.0003H14.4748" stroke="#93002F" stroke-width="2" stroke-miterlimit="10" stroke-linecap="round" stroke-linejoin="round"/>
<path d="M8.3335 9.16699H11.6668" stroke="#93002F" stroke-width="1.5" stroke-miterlimit="10" stroke-linecap="round" stroke-linejoin="round"/>
<path d="M8.3335 11.667H11.6668" stroke="#93002F" stroke-width="1.5" stroke-miterlimit="10" stroke-linecap="round" stroke-linejoin="round"/>
<path d="M10 18.333V15.833" stroke="#93002F" stroke-width="1.5" stroke-miterlimit="10" stroke-linecap="round" stroke-linejoin="round"/>
</svg>
