<svg width="20" height="20" viewBox="0 0 20 20" fill="none" xmlns="http://www.w3.org/2000/svg">
<path d="M10.8334 18.3337H4.16675C2.50008 18.3337 1.66675 17.5003 1.66675 15.8337V9.16699C1.66675 7.50033 2.50008 6.66699 4.16675 6.66699H8.33341V15.8337C8.33341 17.5003 9.16675 18.3337 10.8334 18.3337Z" stroke="#93002F" stroke-width="2" stroke-miterlimit="10" stroke-linecap="round" stroke-linejoin="round"/>
<path d="M8.42507 3.33301C8.3584 3.58301 8.33341 3.85801 8.33341 4.16634V6.66634H4.16675V4.99967C4.16675 4.08301 4.91675 3.33301 5.83341 3.33301H8.42507Z" stroke="#93002F" stroke-width="2" stroke-miterlimit="10" stroke-linecap="round" stroke-linejoin="round"/>
<path d="M11.6667 6.66699V10.8337" stroke="#93002F" stroke-width="2" stroke-miterlimit="10" stroke-linecap="round" stroke-linejoin="round"/>
<path d="M15 6.66699V10.8337" stroke="#93002F" stroke-width="1.5" stroke-miterlimit="10" stroke-linecap="round" stroke-linejoin="round"/>
<path d="M14.1667 14.167H12.5001C12.0417 14.167 11.6667 14.542 11.6667 15.0003V18.3337H15.0001V15.0003C15.0001 14.542 14.6251 14.167 14.1667 14.167Z" stroke="#93002F" stroke-width="1.5" stroke-miterlimit="10" stroke-linecap="round" stroke-linejoin="round"/>
<path d="M5 10.833V14.1663" stroke="#93002F" stroke-width="1.5" stroke-miterlimit="10" stroke-linecap="round" stroke-linejoin="round"/>
<path d="M8.33325 15.8337V4.16699C8.33325 2.50033 9.16659 1.66699 10.8333 1.66699H15.8333C17.4999 1.66699 18.3333 2.50033 18.3333 4.16699V15.8337C18.3333 17.5003 17.4999 18.3337 15.8333 18.3337H10.8333C9.16659 18.3337 8.33325 17.5003 8.33325 15.8337Z" stroke="#93002F" stroke-width="1.5" stroke-miterlimit="10" stroke-linecap="round" stroke-linejoin="round"/>
</svg>
