<svg width="20" height="20" viewBox="0 0 20 20" fill="none" xmlns="http://www.w3.org/2000/svg">
<path d="M1.6665 18.333H18.3332" stroke="#93002F" stroke-width="2" stroke-miterlimit="10" stroke-linecap="round" stroke-linejoin="round"/>
<path d="M12.5083 18.3249L2.50834 18.3416L2.5 5.89155C2.5 5.33322 2.78335 4.81652 3.24168 4.50819L6.57501 2.2832C7.13335 1.9082 7.86665 1.9082 8.42499 2.2832L11.7583 4.50819C12.225 4.81652 12.5 5.33322 12.5 5.89155L12.5083 18.3249Z" stroke="#93002F" stroke-width="2" stroke-miterlimit="10" stroke-linecap="round" stroke-linejoin="round"/>
<path d="M16.6499 18.3417V15" stroke="#93002F" stroke-width="2" stroke-miterlimit="10" stroke-linecap="round" stroke-linejoin="round"/>
<path d="M16.6667 10C15.75 10 15 10.75 15 11.6667V13.3333C15 14.25 15.75 15 16.6667 15C17.5833 15 18.3333 14.25 18.3333 13.3333V11.6667C18.3333 10.75 17.5833 10 16.6667 10Z" stroke="#93002F" stroke-width="1.5" stroke-miterlimit="10" stroke-linecap="round" stroke-linejoin="round"/>
<path d="M2.5 11.667H12.5" stroke="#93002F" stroke-width="1.5" stroke-miterlimit="10" stroke-linecap="round" stroke-linejoin="round"/>
<path d="M7.5 18.333V15.208" stroke="#93002F" stroke-width="1.5" stroke-miterlimit="10" stroke-linecap="round" stroke-linejoin="round"/>
<path d="M7.5 8.75C8.19036 8.75 8.75 8.19036 8.75 7.5C8.75 6.80964 8.19036 6.25 7.5 6.25C6.80964 6.25 6.25 6.80964 6.25 7.5C6.25 8.19036 6.80964 8.75 7.5 8.75Z" stroke="#93002F" stroke-width="1.5" stroke-miterlimit="10" stroke-linecap="round" stroke-linejoin="round"/>
</svg>
