<svg width="24" height="24" viewBox="0 0 24 24" fill="none" xmlns="http://www.w3.org/2000/svg">
<g clip-path="url(#clip0_2826_340)">
<path d="M7.5 21.75C8.32843 21.75 9 21.0784 9 20.25C9 19.4216 8.32843 18.75 7.5 18.75C6.67157 18.75 6 19.4216 6 20.25C6 21.0784 6.67157 21.75 7.5 21.75Z" fill="#EF2C5A"/>
<path d="M17.25 21.75C18.0784 21.75 18.75 21.0784 18.75 20.25C18.75 19.4216 18.0784 18.75 17.25 18.75C16.4216 18.75 15.75 19.4216 15.75 20.25C15.75 21.0784 16.4216 21.75 17.25 21.75Z" fill="#EF2C5A"/>
<path d="M3.96562 6.75H20.7844L18.3094 15.4125C18.2211 15.7269 18.032 16.0036 17.7711 16.2C17.5103 16.3965 17.1922 16.5019 16.8656 16.5H7.88437C7.55783 16.5019 7.2397 16.3965 6.97886 16.2C6.71803 16.0036 6.52893 15.7269 6.44062 15.4125L3.04688 3.54375C3.00203 3.38696 2.9073 3.24905 2.77704 3.15093C2.64677 3.05282 2.48808 2.99983 2.325 3H0.75" stroke="#EF2C5A" stroke-width="2" stroke-linecap="round" stroke-linejoin="round"/>
</g>
<defs>
<clipPath id="clip0_2826_340">
<rect width="24" height="24" fill="white"/>
</clipPath>
</defs>
</svg>
