<svg width="20" height="20" viewBox="0 0 20 20" fill="none" xmlns="http://www.w3.org/2000/svg">
<mask id="path-1-inside-1_4035_43776" fill="white">
<path d="M17.5 18.958H2.5C2.15833 18.958 1.875 18.6747 1.875 18.333C1.875 17.9913 2.15833 17.708 2.5 17.708H17.5C17.8417 17.708 18.125 17.9913 18.125 18.333C18.125 18.6747 17.8417 18.958 17.5 18.958Z"/>
</mask>
<path d="M17.5 18.958H2.5C2.15833 18.958 1.875 18.6747 1.875 18.333C1.875 17.9913 2.15833 17.708 2.5 17.708H17.5C17.8417 17.708 18.125 17.9913 18.125 18.333C18.125 18.6747 17.8417 18.958 17.5 18.958Z" fill="white"/>
<path d="M17.5 16.958H2.5V20.958H17.5V16.958ZM2.5 16.958C3.2629 16.958 3.875 17.5701 3.875 18.333H-0.125C-0.125 19.7792 1.05376 20.958 2.5 20.958V16.958ZM3.875 18.333C3.875 19.0959 3.2629 19.708 2.5 19.708V15.708C1.05376 15.708 -0.125 16.8868 -0.125 18.333H3.875ZM2.5 19.708H17.5V15.708H2.5V19.708ZM17.5 19.708C16.7371 19.708 16.125 19.0959 16.125 18.333H20.125C20.125 16.8868 18.9462 15.708 17.5 15.708V19.708ZM16.125 18.333C16.125 17.5701 16.7371 16.958 17.5 16.958V20.958C18.9462 20.958 20.125 19.7792 20.125 18.333H16.125Z" fill="white" mask="url(#path-1-inside-1_4035_43776)"/>
<mask id="path-3-inside-2_4035_43776" fill="white">
<path d="M4.66665 16.4584H3.33333C2.53333 16.4584 1.875 15.8001 1.875 15.0001V7.81673C1.875 7.01673 2.53333 6.3584 3.33333 6.3584H4.66665C5.46665 6.3584 6.12498 7.01673 6.12498 7.81673V15.0001C6.12498 15.8001 5.46665 16.4584 4.66665 16.4584ZM3.33333 7.60006C3.21667 7.60006 3.125 7.69172 3.125 7.80839V15.0001C3.125 15.1167 3.21667 15.2084 3.33333 15.2084H4.66665C4.78331 15.2084 4.87498 15.1167 4.87498 15.0001V7.81673C4.87498 7.70007 4.78331 7.6084 4.66665 7.6084H3.33333V7.60006Z"/>
</mask>
<path d="M4.66665 16.4584H3.33333C2.53333 16.4584 1.875 15.8001 1.875 15.0001V7.81673C1.875 7.01673 2.53333 6.3584 3.33333 6.3584H4.66665C5.46665 6.3584 6.12498 7.01673 6.12498 7.81673V15.0001C6.12498 15.8001 5.46665 16.4584 4.66665 16.4584ZM3.33333 7.60006C3.21667 7.60006 3.125 7.69172 3.125 7.80839V15.0001C3.125 15.1167 3.21667 15.2084 3.33333 15.2084H4.66665C4.78331 15.2084 4.87498 15.1167 4.87498 15.0001V7.81673C4.87498 7.70007 4.78331 7.6084 4.66665 7.6084H3.33333V7.60006Z" fill="white"/>
<path d="M3.33333 7.60006H5.33333V5.60006H3.33333V7.60006ZM3.33333 7.6084H1.33333V9.6084H3.33333V7.6084ZM4.66665 14.4584H3.33333V18.4584H4.66665V14.4584ZM3.33333 14.4584C3.6379 14.4584 3.875 14.6955 3.875 15.0001H-0.125C-0.125 16.9046 1.42876 18.4584 3.33333 18.4584V14.4584ZM3.875 15.0001V7.81673H-0.125V15.0001H3.875ZM3.875 7.81673C3.875 8.1213 3.6379 8.3584 3.33333 8.3584V4.3584C1.42876 4.3584 -0.125 5.91216 -0.125 7.81673H3.875ZM3.33333 8.3584H4.66665V4.3584H3.33333V8.3584ZM4.66665 8.3584C4.36208 8.3584 4.12498 8.1213 4.12498 7.81673H8.12498C8.12498 5.91216 6.57122 4.3584 4.66665 4.3584V8.3584ZM4.12498 7.81673V15.0001H8.12498V7.81673H4.12498ZM4.12498 15.0001C4.12498 14.6955 4.36208 14.4584 4.66665 14.4584V18.4584C6.57122 18.4584 8.12498 16.9046 8.12498 15.0001H4.12498ZM3.33333 5.60006C2.1121 5.60006 1.125 6.58715 1.125 7.80839H5.125C5.125 8.79629 4.32124 9.60006 3.33333 9.60006V5.60006ZM1.125 7.80839V15.0001H5.125V7.80839H1.125ZM1.125 15.0001C1.125 16.2213 2.1121 17.2084 3.33333 17.2084V13.2084C4.32124 13.2084 5.125 14.0122 5.125 15.0001H1.125ZM3.33333 17.2084H4.66665V13.2084H3.33333V17.2084ZM4.66665 17.2084C5.88788 17.2084 6.87498 16.2213 6.87498 15.0001H2.87498C2.87498 14.0122 3.67874 13.2084 4.66665 13.2084V17.2084ZM6.87498 15.0001V7.81673H2.87498V15.0001H6.87498ZM6.87498 7.81673C6.87498 6.5955 5.88788 5.6084 4.66665 5.6084V9.6084C3.67874 9.6084 2.87498 8.80463 2.87498 7.81673H6.87498ZM4.66665 5.6084H3.33333V9.6084H4.66665V5.6084ZM5.33333 7.6084V7.60006H1.33333V7.6084H5.33333Z" fill="white" mask="url(#path-3-inside-2_4035_43776)"/>
<path d="M10.6669 16.4585H9.33358C8.53358 16.4585 7.87524 15.8002 7.87524 15.0002V5.15853C7.87524 4.35853 8.53358 3.7002 9.33358 3.7002H10.6669C11.4669 3.7002 12.1252 4.35853 12.1252 5.15853V15.0002C12.1252 15.8002 11.4669 16.4585 10.6669 16.4585ZM9.33358 4.9502C9.21691 4.9502 9.12524 5.04186 9.12524 5.15853V15.0002C9.12524 15.1169 9.21691 15.2085 9.33358 15.2085H10.6669C10.7836 15.2085 10.8752 15.1169 10.8752 15.0002V5.15853C10.8752 5.04186 10.7836 4.9502 10.6669 4.9502H9.33358Z" fill="white"/>
<path d="M16.6666 16.4587H15.3333C14.5333 16.4587 13.875 15.8003 13.875 15.0003V2.50033C13.875 1.70033 14.5333 1.04199 15.3333 1.04199H16.6666C17.4666 1.04199 18.125 1.70033 18.125 2.50033V15.0003C18.125 15.8003 17.4666 16.4587 16.6666 16.4587ZM15.3333 2.29199C15.2167 2.29199 15.125 2.38366 15.125 2.50033V15.0003C15.125 15.117 15.2167 15.2087 15.3333 15.2087H16.6666C16.7833 15.2087 16.875 15.117 16.875 15.0003V2.50033C16.875 2.38366 16.7833 2.29199 16.6666 2.29199H15.3333Z" fill="white"/>
</svg>
