<svg width="84" height="24" viewBox="0 0 84 24" fill="none" xmlns="http://www.w3.org/2000/svg">
<g clip-path="url(#clip0_2826_587)">
<path d="M13.2991 23.0089C10.9825 23.0089 8.90312 21.5729 8.06017 19.3914L6.96837 16.569C6.85638 16.3126 6.73741 16.1467 6.61143 16.0696C6.48468 15.9925 6.27937 15.954 5.99554 15.954H5.50952L5.22181 18.34C4.89986 21.0051 2.6626 23.0089 0.00775146 23.0089L2.23723 4.66816C2.56072 2.003 4.79953 0 7.45516 0L5.88978 12.8956H6.20863C6.47224 12.8956 6.68453 12.8547 6.84705 12.7729C7.00881 12.6911 7.17132 12.5425 7.33308 12.327L9.61699 9.16251C10.5533 7.86572 12.0417 7.09502 13.6288 7.08637L16.3 7.07065L11.8924 12.7423C11.6894 13.0089 11.467 13.2448 11.2236 13.4493C10.9802 13.6545 10.7267 13.8338 10.4638 13.9872C10.6769 14.1617 10.8612 14.3639 11.0183 14.5943C11.1754 14.8247 11.3146 15.0889 11.4359 15.3862L14.597 23.0097H13.2991V23.0089Z" fill="#0A0A0A"/>
<path d="M16.2695 23.0089L18.4741 4.66895C18.7945 2.00378 21.0318 0 23.6865 0L21.482 18.34C21.1609 21.0051 18.9244 23.0089 16.2695 23.0089Z" fill="#0A0A0A"/>
<path d="M42.8058 19.4587C43.0189 19.6026 43.2716 19.7355 43.5655 19.8582C43.8595 19.9808 44.2445 20.043 44.7203 20.043C45.3892 20.043 45.8851 19.892 46.2094 19.5892C46.5337 19.2872 46.6956 18.931 46.6956 18.5213C46.6956 18.2035 46.6116 17.9425 46.4443 17.7372C46.2772 17.5319 46.057 17.3558 45.7834 17.2072C45.5097 17.0585 45.2009 16.9256 44.8563 16.8077C44.512 16.6905 44.1573 16.5592 43.7926 16.416C43.4279 16.2729 43.0733 16.1062 42.7289 15.9167C42.3843 15.7271 42.0757 15.4889 41.8019 15.2018C41.5282 14.9148 41.308 14.5617 41.1409 14.1409C40.9736 13.721 40.8897 13.2137 40.8897 12.6192C40.8897 11.8816 41.0243 11.1643 41.2925 10.4676C41.5609 9.77083 41.9614 9.15349 42.4931 8.61558C43.0251 8.07769 43.686 7.64515 44.4761 7.31722C45.2662 6.98928 46.1884 6.82571 47.2421 6.82571C48.2958 6.82571 49.2354 7.00973 50.062 7.37935C50.8877 7.74818 51.5689 8.19957 52.1064 8.73197L51.1413 9.97372C50.5766 10.7004 49.5805 10.9182 48.7703 10.492C48.5425 10.374 48.2842 10.2694 47.995 10.1766C47.7066 10.0846 47.3745 10.0382 46.9995 10.0382C46.3005 10.0382 45.8012 10.1743 45.5027 10.4456C45.2032 10.7177 45.054 11.0684 45.054 11.4986C45.054 11.7754 45.1373 12.0113 45.3043 12.2056C45.4716 12.4006 45.6916 12.5744 45.9653 12.7285C46.2391 12.8819 46.5509 13.0234 46.9 13.1508C47.2492 13.279 47.6068 13.4229 47.9718 13.581C48.3364 13.7399 48.6934 13.9215 49.0432 14.1268C49.3924 14.332 49.7042 14.5829 49.978 14.8802C50.2517 15.1774 50.4717 15.5313 50.6389 15.941C50.8062 16.3508 50.8893 16.8376 50.8893 17.4014C50.8893 18.2004 50.7323 18.9561 50.418 19.6686C50.104 20.3811 49.6528 21.0008 49.0658 21.5285C48.4779 22.0562 47.7664 22.4761 46.9304 22.7891C46.0944 23.1014 45.1551 23.2579 44.1114 23.2579C43.6386 23.2579 43.1666 23.2122 42.7031 23.1178C42.1923 23.014 41.7117 22.8717 41.2614 22.6893C40.8306 22.5147 40.438 22.3078 40.0834 22.0664C39.7287 21.8258 39.4402 21.567 39.217 21.2902L40.1012 19.9769C40.7078 19.0773 41.9185 18.8461 42.8058 19.4587Z" fill="#0A0A0A"/>
<path d="M52.258 23.0089L54.4558 4.73029C54.7801 2.02974 57.046 0 59.7358 0L58.6262 9.16094C59.3456 8.36195 60.1053 7.77291 60.9062 7.39307C61.7063 7.01404 62.5322 6.82451 63.3837 6.82451C63.9709 6.82451 64.5159 6.93224 65.0175 7.14693C65.5192 7.3624 65.9468 7.67697 66.3015 8.0922C66.6561 8.50742 66.9344 9.01702 67.1375 9.62177C67.3404 10.2265 67.4415 10.9233 67.4415 11.7121C67.4415 11.8969 67.4337 12.0864 67.4189 12.2807C67.4043 12.4757 67.3862 12.6754 67.3661 12.8799L66.181 23.0089H61.4692L62.6543 12.8799C62.6746 12.7163 62.6901 12.5645 62.7002 12.4269C62.7102 12.2885 62.7157 12.158 62.7157 12.0353C62.7157 11.4816 62.6194 11.0979 62.4272 10.8824C62.2344 10.6669 61.9459 10.56 61.5609 10.56C61.2469 10.56 60.9171 10.6551 60.5734 10.8446C60.2288 11.0342 59.8967 11.3031 59.5779 11.6515C59.2591 11.9999 58.9597 12.4198 58.6815 12.9121C58.4021 13.4036 58.1721 13.9526 57.99 14.5565L57.5413 18.2802C57.214 20.9792 54.9471 23.0089 52.258 23.0089Z" fill="#0A0A0A"/>
<path d="M82.0771 23.0083H79.5546C79.2606 23.0083 79.0148 22.9697 78.8174 22.8927C78.6198 22.8156 78.4628 22.711 78.3461 22.5773C78.2295 22.4444 78.1485 22.2855 78.1026 22.1007C78.0567 21.9159 78.0342 21.7162 78.0342 21.5015V20.3643C77.3858 21.2663 76.6664 21.9733 75.8763 22.4853C75.0862 22.998 74.2144 23.2536 73.2618 23.2536C72.6943 23.2536 72.1474 23.138 71.6203 22.9076C71.0931 22.6772 70.6273 22.3288 70.2222 21.8625C69.8169 21.3961 69.4926 20.8016 69.2493 20.0796C69.0058 19.3569 68.8846 18.5044 68.8846 17.5207C68.8846 16.076 69.145 14.7053 69.6676 13.4093C70.1893 12.1133 70.9189 10.9785 71.8558 10.0049C72.7929 9.03131 73.905 8.25826 75.1919 7.68418C76.4781 7.1101 77.892 6.82306 79.4325 6.82306C80.1822 6.82306 80.9419 6.87418 81.7124 6.9764C82.4824 7.07864 83.2421 7.26346 83.9925 7.53005L82.0771 23.0083ZM75.1469 19.4883C75.4913 19.4883 75.8257 19.3577 76.15 19.0966C76.4743 18.8355 76.7808 18.4793 77.0692 18.0287C77.3577 17.5781 77.6236 17.0504 77.8671 16.4456C77.8694 16.4393 77.8717 16.4338 77.8739 16.4275C78.2574 15.4713 78.4961 14.4623 78.623 13.4384L79.0374 10.0985H78.7635C77.9938 10.0985 77.2915 10.2731 76.6587 10.6214C76.0256 10.9698 75.4804 11.444 75.0248 12.0433C74.5691 12.6425 74.2167 13.3393 73.9686 14.1336C73.7206 14.9278 73.5962 15.7756 73.5962 16.6776C73.5962 17.1904 73.6366 17.6253 73.7176 17.9838C73.7984 18.3425 73.9072 18.6318 74.0442 18.852C74.1811 19.0722 74.3427 19.2335 74.5303 19.3365C74.7193 19.4371 74.9237 19.4883 75.1469 19.4883Z" fill="#0A0A0A"/>
<path d="M37.1529 23.0083H34.6304C34.3365 23.0083 34.0907 22.9697 33.8931 22.8927C33.6956 22.8156 33.5386 22.711 33.422 22.5773C33.3052 22.4444 33.2244 22.2855 33.1785 22.1007C33.1326 21.9159 33.11 21.7162 33.11 21.5015V20.3643C32.4614 21.2663 31.7423 21.9733 30.9522 22.4853C30.1621 22.998 29.2903 23.2536 28.3377 23.2536C27.7702 23.2536 27.2234 23.138 26.6962 22.9076C26.169 22.6772 25.7032 22.3288 25.2979 21.8625C24.8928 21.3961 24.5685 20.8016 24.3252 20.0796C24.0817 19.3577 23.9605 18.5044 23.9605 17.5207C23.9605 16.076 24.2209 14.7053 24.7435 13.4093C25.2652 12.1133 25.9946 10.9785 26.9317 10.0049C27.8688 9.03131 28.9809 8.25826 30.2678 7.68418C31.554 7.1101 32.9679 6.82306 34.5083 6.82306C35.2578 6.82306 36.0178 6.87418 36.7882 6.9764C37.5583 7.07864 38.318 7.26346 39.0684 7.53005L37.1529 23.0083ZM30.2219 19.4883C30.5665 19.4883 30.9009 19.3577 31.2252 19.0966C31.5495 18.8355 31.8557 18.4793 32.1442 18.0287C32.4327 17.5781 32.6988 17.0504 32.9421 16.4456C32.9443 16.4393 32.9469 16.4338 32.9491 16.4275C33.3325 15.4713 33.5713 14.4623 33.6979 13.4384L34.1124 10.0985H33.8387C33.069 10.0985 32.3667 10.2731 31.7336 10.6214C31.1006 10.9698 30.5556 11.444 30.0998 12.0433C29.6441 12.6425 29.2919 13.3393 29.0439 14.1336C28.7958 14.9278 28.6714 15.7756 28.6714 16.6776C28.6714 17.1904 28.7118 17.6253 28.7926 17.9838C28.8736 18.3425 28.9825 18.6318 29.1192 18.852C29.2561 19.0722 29.4179 19.2335 29.6053 19.3365C29.7942 19.4371 29.9987 19.4883 30.2219 19.4883Z" fill="#0A0A0A"/>
</g>
<defs>
<clipPath id="clip0_2826_587">
<rect width="83.9846" height="23.3103" fill="white" transform="translate(0.0078125)"/>
</clipPath>
</defs>
</svg>
