<svg width="20" height="20" viewBox="0 0 20 20" fill="none" xmlns="http://www.w3.org/2000/svg">
<mask id="path-1-inside-1_4035_26823" fill="white">
<path d="M9.82467 9.89992C9.37467 9.89992 8.91634 9.81659 8.55801 9.65825L3.64134 7.47492C2.39134 6.91659 2.20801 6.16658 2.20801 5.75825C2.20801 5.34992 2.39134 4.59992 3.64134 4.04159L8.55801 1.85825C9.28301 1.53325 10.3747 1.53325 11.0997 1.85825L16.0247 4.04159C17.2663 4.59159 17.458 5.34992 17.458 5.75825C17.458 6.16658 17.2747 6.91659 16.0247 7.47492L11.0997 9.65825C10.733 9.82492 10.283 9.89992 9.82467 9.89992ZM9.82467 2.86659C9.54134 2.86659 9.26634 2.90825 9.06634 2.99992L4.14967 5.18325C3.64134 5.41658 3.45801 5.64992 3.45801 5.75825C3.45801 5.86659 3.64134 6.10825 4.14134 6.33325L9.05801 8.51659C9.45801 8.69159 10.183 8.69159 10.583 8.51659L15.508 6.33325C16.0163 6.10825 16.1997 5.86659 16.1997 5.75825C16.1997 5.64992 16.0163 5.40825 15.508 5.18325L10.5913 2.99992C10.3913 2.91659 10.108 2.86659 9.82467 2.86659Z"/>
</mask>
<path d="M9.82467 9.89992C9.37467 9.89992 8.91634 9.81659 8.55801 9.65825L3.64134 7.47492C2.39134 6.91659 2.20801 6.16658 2.20801 5.75825C2.20801 5.34992 2.39134 4.59992 3.64134 4.04159L8.55801 1.85825C9.28301 1.53325 10.3747 1.53325 11.0997 1.85825L16.0247 4.04159C17.2663 4.59159 17.458 5.34992 17.458 5.75825C17.458 6.16658 17.2747 6.91659 16.0247 7.47492L11.0997 9.65825C10.733 9.82492 10.283 9.89992 9.82467 9.89992ZM9.82467 2.86659C9.54134 2.86659 9.26634 2.90825 9.06634 2.99992L4.14967 5.18325C3.64134 5.41658 3.45801 5.64992 3.45801 5.75825C3.45801 5.86659 3.64134 6.10825 4.14134 6.33325L9.05801 8.51659C9.45801 8.69159 10.183 8.69159 10.583 8.51659L15.508 6.33325C16.0163 6.10825 16.1997 5.86659 16.1997 5.75825C16.1997 5.64992 16.0163 5.40825 15.508 5.18325L10.5913 2.99992C10.3913 2.91659 10.108 2.86659 9.82467 2.86659Z" fill="white"/>
<path d="M8.55801 9.65825L7.7463 11.4861L7.74968 11.4876L8.55801 9.65825ZM3.64134 7.47492L2.82567 9.30104L2.82964 9.3028L3.64134 7.47492ZM3.64134 4.04159L2.82964 2.2137L2.82568 2.21547L3.64134 4.04159ZM8.55801 1.85825L9.36971 3.68614L9.37612 3.68327L8.55801 1.85825ZM11.0997 1.85825L10.2816 3.68329L10.2891 3.68664L11.0997 1.85825ZM16.0247 4.04159L15.2141 5.86997L15.2147 5.87022L16.0247 4.04159ZM16.0247 7.47492L16.8352 9.30331L16.8403 9.30103L16.0247 7.47492ZM11.0997 9.65825L10.2891 7.82986L10.2806 7.83365L10.2721 7.83752L11.0997 9.65825ZM9.06634 2.99992L9.87804 4.8278L9.88887 4.82299L9.89965 4.81805L9.06634 2.99992ZM4.14967 5.18325L3.33797 3.35537L3.32662 3.36041L3.31534 3.36559L4.14967 5.18325ZM4.14134 6.33325L3.3206 8.15712L3.32964 8.16113L4.14134 6.33325ZM9.05801 8.51659L8.24629 10.3445L8.25637 10.3489L9.05801 8.51659ZM10.583 8.51659L11.3847 10.3489L11.3936 10.345L10.583 8.51659ZM15.508 6.33325L14.6985 4.50439L14.6975 4.50486L15.508 6.33325ZM15.508 5.18325L14.6963 7.01113L14.6985 7.01211L15.508 5.18325ZM10.5913 2.99992L11.403 1.17204L11.3819 1.16266L11.3606 1.15376L10.5913 2.99992ZM9.82467 7.89992C9.59055 7.89992 9.41848 7.85192 9.36634 7.82888L7.74968 11.4876C8.4142 11.7812 9.1588 11.8999 9.82467 11.8999V7.89992ZM9.36971 7.83037L4.45304 5.64704L2.82964 9.3028L7.74631 11.4861L9.36971 7.83037ZM4.45701 5.6488C4.27959 5.56956 4.18529 5.5037 4.14353 5.47012C4.10376 5.43813 4.10825 5.43286 4.12867 5.46401C4.1493 5.49549 4.17178 5.54217 4.18749 5.60055C4.20257 5.65659 4.20801 5.71042 4.20801 5.75825H0.208008C0.208008 6.27272 0.327948 6.96208 0.78318 7.65666C1.23579 8.34723 1.92539 8.89891 2.82568 9.30103L4.45701 5.6488ZM4.20801 5.75825C4.20801 5.80609 4.20257 5.85992 4.18749 5.91596C4.17178 5.97434 4.1493 6.02102 4.12867 6.05249C4.10825 6.08364 4.10376 6.07838 4.14353 6.04639C4.18529 6.0128 4.27959 5.94694 4.45701 5.8677L2.82568 2.21547C1.92539 2.6176 1.23579 3.16927 0.783181 3.85984C0.327948 4.55442 0.208008 5.24378 0.208008 5.75825H4.20801ZM4.45304 5.86946L9.36971 3.68613L7.74631 0.0303735L2.82964 2.21371L4.45304 5.86946ZM9.37612 3.68327C9.42386 3.66187 9.58607 3.6145 9.82884 3.6145C10.0716 3.6145 10.2338 3.66187 10.2816 3.68327L11.9178 0.0332333C11.2405 -0.270365 10.4944 -0.385498 9.82884 -0.385498C9.16327 -0.385498 8.41715 -0.270365 7.7399 0.0332333L9.37612 3.68327ZM10.2891 3.68664L15.2141 5.86997L16.8352 2.2132L11.9102 0.0298642L10.2891 3.68664ZM15.2147 5.87022C15.3872 5.94666 15.4789 6.01065 15.5193 6.04318C15.558 6.07422 15.5543 6.07988 15.5351 6.05073C15.5159 6.0215 15.4944 5.97734 15.479 5.92103C15.4643 5.86707 15.458 5.81222 15.458 5.75825H19.458C19.458 5.23469 19.3318 4.54524 18.8788 3.85536C18.4264 3.16623 17.7373 2.61279 16.8347 2.21295L15.2147 5.87022ZM15.458 5.75825C15.458 5.71041 15.4634 5.65659 15.4785 5.60055C15.4942 5.54217 15.5167 5.49548 15.5373 5.46401C15.5578 5.43286 15.5623 5.43813 15.5225 5.47012C15.4807 5.5037 15.3864 5.56956 15.209 5.6488L16.8403 9.30103C17.7406 8.89891 18.4302 8.34723 18.8828 7.65666C19.3381 6.96208 19.458 6.27272 19.458 5.75825H15.458ZM15.2141 5.64653L10.2891 7.82986L11.9102 11.4866L16.8352 9.30331L15.2141 5.64653ZM10.2721 7.83752C10.2384 7.85282 10.0905 7.89992 9.82467 7.89992V11.8999C10.4755 11.8999 11.2276 11.797 11.9273 11.479L10.2721 7.83752ZM9.82467 0.866585C9.39616 0.866585 8.79874 0.922504 8.23303 1.18179L9.89965 4.81805C9.84559 4.84282 9.80481 4.85598 9.78277 4.86232C9.77106 4.86569 9.76235 4.8678 9.75692 4.86902C9.75146 4.87024 9.74851 4.87075 9.74821 4.8708C9.74803 4.87083 9.75513 4.86965 9.76961 4.86853C9.7839 4.86742 9.80246 4.86659 9.82467 4.86659V0.866585ZM8.25464 1.17204L3.33797 3.35537L4.96138 7.01113L9.87804 4.8278L8.25464 1.17204ZM3.31534 3.36559C2.92657 3.54405 2.5604 3.76742 2.25607 4.04856C2.10478 4.18832 1.93607 4.3725 1.79221 4.60581C1.66827 4.80681 1.45801 5.2127 1.45801 5.75825H5.45801C5.45801 6.24964 5.27066 6.58574 5.19698 6.70523C5.10338 6.85702 5.01228 6.94797 4.97036 6.9867C4.88478 7.06575 4.86445 7.05579 4.98401 7.00091L3.31534 3.36559ZM1.45801 5.75825C1.45801 6.29706 1.66345 6.69899 1.78234 6.8959C1.92247 7.128 2.08806 7.31387 2.24057 7.45758C2.54788 7.74715 2.92018 7.9769 3.32061 8.15709L4.96207 4.50941C4.86251 4.4646 4.89314 4.46102 4.98378 4.54642C5.02795 4.58805 5.11646 4.67913 5.2066 4.82842C5.25248 4.90442 5.30971 5.01359 5.35813 5.15438C5.40493 5.29044 5.45801 5.49825 5.45801 5.75825H1.45801ZM3.32964 8.16113L8.2463 10.3445L9.86971 6.68871L4.95304 4.50537L3.32964 8.16113ZM8.25637 10.3489C8.79959 10.5866 9.38298 10.6478 9.82051 10.6478C10.258 10.6478 10.8414 10.5866 11.3846 10.3489L9.78137 6.68427C9.83097 6.66257 9.86633 6.65182 9.88227 6.64738C9.89908 6.6427 9.90585 6.64183 9.90151 6.64256C9.89759 6.64321 9.88767 6.64466 9.87225 6.64588C9.85701 6.64708 9.8394 6.64784 9.82051 6.64784C9.80162 6.64784 9.78401 6.64708 9.76876 6.64588C9.75335 6.64466 9.74342 6.64321 9.7395 6.64256C9.73516 6.64183 9.74193 6.6427 9.75874 6.64738C9.77468 6.65182 9.81004 6.66257 9.85964 6.68427L8.25637 10.3489ZM11.3936 10.345L16.3186 8.16164L14.6975 4.50486L9.77245 6.6882L11.3936 10.345ZM16.3175 8.16211C16.7218 7.98315 17.0982 7.75429 17.4091 7.46411C17.5635 7.32002 17.7311 7.1334 17.8728 6.89983C17.9936 6.70089 18.1997 6.29807 18.1997 5.75825H14.1997C14.1997 5.2726 14.3829 4.94061 14.4533 4.82448C14.5448 4.67373 14.6348 4.5819 14.6798 4.53989C14.772 4.45388 14.8025 4.45835 14.6985 4.50439L16.3175 8.16211ZM18.1997 5.75825C18.1997 5.21844 17.9936 4.81561 17.8728 4.61667C17.7311 4.38311 17.5635 4.19648 17.4091 4.05239C17.0982 3.76222 16.7218 3.53335 16.3175 3.35439L14.6985 7.01211C14.8025 7.05815 14.772 7.06262 14.6798 6.97661C14.6348 6.9346 14.5448 6.84277 14.4533 6.69202C14.3829 6.57589 14.1997 6.2439 14.1997 5.75825H18.1997ZM16.3197 3.35537L11.403 1.17204L9.77964 4.8278L14.6963 7.01113L16.3197 3.35537ZM11.3606 1.15376C10.859 0.944787 10.3012 0.866585 9.82467 0.866585V4.86659C9.83713 4.86659 9.85069 4.86715 9.86422 4.86832C9.87782 4.86949 9.88849 4.87102 9.89526 4.8722C9.89846 4.87275 9.89998 4.8731 9.89979 4.87305C9.89962 4.87302 9.89706 4.87244 9.89217 4.87109C9.88732 4.86974 9.87919 4.86735 9.86803 4.86355C9.85694 4.85977 9.84144 4.85413 9.82211 4.84607L11.3606 1.15376Z" fill="white" mask="url(#path-1-inside-1_4035_26823)"/>
<mask id="path-3-inside-2_4035_26823" fill="white">
<path d="M10 14.2417C9.68333 14.2417 9.36667 14.1751 9.06667 14.0417L3.40833 11.5251C2.55 11.1501 1.875 10.1084 1.875 9.16675C1.875 8.82508 2.15833 8.54175 2.5 8.54175C2.84167 8.54175 3.125 8.82508 3.125 9.16675C3.125 9.62508 3.5 10.2001 3.91667 10.3917L9.575 12.9084C9.84167 13.0251 10.15 13.0251 10.425 12.9084L16.0833 10.3917C16.5 10.2084 16.875 9.62508 16.875 9.16675C16.875 8.82508 17.1583 8.54175 17.5 8.54175C17.8417 8.54175 18.125 8.82508 18.125 9.16675C18.125 10.1084 17.45 11.1501 16.5917 11.5334L10.9333 14.0501C10.6333 14.1751 10.3167 14.2417 10 14.2417Z"/>
</mask>
<path d="M10 14.2417C9.68333 14.2417 9.36667 14.1751 9.06667 14.0417L3.40833 11.5251C2.55 11.1501 1.875 10.1084 1.875 9.16675C1.875 8.82508 2.15833 8.54175 2.5 8.54175C2.84167 8.54175 3.125 8.82508 3.125 9.16675C3.125 9.62508 3.5 10.2001 3.91667 10.3917L9.575 12.9084C9.84167 13.0251 10.15 13.0251 10.425 12.9084L16.0833 10.3917C16.5 10.2084 16.875 9.62508 16.875 9.16675C16.875 8.82508 17.1583 8.54175 17.5 8.54175C17.8417 8.54175 18.125 8.82508 18.125 9.16675C18.125 10.1084 17.45 11.1501 16.5917 11.5334L10.9333 14.0501C10.6333 14.1751 10.3167 14.2417 10 14.2417Z" fill="white"/>
<path d="M9.06667 14.0417L8.25389 15.8691L8.25439 15.8694L9.06667 14.0417ZM3.40833 11.5251L4.22113 9.69764L4.20904 9.69236L3.40833 11.5251ZM3.91667 10.3917L3.08086 12.2087L3.09234 12.214L3.10389 12.2191L3.91667 10.3917ZM9.575 12.9084L8.76221 14.7358L8.77336 14.7407L9.575 12.9084ZM10.425 12.9084L11.2061 14.7496L11.222 14.7428L11.2378 14.7358L10.425 12.9084ZM16.0833 10.3917L15.2778 8.5611L15.2706 8.56435L16.0833 10.3917ZM16.5917 11.5334L17.4044 13.3608L17.4072 13.3596L16.5917 11.5334ZM10.9333 14.0501L11.7026 15.8962L11.7244 15.8871L11.7461 15.8775L10.9333 14.0501ZM10 12.2417C9.96608 12.2417 9.9259 12.235 9.87894 12.2141L8.25439 15.8694C8.80744 16.1152 9.40059 16.2417 10 16.2417V12.2417ZM9.87944 12.2143L4.22111 9.69768L2.59556 13.3525L8.25389 15.8691L9.87944 12.2143ZM4.20904 9.69236C4.21505 9.69499 4.18923 9.6843 4.14242 9.64229C4.09633 9.60093 4.04456 9.54216 3.99705 9.46902C3.94958 9.39592 3.91602 9.32333 3.89592 9.2615C3.87552 9.19875 3.875 9.16607 3.875 9.16675H-0.125C-0.125 10.0941 0.197405 10.9625 0.642529 11.6478C1.08725 12.3325 1.75168 12.9838 2.60763 13.3578L4.20904 9.69236ZM3.875 9.16675C3.875 9.92965 3.2629 10.5417 2.5 10.5417V6.54175C1.05376 6.54175 -0.125 7.72051 -0.125 9.16675H3.875ZM2.5 10.5417C1.7371 10.5417 1.125 9.92965 1.125 9.16675H5.125C5.125 7.72051 3.94624 6.54175 2.5 6.54175V10.5417ZM1.125 9.16675C1.125 9.89328 1.40057 10.5262 1.68628 10.967C1.97285 11.4092 2.43337 11.9109 3.08086 12.2087L4.75248 8.57477C4.88259 8.63462 4.95676 8.69828 4.98615 8.72587C5.01852 8.75627 5.03454 8.77858 5.04289 8.79146C5.05118 8.80424 5.06612 8.82966 5.08171 8.87508C5.09597 8.91661 5.125 9.01633 5.125 9.16675H1.125ZM3.10389 12.2191L8.76222 14.7358L10.3878 11.081L4.72944 8.56435L3.10389 12.2191ZM8.77336 14.7407C9.55872 15.0843 10.4398 15.0747 11.2061 14.7496L9.6439 11.0673C9.86021 10.9755 10.1246 10.9658 10.3766 11.0761L8.77336 14.7407ZM11.2378 14.7358L16.8961 12.2191L15.2706 8.56435L9.61222 11.081L11.2378 14.7358ZM16.8888 12.2224C17.5628 11.9258 18.0317 11.4073 18.316 10.9666C18.6015 10.5241 18.875 9.89039 18.875 9.16675H14.875C14.875 9.01699 14.9038 8.91874 14.9172 8.87936C14.9321 8.83575 14.9464 8.81122 14.9548 8.79812C14.9632 8.78512 14.9808 8.76032 15.0171 8.72635C15.05 8.69555 15.1331 8.6248 15.2779 8.56112L16.8888 12.2224ZM18.875 9.16675C18.875 9.92965 18.2629 10.5417 17.5 10.5417V6.54175C16.0538 6.54175 14.875 7.72051 14.875 9.16675H18.875ZM17.5 10.5417C16.7371 10.5417 16.125 9.92965 16.125 9.16675H20.125C20.125 7.72051 18.9462 6.54175 17.5 6.54175V10.5417ZM16.125 9.16675C16.125 9.16603 16.1245 9.19881 16.104 9.26194C16.0838 9.32416 16.0499 9.39756 16.0017 9.47193C15.9535 9.54631 15.9005 9.60698 15.8524 9.65051C15.8035 9.69469 15.7744 9.708 15.7761 9.70726L17.4072 13.3596C18.2546 12.9811 18.915 12.3317 19.3587 11.647C19.8025 10.9621 20.125 10.0943 20.125 9.16675H16.125ZM15.7789 9.70601L10.1206 12.2227L11.7461 15.8775L17.4044 13.3608L15.7789 9.70601ZM10.1641 12.2039C10.0915 12.2342 10.0355 12.2417 10 12.2417V16.2417C10.5978 16.2417 11.1751 16.116 11.7026 15.8962L10.1641 12.2039Z" fill="white" mask="url(#path-3-inside-2_4035_26823)"/>
<path d="M10 18.4083C9.68333 18.4083 9.36667 18.3416 9.06667 18.2083L3.40833 15.6916C2.475 15.275 1.875 14.35 1.875 13.325C1.875 12.9833 2.15833 12.7 2.5 12.7C2.84167 12.7 3.125 12.9916 3.125 13.3333C3.125 13.8583 3.43333 14.3416 3.91667 14.5583L9.575 17.075C9.84167 17.1916 10.15 17.1916 10.425 17.075L16.0833 14.5583C16.5667 14.3416 16.875 13.8666 16.875 13.3333C16.875 12.9916 17.1583 12.7083 17.5 12.7083C17.8417 12.7083 18.125 12.9916 18.125 13.3333C18.125 14.3583 17.525 15.2833 16.5917 15.7L10.9333 18.2166C10.6333 18.3416 10.3167 18.4083 10 18.4083Z" fill="white"/>
</svg>
