<svg width="24" height="24" viewBox="0 0 24 24" fill="none" xmlns="http://www.w3.org/2000/svg">
<path d="M10.8221 14.264V14.1255C10.8257 13.4828 10.886 12.9714 11.0032 12.5915C11.124 12.2115 11.2944 11.9061 11.5146 11.6753C11.7347 11.4409 12.0029 11.226 12.3189 11.0307C12.5355 10.8958 12.7291 10.7484 12.8995 10.5886C13.0735 10.4253 13.2102 10.2442 13.3097 10.0453C13.4091 9.84287 13.4588 9.61738 13.4588 9.3688C13.4588 9.08826 13.3931 8.845 13.2617 8.63904C13.1303 8.43307 12.9528 8.27327 12.7291 8.15964C12.5089 8.046 12.2621 7.98918 11.9887 7.98918C11.7365 7.98918 11.4968 8.04422 11.2695 8.15431C11.0458 8.26084 10.8594 8.42419 10.7102 8.64437C10.5646 8.86098 10.483 9.1362 10.4652 9.47H8.56891C8.58666 8.79529 8.75002 8.23066 9.05897 7.77611C9.37147 7.32157 9.7834 6.98066 10.2948 6.75338C10.8097 6.52611 11.3779 6.41248 11.9993 6.41248C12.6776 6.41248 13.2742 6.53144 13.7891 6.76936C14.3075 7.00729 14.7106 7.34642 14.9982 7.78677C15.2894 8.22356 15.435 8.74202 15.435 9.34216C15.435 9.74699 15.3693 10.1092 15.2379 10.4288C15.1101 10.7484 14.9272 11.0325 14.6893 11.2811C14.4514 11.5297 14.1691 11.7516 13.8423 11.9469C13.5547 12.1245 13.3186 12.3091 13.1339 12.5009C12.9528 12.6927 12.8178 12.9182 12.7291 13.1774C12.6438 13.4331 12.5994 13.7491 12.5959 14.1255V14.264H10.8221ZM11.749 17.5879C11.4293 17.5879 11.1541 17.4743 10.9233 17.247C10.6925 17.0197 10.5771 16.7427 10.5771 16.416C10.5771 16.0964 10.6925 15.823 10.9233 15.5957C11.1541 15.3684 11.4293 15.2548 11.749 15.2548C12.065 15.2548 12.3384 15.3684 12.5693 15.5957C12.8036 15.823 12.9208 16.0964 12.9208 16.416C12.9208 16.6326 12.8658 16.8297 12.7557 17.0073C12.6492 17.1848 12.5071 17.3269 12.3296 17.4334C12.1556 17.5364 11.962 17.5879 11.749 17.5879Z" fill="white"/>
<circle cx="12" cy="12" r="10" stroke="white" stroke-width="2" stroke-linecap="round" stroke-linejoin="round"/>
</svg>
