<svg width="612" height="612" viewBox="0 0 612 612" fill="none" xmlns="http://www.w3.org/2000/svg">
<path d="M91.3547 347.256L58.5149 281.317L134.94 264.23L179.231 286.642L127.545 316L129.162 369.972L91.3547 347.256Z" fill="white"/>
<ellipse cx="307" cy="312.423" rx="282" ry="278.423" fill="#9810FA"/>
<path d="M235.998 144.949C196.56 141.676 162.059 171.277 159.299 210.753L148.157 370.084C146.843 388.869 153.046 407.406 165.4 421.617L176.348 434.212C212.397 475.681 279.867 462.243 297.275 410.125L312.351 364.991C320.628 340.21 341.846 321.977 367.59 317.524L408.833 310.389C463.334 300.96 486.601 235.591 450.314 193.848L440.106 182.105C427.962 168.134 410.841 159.459 392.394 157.928L235.998 144.949Z" fill="white"/>
<path d="M403.458 442.688C396.405 440.051 389.607 436.85 383.065 433.087C376.523 429.324 370.344 425.054 364.527 420.275L362.92 428.585C362.533 430.715 362.675 432.783 363.347 434.788C364.019 436.794 365.111 438.527 366.623 439.987L387.033 459.696C388.653 461.261 390.574 461.839 392.797 461.43C395.019 461.022 396.536 459.747 397.348 457.605L403.458 442.688ZM339.733 350.158C339.399 361.418 341.762 372.072 346.821 382.121C351.88 392.17 358.459 401.107 366.559 408.933C371.742 413.939 377.34 418.328 383.351 422.1C389.362 425.872 395.683 429.13 402.314 431.872C403.703 432.379 405.115 432.62 406.55 432.595C407.985 432.569 409.222 432.017 410.26 430.937L429.814 410.689C430.857 409.609 431.365 408.352 431.34 406.917C431.315 405.482 431.025 404.081 430.471 402.715C427.49 396.184 424.01 389.981 420.03 384.105C416.05 378.229 411.471 372.788 406.291 367.782C398.192 359.961 389.033 353.697 378.813 348.992C368.594 344.286 357.862 342.299 346.616 343.031C345.767 343.046 344.922 343.273 344.08 343.712C343.238 344.151 342.505 344.695 341.879 345.343C341.253 345.991 340.736 346.743 340.326 347.6C339.916 348.456 339.719 349.309 339.733 350.158ZM387.883 389.769C385.484 392.252 382.508 393.525 378.955 393.587C375.401 393.649 372.381 392.481 369.893 390.083C367.405 387.684 366.132 384.706 366.074 381.148C366.016 377.59 367.184 374.572 369.579 372.092C371.973 369.613 374.951 368.34 378.513 368.273C382.075 368.207 385.094 369.375 387.569 371.778C390.044 374.181 391.317 377.157 391.388 380.706C391.458 384.255 390.29 387.276 387.883 389.769ZM441.314 403.487L456.009 396.861C458.117 395.975 459.363 394.413 459.749 392.177C460.135 389.941 459.518 388.04 457.898 386.476L437.488 366.766C435.976 365.306 434.18 364.276 432.102 363.675C430.023 363.074 427.924 363.005 425.804 363.467L417.553 365.203C422.538 370.955 427.024 377.007 431.012 383.359C435 389.711 438.434 396.42 441.314 403.487ZM428.525 455.469C424.745 451.819 422.782 447.341 422.634 442.035C422.486 436.729 424.239 432.186 427.893 428.406C431.548 424.626 436.026 422.69 441.329 422.598C446.631 422.505 451.175 424.284 454.958 427.934C460.142 432.939 463.272 438.911 464.349 445.849C465.425 452.786 466.502 459.747 467.58 466.731C460.558 465.898 453.563 465.037 446.596 464.148C439.628 463.259 433.605 460.366 428.525 455.469Z" fill="white"/>
</svg>
